<?xml version="1.0" encoding="utf-8"?>
<!-- Generator: Adobe Adobe Illustrator 24.2.0, SVG Export Plug-In . SVG Version: 6.00 Build 0)  -->
<svg version="1.1" id="Layer_1" xmlns="http://www.w3.org/2000/svg" xmlns:xlink="http://www.w3.org/1999/xlink" x="0px" y="0px"
	 width="3840px" height="2160px" viewBox="0 0 3840 2160" style="enable-background:new 0 0 3840 2160;" xml:space="preserve">
<style type="text/css">
	.st0{clip-path:url(#SVGID_2_);}
	.st1{clip-path:url(#SVGID_4_);fill:#FFD7EA;}
	.st2{clip-path:url(#SVGID_4_);}
	.st3{clip-path:url(#SVGID_6_);fill:none;stroke:#FBE5F2;stroke-miterlimit:10;}
	.st4{clip-path:url(#SVGID_8_);fill:#FFD1E0;}
	.st5{clip-path:url(#SVGID_10_);fill:#D9988E;}
	.st6{clip-path:url(#SVGID_12_);fill:#D4BADB;}
	.st7{opacity:0.502;clip-path:url(#SVGID_16_);}
	.st8{clip-path:url(#SVGID_18_);fill:#BBA1CE;}
	.st9{clip-path:url(#SVGID_20_);fill:#BBA1CE;}
	.st10{clip-path:url(#SVGID_22_);fill:#BBA1CE;}
	.st11{clip-path:url(#SVGID_24_);fill:#BBA1CE;}
	.st12{clip-path:url(#SVGID_26_);fill:#BBA1CE;}
	.st13{clip-path:url(#SVGID_28_);fill:#BBA1CE;}
	.st14{clip-path:url(#SVGID_30_);fill:#BBA1CE;}
	.st15{clip-path:url(#SVGID_32_);fill:#BBA1CE;}
	.st16{clip-path:url(#SVGID_34_);fill:#BBA1CE;}
	.st17{clip-path:url(#SVGID_36_);fill:#BBA1CE;}
	.st18{clip-path:url(#SVGID_38_);fill:#BBA1CE;}
	.st19{clip-path:url(#SVGID_40_);fill:#BBA1CE;}
	.st20{clip-path:url(#SVGID_42_);fill:#BBA1CE;}
	.st21{clip-path:url(#SVGID_44_);fill:#BBA1CE;}
	.st22{clip-path:url(#SVGID_46_);fill:#BBA1CE;}
	.st23{clip-path:url(#SVGID_48_);fill:#BBA1CE;}
	.st24{clip-path:url(#SVGID_50_);fill:#BBA1CE;}
	.st25{clip-path:url(#SVGID_52_);fill:#BBA1CE;}
	.st26{clip-path:url(#SVGID_54_);fill:#BBA1CE;}
	.st27{clip-path:url(#SVGID_56_);fill:#E0ACD4;}
	.st28{clip-path:url(#SVGID_58_);fill:#D4A7CE;}
	.st29{clip-path:url(#SVGID_60_);fill:#BAE3EE;}
	.st30{clip-path:url(#SVGID_62_);fill:#98D7E7;}
	.st31{clip-path:url(#SVGID_64_);fill:#F2B991;}
	.st32{clip-path:url(#SVGID_66_);fill:#F1B991;}
	.st33{clip-path:url(#SVGID_68_);fill:#F4B991;}
	.st34{opacity:0.2588;clip-path:url(#SVGID_70_);}
	.st35{clip-path:url(#SVGID_72_);}
	.st36{clip-path:url(#SVGID_74_);}
	.st37{opacity:0.749;clip-path:url(#SVGID_76_);}
	.st38{clip-path:url(#SVGID_78_);fill:#F5806D;}
	.st39{clip-path:url(#SVGID_80_);fill:#F5806D;}
	.st40{clip-path:url(#SVGID_82_);fill:#F5806D;}
	.st41{clip-path:url(#SVGID_84_);fill:#F5806D;}
	.st42{clip-path:url(#SVGID_86_);}
	.st43{clip-path:url(#SVGID_90_);fill:#602771;}
	.st44{clip-path:url(#SVGID_92_);fill:#6B2C7E;}
	.st45{clip-path:url(#SVGID_94_);fill:#F9CC6C;}
	.st46{clip-path:url(#SVGID_96_);fill:#F99A82;}
	.st47{clip-path:url(#SVGID_98_);fill:#FFFFFF;}
	.st48{clip-path:url(#SVGID_100_);fill:#F3CC6C;}
	.st49{clip-path:url(#SVGID_104_);fill:#F7FCFD;}
</style>
<g>
	<g>
		<defs>
			<rect id="SVGID_1_" x="0" y="0" width="3840" height="2160"/>
		</defs>
		<clipPath id="SVGID_2_">
			<use xlink:href="#SVGID_1_"  style="overflow:visible;"/>
		</clipPath>
		<g class="st0">
			<defs>
				<rect id="SVGID_3_" x="0" y="0" width="3840" height="2160"/>
			</defs>
			<clipPath id="SVGID_4_">
				<use xlink:href="#SVGID_3_"  style="overflow:visible;"/>
			</clipPath>
			<rect x="0" y="0" class="st1" width="3840" height="2160"/>
			<g class="st2">
				<defs>
					<rect id="SVGID_5_" x="0" y="0" width="3840" height="2160"/>
				</defs>
				<clipPath id="SVGID_6_">
					<use xlink:href="#SVGID_5_"  style="overflow:visible;"/>
				</clipPath>
				<rect x="0" y="0" class="st3" width="3840" height="2160"/>
			</g>
			<g class="st2">
				<defs>
					<rect id="SVGID_7_" x="0" y="0" width="3840" height="2160"/>
				</defs>
				<clipPath id="SVGID_8_">
					<use xlink:href="#SVGID_7_"  style="overflow:visible;"/>
				</clipPath>
				<path class="st4" d="M862.04,1802.35c-4.26-11.57-8.9-23.03-14.25-34.15c-1.97-4.08-4.1-8.09-6.37-12.02
					c2.66-2.7,4.4-6.46,4.48-11.07c0.08-2.73-0.78-5.18-1.89-7.58c-1.14-3.1-2.04-6.28-2.61-9.53c-0.02-0.18-0.04-0.36-0.06-0.55
					c-0.39-4.88-0.08-9.78,0.52-14.63c1.33-9.31,3.08-18.56,4.2-27.91c1.69-13.21,2.58-26.53,2.54-39.85
					c0.01-16.26-1.69-32.45-3.93-48.54c-2.24-18.06-6.33-35.95-13.61-52.68c-7.85-20.09-19.42-38.46-32.2-55.76
					c-9.66-12.95-20.05-25.39-28.73-39.05c-10.27-15.9-17.31-33.6-26.7-50c-16.6-27.73-34.83-54.61-54.65-80.13
					c-6.74-8.52-15.04-15.59-23.43-22.42c-9.48-7.59-19.3-14.9-30.22-20.3c-25.53-12.51-54.95-13.52-82.86-12.03
					c-13.36,0.64-26.94,1.4-39.52,6.35c-3.55,1.52-7.7,2.06-10.58,4.74c-13.94,10.41-2.79,32.5,13.95,27.99
					c19.33-7.04,17.8-5.9,36.15-7.09c13.74-0.79,27.57-0.98,41.24,0.81c0.39,0.04,0.77,0.1,1.15,0.14c0.87,0.13,1.74,0.25,2.61,0.39
					c6.84,1.19,13.61,2.98,20.07,5.56c8.4,3.94,16.19,9.08,23.59,14.65c7.5,6.04,15.02,12.18,21.43,19.37
					c8.46,9.5,19.43,25.95,32.24,44.65c8.92,13.45,17.97,26.88,25.42,41.22c7.77,14.64,14.28,29.99,23.5,43.82
					c10.05,15.55,22.28,29.52,32.89,44.66c10.43,13.87,24.19,40,25.01,43.96c8.4,19.2,12.03,45.22,12.83,53.68
					c2.75,21.84,3.05,43.96,0.91,65.87c-0.87,12.69-3.84,22.13-5.67,41.85c-0.59-0.53-1.16-1.08-1.76-1.6
					c-1.86-1.53-3.46-3.53-5.84-4.21c-11.85-5.36-22.29,10.32-13.11,19.45c20.19,17.76,27.6,28.12,39.82,53.13
					c4.78,10.55,3.7,8.1,8.58,20.57c1.84,5.84,4.55,12.83,11.68,13.19C857.01,1818.99,864.48,1810.19,862.04,1802.35"/>
				<path class="st4" d="M806.89,2073.91c-1.19-4.37-5.06-7.16-7.8-10.56c-3.55-3.9-7.06-7.84-10.8-11.55
					c-2.55-2.79-5.99-4.61-9.5-5.22c0.01-2.02,0.05-4.03,0.13-6.05c0.01-3.22,0.82-6.72-0.83-9.66
					c-4.69-12.03-23.02-8.24-22.96,4.62c-0.58,10.72-0.75,21.62,2.06,32.07c1.5,5.14,2.83,10.65,6.37,14.8
					c5.38,5.73,14.68,4.7,19.46-1.04c0.1,0.11,0.2,0.23,0.31,0.34c2.26,2.33,4.11,5.44,7.37,6.4
					C799.43,2092.43,809.7,2083.09,806.89,2073.91"/>
				<path class="st4" d="M1323.43,1731.87c-6.33-16-30.59-11.09-30.62,6.16c-4.7,34.87-6.25,70.04-9.13,105.08
					c-5.23,51.38-9.07,102.89-14.22,154.27c-2.15,18.85-4.85,37.63-6.78,56.51c-0.55,5.32-1.07,10.63-1.51,15.96
					c-0.22,2.62-0.41,5.24-0.59,7.86c-0.04,6.19,3.88,12.6,9.83,14.62c9.87,4.91,22.53-3.69,22.16-14.62
					c0.72-10.7,1.81-21.38,2.98-32.04c3.6-29.82,7.68-59.6,9.79-89.58c3.16-39.17,7.15-78.27,10.73-117.4
					c2.28-29.53,3.83-59.14,7.25-88.58C1323.57,1744.09,1326.37,1737.54,1323.43,1731.87"/>
			</g>
			<g class="st2">
				<defs>
					<rect id="SVGID_9_" x="0" y="0" width="3840" height="2160"/>
				</defs>
				<clipPath id="SVGID_10_">
					<use xlink:href="#SVGID_9_"  style="overflow:visible;"/>
				</clipPath>
				<path class="st5" d="M622.53,1621.32c-3.01-9.03-12.59-14.82-21.95-14.78c-5.74,0.27-11.19,2.32-16.82,3.45
					c-2.26,0.26-4.52,0.45-6.8,0.52c-22.41-0.58-11.68,0.34-32.48-4.89c-14.52-6.01-30.23-0.53-34.89,15.13
					c-2.86,10.49,2.06,21.9,11.21,27.2c-0.25,1.38-0.39,2.78-0.38,4.16c0.02,12.89,10.98,24.21,24,24
					c20.16-0.86,39.34-8.16,56.79-17.96c7.3-4.25,15.55-8.03,20.11-15.48c0.81-1.91,1.61-3.82,2.42-5.73
					C625.2,1631.83,624.83,1626.08,622.53,1621.32"/>
			</g>
			<g class="st2">
				<defs>
					<rect id="SVGID_11_" x="0" y="0" width="3840" height="2160"/>
				</defs>
				<clipPath id="SVGID_12_">
					<use xlink:href="#SVGID_11_"  style="overflow:visible;"/>
				</clipPath>
				<path class="st6" d="M864.57,1881.46c-1.93-20.38-7.13-40.29-12.42-60.01c-5.64-22-20.3-40.02-33.76-57.8
					c-16.42-21.56-33.88-42.49-54.92-59.71c-15.68-13.32-30.76-27.47-47.78-39.11c-13.53-9.25-28.19-16.67-43.21-23.19
					c-4.96-2.04-10.31-4.48-15.74-6.1c-1.09-1.96-2.42-3.78-3.99-5.33c-9.11-9.12-24.89-9.33-33.94,0
					c-3.3,4.05-6.7,8.04-10.78,11.33c-2.9,2.08-5.92,3.98-8.97,5.84c-3.04-1.21-6.34-1.89-9.81-1.87
					c-7.65,0.65-15.32-0.63-22.93-1.27c-9.37-1.32-5.51,0.12-24.97-4.18c-8.39-2.09-16.5-5.26-25.03-6.8
					c-19.44-3.46-39.33-3.75-58.83-0.57c-15.19,2.01-29.9,6.51-44.6,10.68c-15.11,4.51-30.17,9.33-44.64,15.65
					c-28.3,11.53-55.11,27.64-77.42,48.61c-16.38,10.85-30.29,24.95-41.59,41c-8.24,11.25-15.62,23.15-21.13,35.99
					c-5.62,13.1-10.87,26.43-14.63,40.2c-2.56,10.18-4.26,20.54-5.97,30.89c-7.1,19.94-13.46,40.14-18.99,60.59
					c-10.7,33.85-18.47,70.14-12.54,105.62c3.51,15.64,9.88,30.72,17.84,44.6c5.25,7.55,10.79,15.04,17.46,21.42
					c8.77,7.74,18.55,14.84,29.7,18.76c7.98,3.24,16.54,4.27,25.05,5.12c12.33,1.15,24.71,1.8,37.06,2.69
					c17.63,1.02,35.12,3.65,52.76,4.42c17.68,0.74,35.38-0.03,53.06,0.67c16.75,0.48,33.42,2.33,50.17,2.73
					c10.25,0.03,20.46-1.12,30.62-2.37c20.75-1.91,38.74-8.82,50.44-26.81c2.38,0.65,4.87,1.05,7.35,1.31
					c6.33,0.9,12.68,1.69,19.05,2.22c25.63,2.21,51.36,2.55,77.05,1.25c24.87-0.63,49.77-0.4,74.64,0.12
					c15.63,0.26,32.76,4.69,47-3.8c4.19-2.4,7.42-6.07,9.59-10.32c-1.5,0.14-3.02,0.17-4.55-0.09c-0.59-0.1-1.09-0.27-1.52-0.5
					c-1.24,0.2-2.55-0.23-3.62-1.07c-1.44-1.15-1.86-3.07-2.04-4.8c-0.18-1.74-0.32-3.48-0.51-5.22c-0.45-4.22-0.52-8.45-1.24-12.64
					c-0.37-2.1-0.86-4.21-1.12-6.33c-0.25-2.08,0.02-4.34-0.38-6.38c-0.37-1.84-1.12-3.7-1.6-5.52c-0.56-2.17-1.36-4.24-2.19-6.31
					c-0.81-2.02,0.89-4.4,2.79-4.92c0.07-0.02,0.14-0.02,0.22-0.04c1.73-1,4.05-0.87,5.25,1.4c4.66,8.84,10.27,17.24,17.55,24.14
					c3.29,3.12,6.85,6,10.6,8.53c1.8,1.21,3.22,2.72,4.89,4.08c0.97,0.78,1.8,1.63,2.41,2.65c2.91,0.5,6.02,0.77,8.57,0.67
					c7.26-0.56,14.29-2.61,20.64-6.17c9.71-6.28,15.05-16.89,18.22-27.71c4.81-18.53,6.18-37.7,8.4-56.65
					c2.71-18.68,6.31-37.25,7.89-56.08C864.57,1910.5,865.83,1895.94,864.57,1881.46"/>
			</g>
			<g class="st2">
				<defs>
					<rect id="SVGID_13_" x="0" y="0" width="3840" height="2160"/>
				</defs>
				<clipPath id="SVGID_14_">
					<use xlink:href="#SVGID_13_"  style="overflow:visible;"/>
				</clipPath>
			</g>
			<g class="st2">
				<defs>
					<rect id="SVGID_15_" x="0" y="0" width="3840" height="2160"/>
				</defs>
				<clipPath id="SVGID_16_">
					<use xlink:href="#SVGID_15_"  style="overflow:visible;"/>
				</clipPath>
				<g class="st7">
					<g>
						<defs>
							<rect id="SVGID_17_" x="552.77" y="1649.62" width="15" height="27.33"/>
						</defs>
						<clipPath id="SVGID_18_">
							<use xlink:href="#SVGID_17_"  style="overflow:visible;"/>
						</clipPath>
						<path class="st8" d="M558.46,1652.05c-2.34,5-4.32,10.23-5.16,15.71c-0.13,2.03-1.06,4.26-0.11,6.18
							c1.86,5.01,9.69,3.38,9.57-1.93c0.07-1.25,0.74-5.59,2.34-10.03c1.4-4.38,1.34-2.39,2.59-6.75
							C568.64,1649.97,561.04,1647.4,558.46,1652.05"/>
					</g>
				</g>
				<g class="st7">
					<g>
						<defs>
							<rect id="SVGID_19_" x="572.1" y="1650.88" width="11.98" height="30.57"/>
						</defs>
						<clipPath id="SVGID_20_">
							<use xlink:href="#SVGID_19_"  style="overflow:visible;"/>
						</clipPath>
						<path class="st9" d="M583.28,1671.81c-0.02-0.11-0.03-0.18-0.04-0.26c-0.47-3.73-0.79-7.47-1.03-11.22
							c-0.28-2.12,0.32-4.44-0.54-6.43c-1.86-5-9.69-3.38-9.57,1.93c0.01,5.12,0.49,10.23,1.07,15.31c0.55,2.76,0.34,6.02,2.02,8.38
							c1.9,2.86,6.63,2.46,8.24-0.51C584.82,1676.72,583.6,1674.21,583.28,1671.81"/>
					</g>
				</g>
				<g class="st7">
					<g>
						<defs>
							<rect id="SVGID_21_" x="590.91" y="1656.96" width="14.29" height="27.19"/>
						</defs>
						<clipPath id="SVGID_22_">
							<use xlink:href="#SVGID_21_"  style="overflow:visible;"/>
						</clipPath>
						<path class="st10" d="M604.62,1676.83c-0.91-2.35-1.41-4.84-1.98-7.29c-1.05-3.27-1-7.84-2.78-10.62
							c-3.1-4.38-10.27-0.76-8.75,4.36c0.9,4.6,1.88,9.2,3.04,13.74c0.74,2.06,1.14,4.66,3,6.02
							C601.2,1686.44,607.06,1681.33,604.62,1676.83"/>
					</g>
				</g>
				<g class="st7">
					<g>
						<defs>
							<rect id="SVGID_23_" x="510.84" y="1988.9" width="34.36" height="19.94"/>
						</defs>
						<clipPath id="SVGID_24_">
							<use xlink:href="#SVGID_23_"  style="overflow:visible;"/>
						</clipPath>
						<path class="st11" d="M544.53,2001.29c-1.62-2.47-4.82-3.21-7.35-4.42c-4.75-1.83-9.44-3.8-14.2-5.6
							c-2.6-0.71-5.13-2.66-7.88-2.34c-5.3,0.48-5.8,8.44-0.67,9.73c5.98,2.23,18.77,7.33,20.39,7.98c2.16,0.93,4.23,2.79,6.72,1.99
							C544.64,2007.86,546.16,2004.02,544.53,2001.29"/>
					</g>
				</g>
				<g class="st7">
					<g>
						<defs>
							<rect id="SVGID_25_" x="505.52" y="2012.52" width="32.82" height="18.05"/>
						</defs>
						<clipPath id="SVGID_26_">
							<use xlink:href="#SVGID_25_"  style="overflow:visible;"/>
						</clipPath>
						<path class="st12" d="M534.73,2020.78c-5.92-1.85-11.75-3.96-17.58-6.07c-2.43-0.66-4.79-2.49-7.37-2.14
							c-5.3,0.47-5.8,8.44-0.67,9.73c6.03,2.34,12.12,4.51,18.23,6.6c2.77,0.71,5.81,2.69,8.58,1.02
							C539.69,2027.88,538.89,2021.78,534.73,2020.78"/>
					</g>
				</g>
				<g class="st7">
					<g>
						<defs>
							<rect id="SVGID_27_" x="507.23" y="2039.67" width="23.69" height="12.14"/>
						</defs>
						<clipPath id="SVGID_28_">
							<use xlink:href="#SVGID_27_"  style="overflow:visible;"/>
						</clipPath>
						<path class="st13" d="M530.73,2045.46c-1.91-4.85-5.76-3.37-7.39-4.04c-3.96-0.37-7.91-1.73-11.85-1.76
							c-5.3,0.47-5.79,8.44-0.66,9.73c4.49,0.87,9.02,1.58,13.56,2.19C528.08,2052.72,531.81,2049.23,530.73,2045.46"/>
					</g>
				</g>
				<g class="st7">
					<g>
						<defs>
							<rect id="SVGID_29_" x="498.36" y="2066.67" width="29.44" height="11.2"/>
						</defs>
						<clipPath id="SVGID_30_">
							<use xlink:href="#SVGID_29_"  style="overflow:visible;"/>
						</clipPath>
						<path class="st14" d="M525.38,2067.38c-3.01-1.43-6.59-0.24-9.81-0.34c-4.69,0.51-9.64,0.17-14.2,1.26
							c-5,1.86-3.38,9.69,1.93,9.57c5.18-0.35,10.37-0.75,15.55-1.01c1.95-0.23,4.1,0.21,5.92-0.6
							C528.56,2074.95,528.83,2069.26,525.38,2067.38"/>
					</g>
				</g>
				<g class="st7">
					<g>
						<defs>
							<rect id="SVGID_31_" x="500.21" y="2088.24" width="27.88" height="14.76"/>
						</defs>
						<clipPath id="SVGID_32_">
							<use xlink:href="#SVGID_31_"  style="overflow:visible;"/>
						</clipPath>
						<path class="st15" d="M521.82,2088.42c-4.45,1.41-9.01,2.45-13.53,3.6c-2.57,0.82-5.91,0.79-7.38,3.42
							c-2.31,3.67,1.5,8.63,5.65,7.35c5.97-1.59,12.02-2.89,17.92-4.73C530.77,2096.21,528.17,2086.81,521.82,2088.42"/>
					</g>
				</g>
				<g class="st7">
					<g>
						<defs>
							<rect id="SVGID_33_" x="328.25" y="1856.75" width="23.79" height="19.25"/>
						</defs>
						<clipPath id="SVGID_34_">
							<use xlink:href="#SVGID_33_"  style="overflow:visible;"/>
						</clipPath>
						<path class="st16" d="M344.53,1857.46c-2.13,0.96-4.2,2.05-6.19,3.27c-0.04-0.1-0.06-0.19-0.11-0.29
							c-2.99-6.77-12.57-2.65-9.3,4.01c0.45,1.01,1.05,1.75,1.72,2.3c-0.97,1.03-1.78,2.19-1.92,3.59
							c-0.81,3.98,4.06,7.09,7.43,4.98c3.45-3.19,5.17-5.51,13.41-9.23C355.18,1862.69,350.25,1854.27,344.53,1857.46"/>
					</g>
				</g>
				<g class="st7">
					<g>
						<defs>
							<rect id="SVGID_35_" x="253.34" y="1913.19" width="22.43" height="20.97"/>
						</defs>
						<clipPath id="SVGID_36_">
							<use xlink:href="#SVGID_35_"  style="overflow:visible;"/>
						</clipPath>
						<path class="st17" d="M275.09,1924.43c-1.88-3.02-4.66-2.76-7.27-1.59c-1.98-2.98-4-5.97-6.41-8.53
							c-4.11-3.47-10.14,1.89-7.35,6.45c2.16,2.89,4.31,5.79,6.28,8.81c1.31,2.18,3,4.73,5.87,4.6c2.63-0.02,4.8-1.79,7.09-2.89
							C275.64,1929.96,276.49,1926.72,275.09,1924.43"/>
					</g>
				</g>
				<g class="st7">
					<g>
						<defs>
							<rect id="SVGID_37_" x="258.64" y="2035.62" width="19.94" height="16.05"/>
						</defs>
						<clipPath id="SVGID_38_">
							<use xlink:href="#SVGID_37_"  style="overflow:visible;"/>
						</clipPath>
						<path class="st18" d="M271.02,2038.04c-0.83,0.45-1.64,0.93-2.45,1.41c-0.03-0.07-0.04-0.13-0.08-0.2
							c-2.42-7.08-12.57-2.75-9.16,3.86c0.46,1.35,1.21,2.28,2.08,2.87c-0.62,3.87,4.01,7.18,7.49,5c2.03-1.3,4.07-2.58,6.18-3.75
							c1.51-0.71,2.87-1.87,3.28-3.54C279.66,2039.55,274.7,2035.73,271.02,2038.04"/>
					</g>
				</g>
				<g class="st7">
					<g>
						<defs>
							<rect id="SVGID_39_" x="763.08" y="1771.94" width="29.94" height="14.87"/>
						</defs>
						<clipPath id="SVGID_40_">
							<use xlink:href="#SVGID_39_"  style="overflow:visible;"/>
						</clipPath>
						<path class="st19" d="M792.85,1779.29c-1.29-4.29-5.48-3.88-9.01-3.02c-1.12,0.22-4.43,0.72-1.71,0.33
							c-0.75,0.24-3.2,0.17-4.25,0.15c-5.04-1.22-2.43-1.11-7.88-4.34c-4.86-2.3-9.32,4.41-5.46,8.1c3.93,3.38,8.53,6.25,13.88,6.28
							c2.54,0.09,5.06-0.36,7.55-0.8c1.7-0.42,3.73-0.21,5.09-1.46C792.72,1783.45,793.37,1781.16,792.85,1779.29"/>
					</g>
				</g>
				<g class="st7">
					<g>
						<defs>
							<rect id="SVGID_41_" x="774.69" y="1933.44" width="25.37" height="14.86"/>
						</defs>
						<clipPath id="SVGID_42_">
							<use xlink:href="#SVGID_41_"  style="overflow:visible;"/>
						</clipPath>
						<path class="st20" d="M799.36,1935.85c-1.86-3.44-7.12-3.06-8.77,0.22c-0.08,0.08-0.13,0.13-0.23,0.23
							c-0.37,0.35-0.77,0.66-1.16,0.98c-0.34,0.25-0.78,0.5-1.13,0.68c-0.36,0.12-0.73,0.22-1.1,0.29
							c-0.52,0.03-1.42,0.08-1.97,0.02c-0.07-0.01-0.12-0.01-0.18-0.02c-0.32-0.07-0.59-0.14-0.77-0.2
							c-1.22-0.64-2.34-1.6-3.75-1.67c-5.27-0.96-7.83,6.65-3.19,9.23c5.7,3.88,13.86,3.58,19-1.12
							C798.81,1942.59,801.32,1939.2,799.36,1935.85"/>
					</g>
				</g>
				<g class="st7">
					<g>
						<defs>
							<rect id="SVGID_43_" x="221.56" y="1813.4" width="22.19" height="27.96"/>
						</defs>
						<clipPath id="SVGID_44_">
							<use xlink:href="#SVGID_43_"  style="overflow:visible;"/>
						</clipPath>
						<path class="st21" d="M243.69,1819.88c-0.47-5.31-8.44-5.79-9.73-0.66c0,0.01-0.01,0.03-0.01,0.04
							c-0.68-0.72-1.34-1.44-1.93-2.21c-1.47-1.68-3-3.75-5.48-3.64c-4.3-0.15-6.68,5.59-3.54,8.53c2.59,2.49,4.8,5.88,7.51,8.33
							c-0.17,0.52-0.32,1.05-0.49,1.58c-0.41,1.7-1.49,3.4-1.11,5.18c0.15,2.48,2.52,4.31,4.91,4.34c2.19,0.03,4.26-1.56,4.82-3.67
							c1.26-3.94,2.52-7.88,3.74-11.84C242.82,1823.89,244.05,1821.92,243.69,1819.88"/>
					</g>
				</g>
				<g class="st7">
					<g>
						<defs>
							<rect id="SVGID_45_" x="435.8" y="2068.44" width="20.5" height="25.66"/>
						</defs>
						<clipPath id="SVGID_46_">
							<use xlink:href="#SVGID_45_"  style="overflow:visible;"/>
						</clipPath>
						<path class="st22" d="M447.76,2075.05c-0.45,0.46-0.9,0.93-1.36,1.4c-0.04-0.25-0.08-0.51-0.11-0.76
							c-0.46-2.38-0.53-5.26-2.95-6.54c-3.67-2.31-8.63,1.5-7.34,5.65c0.62,3.36,1.24,6.73,1.75,10.11c0.02,0.07,0.05,0.13,0.07,0.2
							c-1.11,1.09-2,2.41-1.94,4.03c-0.15,4.3,5.59,6.68,8.54,3.54c3.55-3.44,6.97-7,10.41-10.55c0.93-0.92,1.47-2.22,1.46-3.53
							C456.45,2074.28,450.71,2071.91,447.76,2075.05"/>
					</g>
				</g>
				<g class="st7">
					<g>
						<defs>
							<rect id="SVGID_47_" x="419.17" y="1997.77" width="21.14" height="19.27"/>
						</defs>
						<clipPath id="SVGID_48_">
							<use xlink:href="#SVGID_47_"  style="overflow:visible;"/>
						</clipPath>
						<path class="st23" d="M435.39,1997.77c-4.59,0.07-5.95,4.87-4.12,7.79c-2.1-0.13-4.53,0.65-6.6,1.19
							c-1.21,0.33-2.6,0.42-3.54,1.34c-4.39,3.1-0.75,10.27,4.36,8.75c4.33-1.19,11.55-1.36,10.14-7.75
							c-0.17-0.53-0.38-0.96-0.61-1.35c0.13,0.01,0.24,0.04,0.37,0.04C441.96,2007.67,441.94,1997.9,435.39,1997.77"/>
					</g>
				</g>
				<g class="st7">
					<g>
						<defs>
							<rect id="SVGID_49_" x="761.37" y="1862.69" width="20.35" height="17.43"/>
						</defs>
						<clipPath id="SVGID_50_">
							<use xlink:href="#SVGID_49_"  style="overflow:visible;"/>
						</clipPath>
						<path class="st24" d="M773.15,1864.15c-0.71,0.76-1.64,1.63-2.63,2.58c-0.77-1.35-2.18-2.34-4.24-2.38
							c-6.07,0.1-6.5,8.45-1.35,9.8c-0.49,1.84-0.01,3.66,2.29,5.29c1.89,1.14,4.52,0.8,6.06-0.78c0.77-0.99,1.57-1.96,2.41-2.9
							c1.67-2.2,4.38-3.67,5.57-6.16C783.56,1864.75,776.85,1860.3,773.15,1864.15"/>
					</g>
				</g>
				<g class="st7">
					<g>
						<defs>
							<rect id="SVGID_51_" x="795.3" y="2020.64" width="19.17" height="22.68"/>
						</defs>
						<clipPath id="SVGID_52_">
							<use xlink:href="#SVGID_51_"  style="overflow:visible;"/>
						</clipPath>
						<path class="st25" d="M807,2024.18c-0.3,0.2-0.99,0.57-1.73,0.97c-0.05-0.51-0.15-1.01-0.39-1.48
							c-1.86-5.01-9.69-3.38-9.57,1.93c-0.04,3.78,0.35,7.54,0.9,11.27c0.26,2.17,0.68,4.63,2.79,5.77c3.67,2.31,8.63-1.5,7.34-5.65
							c-0.08-0.45-0.15-0.83-0.22-1.18c1.61-0.5,3.23-1.41,4.57-2.24C817.82,2030.87,813.84,2020.85,807,2024.18"/>
					</g>
				</g>
				<g class="st7">
					<g>
						<defs>
							<rect id="SVGID_53_" x="552.56" y="1686.42" width="48.19" height="14.02"/>
						</defs>
						<clipPath id="SVGID_54_">
							<use xlink:href="#SVGID_53_"  style="overflow:visible;"/>
						</clipPath>
						<path class="st26" d="M597.09,1689.58c-4.86-0.3-4.22,0.76-7.27,0.61c-12.46,0.9-18.4-0.83-30.99-3.57
							c-6.35-1.64-8.95,7.77-2.66,9.64c10.99,2.5,22.14,4.98,33.48,3.94c3.5-0.49,8.29,0.11,10.43-3.28
							C601.75,1694.2,600.16,1690.39,597.09,1689.58"/>
					</g>
				</g>
			</g>
			<g class="st2">
				<defs>
					<rect id="SVGID_55_" x="0" y="0" width="3840" height="2160"/>
				</defs>
				<clipPath id="SVGID_56_">
					<use xlink:href="#SVGID_55_"  style="overflow:visible;"/>
				</clipPath>
				<path class="st27" d="M674.49,1788.56c-2.48-4.6-8.72-4.62-13.11-3.14c-3.75,1.37-6.7,4.21-9.52,6.94
					c-1.03,1.06-2.02,2.16-2.96,3.31c-0.86,0.87-1.76,1.84-2.65,2.9c-2.98-3.82-6.31-7.33-10.86-9.19
					c-4.65-1.71-11.1,0.15-12.33,5.41c-1.23,6.12,3.23,11.83,7.84,15.35c5.74,4.18,6.03,4.82,11.96,8.8c2.51,1.48,4.93,4.1,8.1,3.19
					c2.59-0.85,4.15-3.24,5.96-5.12c2.33-2.57,4.76-5.05,7.25-7.46C668.94,1803.9,677.87,1796.75,674.49,1788.56"/>
				<path class="st27" d="M450.89,1930.62c-4.56-1.8-9.09,1.44-12.57,4.11c-0.03,0.03-0.07,0.06-0.1,0.09
					c-0.84-0.84-1.98-1.4-3.41-1.36c-3.27-0.21-6.77-0.77-9.88,0.53c-4.02,1.46-5.27,6.58-2.88,9.98c1.97,3.16,5.45,4.73,8.62,6.41
					c1.65,0.84,3.25,2.08,5,2.63c5.31,0.89,9.37-4.01,13.1-7.06c2.24-2.19,4.52-4.57,5.62-7.56
					C455.45,1935.38,453.96,1931.71,450.89,1930.62"/>
				<path class="st27" d="M501.39,1757.57c-3.3-4.26-8.41-0.87-11.57,1.79c-1.41,0.76-2.18,2.08-2.37,3.49
					c-0.55-0.52-1.23-0.93-2.08-1.14c-4.33-1.09-9.21-2.04-13.41-0.02c-3.11,1.76-4.31,5.87-2.57,9.01
					c2.56,4.01,7.16,6.26,11.43,8.04c8.79,3.21,10.4,1.66,15.22-5.82c1.66-2.58,3.24-5.21,4.82-7.85
					C502.4,1762.94,503.26,1759.76,501.39,1757.57"/>
				<path class="st27" d="M241.76,1971.06c-5.3-2.81-8.96,3.18-11.55,6.91c-0.59,0.81-1.3,1.7-1.92,2.64
					c-3.12-0.51-6.31-1.56-9.43-0.92c-3.46,0.83-5.14,4.93-3.12,7.9c2.91,3.9,8.86,4.21,13.32,5.08c8.04,1.73,10.03-0.27,12.81-7.69
					C243.12,1980.68,246.57,1974.23,241.76,1971.06"/>
				<path class="st27" d="M736.28,2045.18c-2.49,2.07-5.42,4.16-6.97,7.04c-0.31,0.61-0.44,1.24-0.45,1.85
					c-5.91,2.94-5.41,10.47,0.17,14.43c5.63,4.86,9.59-1.85,12.05-6.38c2.14-4.32,4.79-8.74,5.51-13.54
					C746.36,2043.14,739.93,2041.88,736.28,2045.18"/>
			</g>
			<g class="st2">
				<defs>
					<rect id="SVGID_57_" x="0" y="0" width="3840" height="2160"/>
				</defs>
				<clipPath id="SVGID_58_">
					<use xlink:href="#SVGID_57_"  style="overflow:visible;"/>
				</clipPath>
				<path class="st28" d="M533.7,1992.22c-1.93-1.89-4.78-2.28-7.2-3.29c-7.18-2.54-14.34-5.14-21.74-6.99
					c-22.22-5.53-44.8-9.45-67.31-13.57c-22.72-4.19-45.45-8.85-68.42-11.45c7.16-14.45,13.13-29.54,18.15-44.85
					c4.5-14.54,7.52-29.47,11.07-44.26c1.91-8.36,3.78-16.73,5.57-25.12c0.57-3.24,2.17-6.77,0.25-9.84
					c-2.85-5.24-11.38-4.16-12.79,1.67c-5.45,24.55-10.46,49.26-17.47,73.42c-6.22,18.8-10.63,29.46-18.61,45.46
					c-0.39,0.81-0.87,1.62-1.34,2.44c-6.81-0.25-13.62-0.19-20.37,0.82c-3.81,0.81-8.32,0.51-11.57,2.79
					c-6.1,4.42-1.15,14.31,6.1,12.25c21.94-4.65,46.7-0.49,72.77,4.12c26.92,4.89,53.9,9.56,80.68,15.22
					c10.26,2.03,20.5,4.34,30.45,7.58c3.97,1.37,7.92,2.8,11.9,4.18c3.4,1.66,8.07,2.22,10.44-1.38
					C536.5,1998.81,536.08,1994.61,533.7,1992.22"/>
				<path class="st28" d="M767.73,2019c-3.83-8.11-5.64-11.14-6.17-13.01c-5.4-12.78-9.02-26.2-10.83-39.96
					c-0.96-7.73-4.21-36.66-5.38-51.56c-1.65-15.81-2.53-31.8-6.67-47.22c-3.58-15.92-17.01-32.24-23.11-40.53
					c-2.03-3-4.14-5.95-6.33-8.84c-0.91-1.57-2.44-2.74-4.18-3.22c-5.79-1.78-11.14,5.12-7.91,10.28
					c10.02,14.62,16.77,20.88,24.98,37.04c8.94,21.73,8.59,57.16,12.84,88.67c1.92,19.47,4.58,39.08,12.36,57.2
					c2.79,7.07,3.11,7.89,7.32,15.95c0.07,0.14,0.14,0.28,0.22,0.42l0.01,0.01c0,0,0-0.01,0-0.01c0.61,1.1,1.49,2.04,2.58,2.68
					C762.57,2030.11,769.53,2024.83,767.73,2019"/>
			</g>
			<g class="st2">
				<defs>
					<rect id="SVGID_59_" x="0" y="0" width="3840" height="2160"/>
				</defs>
				<clipPath id="SVGID_60_">
					<use xlink:href="#SVGID_59_"  style="overflow:visible;"/>
				</clipPath>
				<path class="st29" d="M1299.27,1723.41c-4.22-0.73-9.1-0.41-13.08-0.62c-11.53-0.21-23.07-0.08-34.6,0.07
					c-88.11,1.62-176.23,2.91-264.36,2.52c-38.49-0.07-76.97-1-115.43-2.17c-5.04-0.55-11.11,0.06-13.46,5.05
					c-2.35,1.69-4.01,4.37-4,7.92c-6.63,107.27-24.07,200.99-37.77,308.81c-1.79,13.54-3.44,27.1-5.24,40.64
					c0.13,2.01-0.99,5-1.26,8.19c-2.58,6.1,1.8,14.14,9.18,13.98c70.97-2.56,141.99-3.1,213-3.08c57.03-0.08,114.05-1.06,171.08-1.4
					c13.45-0.06,26.91-0.1,40.36-0.03c3.5-0.27,7.25,0.52,10.7-0.13c4.61,0.29,9.18-2.68,10.38-7.3c0.76-2.96,1.51-5.93,2.29-8.88
					c2.06-7.77,4.07-15.56,5.15-23.54c6.64-42.54,11.99-82.29,16.82-118.61c6.52-48.55,12.61-97.17,16.28-146.03
					c1.47-21.72,4.15-54.14,4.56-66.86C1309.25,1726.03,1304.15,1723.08,1299.27,1723.41 M1204.53,2013.51
					c0.8-0.67,1.6-1.35,2.38-2.04c-0.13,0.64-0.25,1.27-0.38,1.9C1205.87,2013.43,1205.2,2013.46,1204.53,2013.51"/>
			</g>
			<g class="st2">
				<defs>
					<rect id="SVGID_61_" x="0" y="0" width="3840" height="2160"/>
				</defs>
				<clipPath id="SVGID_62_">
					<use xlink:href="#SVGID_61_"  style="overflow:visible;"/>
				</clipPath>
				<path class="st30" d="M843.55,1736.38c-11.03,86.57-28.27,217.47-40.35,319.18c-0.98,7.5-2,14.99-3.19,22.46
					c-0.22,1.21-0.45,2.49-0.66,3.8c-7.81,0.06-15.63,0.14-23.44,0.32c-29.28,0.85-58.57-0.02-87.85,0.01
					c-37.76-0.08-75.51,0.48-113.27,0.71c-10.09,0.13-20.19,0.26-30.28,0.4c-0.82,4.13-2.93,8.25-6.71,12.04
					c-0.02,0.02-0.19,0.2-0.46,0.46c-0.17,0.24-0.34,0.48-0.51,0.72c-0.42,0.62-0.86,1.24-1.31,1.85c-0.12,0.16-0.24,0.33-0.37,0.49
					c-1.04,1.39-2.12,2.76-3.25,4.13c-0.14,0.17-0.3,0.31-0.44,0.47c71.12-0.81,142.23-1.74,213.35-0.9
					c15.51,0.01,31.01-0.42,46.52-0.63c3.68-0.04,7.36-0.06,11.04-0.09c0.5,0.57,1.05,1.12,1.68,1.62c2.7,0.87,4.62,0.04,6.01-1.67
					c2.94-0.29,5.03-1.54,5.71-6.18c0.69-2.87,0.68-7.91-1.08-11.08c1.56-10,2.85-20.04,4.12-30.07
					c9.18-78.55,19.51-156.95,29.66-235.38c2.9-27.6,7.84-55,10.05-82.66C858.39,1716.98,843.93,1716.27,843.55,1736.38"/>
			</g>
			<g class="st2">
				<defs>
					<rect id="SVGID_63_" x="0" y="0" width="3840" height="2160"/>
				</defs>
				<clipPath id="SVGID_64_">
					<use xlink:href="#SVGID_63_"  style="overflow:visible;"/>
				</clipPath>
				<path class="st31" d="M728.81,1988.13c-3.23-3.15-7.7-4.42-12.14-4.24c-4.39-0.15-8.78-0.34-13.17-0.06
					c-4.77,0.22-19.43-0.1-19.18-0.1c-0.66-0.11-1.3-0.29-1.93-0.51c-0.08-0.05-0.17-0.1-0.23-0.14c-0.1-0.09-0.21-0.18-0.3-0.27
					c0.03-0.05,0.06-0.11,0.09-0.17c0.05-0.05,0.12-0.12,0.21-0.21c3.83-2.01,3.08-1.07,8.2-1.94c4.36-0.52,8.73-0.93,13.12-0.95
					c5.25,0.1,11.05-0.74,14.68-4.91c4.13-4.55,2.58-12.35-2.98-15.01c-3.25-1.65-6.87-2.05-10.46-2.2
					c-6.08-0.65-12.2-0.53-18.31-0.45c-12.3-0.06-24.73,0.29-36.82,2.71c-15.09,3.22-29.18,9.85-42.89,16.74
					c-6.87,3.82-14.2,6.77-20.89,10.91c-7.17,4.27-13.78,9.5-21.5,12.79c-2.46,1.01-4.71,2.45-7.12,3.57
					c-2.77,1.31-6.07,1.58-8.63,3.23c-0.72,0.51-1.21,1.15-1.52,1.83c-0.37,0.33-0.72,0.7-0.97,1.16c-0.09,0.15-0.13,0.3-0.2,0.45
					c-2.62,4.22-1.54,10.16-0.98,14.87c0.54,1.37-0.27,15.68-0.09,21.91c-0.59,8.4-0.47,6.61-2.88,16.88
					c-0.37,1.34-0.74,2.67-1.11,4.01c-0.37,1.1-0.74,2.19-1.12,3.28c-1.81,5.58-6.48,13.88,2.13,15.94
					c0.41,0.06,0.82,0.08,1.22,0.13c0.81-0.47,1.72-0.86,2.77-1.12c11.17-2.79,23.82-1.15,35.21-1.61c5.04-0.21,9.93-0.52,14.8-0.7
					c1.8-1.3,4.04-2.04,6.16-2.06c0.73,0,1.42,0.05,2.15-0.04l-0.38,0.05c0.8-0.03,1.58-0.01,2.41,0.01
					c0.43-0.06,0.87-0.12,1.31-0.16c0.71-0.1,1.42-0.19,2.14-0.24c1.21-0.08,2.35,0.11,3.4,0.5c2.41-1.38,4.31-2.92,5.11-3.59
					c6.25-4.42,12.61-8.68,18.91-13.03c4.06-3.18,14.23-8.83,14.82-8.81c7.55-3.36,19.58-5.93,23.53-6.33
					c7.31-0.64,14.68,0.35,21.94-1.09c5.08-0.96,10.72-2.59,13.9-6.95c2.89-4.13,2.75-8.45,0.49-11.74
					c1.04-0.05,2.08-0.16,3.12-0.36c2.8-0.89,5.55-2.1,8-3.72c5.12-3.45,7.25-12.08,2.8-16.85c-1.58-1.78-3.57-2.99-5.74-3.89
					c0.1-0.02,0.21-0.02,0.31-0.04C729.39,2004.35,736.42,1996.18,728.81,1988.13"/>
			</g>
			<g class="st2">
				<defs>
					<rect id="SVGID_65_" x="0" y="0" width="3840" height="2160"/>
				</defs>
				<clipPath id="SVGID_66_">
					<use xlink:href="#SVGID_65_"  style="overflow:visible;"/>
				</clipPath>
				<path class="st32" d="M1307.8,1916.53c2.08-3.54,1.67-8.63-2.67-11.1c-9.89-6.14-21.95-10.69-33.68-8.18
					c-12.05,3.21-18.63,15.59-8.55,25.14c1.43,1.29,2.99,2.39,4.64,3.34c-1.58,0.85-3.04,1.88-4.31,3.19
					c-5.78,6.91-4.82,13.51-0.75,18.79c-7.21,2.68-12.22,7.96-10.33,18.15c0.84,3.19,2.53,5.85,4.71,8.1
					c-0.69,0.47-1.35,0.98-1.99,1.54c-3.92,3.73-6,9.61-5.01,14.96c1.78,9.29,10.55,15.27,18.91,18.35
					c21.96,7.23,28.96-31.56,32.3-46.52c1.94-9.85,4.17-19.63,6.09-29.47c0.68-5.23,2.52-10.94,0.71-16.07
					C1307.86,1916.66,1307.82,1916.6,1307.8,1916.53"/>
			</g>
			<g class="st2">
				<defs>
					<rect id="SVGID_67_" x="0" y="0" width="3840" height="2160"/>
				</defs>
				<clipPath id="SVGID_68_">
					<use xlink:href="#SVGID_67_"  style="overflow:visible;"/>
				</clipPath>
				<path class="st33" d="M665.93,1461.41c-0.99-5.79-2.55-11.46-4.95-16.88c-1.28-2.44-2.77-4.71-4.42-6.84
					c-0.57-1.25-1.16-2.49-1.81-3.7c-5.39-9.58-12.09-18.7-20.69-25.64c-1.96-1.6-3.98-3.11-6.04-4.57
					c-1.11-2.96-3.52-5.43-7.67-6.72c-1.18-0.2-2.35-0.26-3.53-0.25c-3.1-1.71-6.24-3.35-9.47-4.81
					c-5.93-2.47-11.56-6.31-17.87-7.66c-4.19-3.59-10.2-5.58-14.86-1.72c-3.48,2.32-3.99,6.63-4.76,10.41
					c-0.52,2.15-1,4.09-1.46,5.88c-1.46,1.77-2.92,3.54-4.41,5.29c-12.77,15.19-26.13,29.87-39.72,44.34c-3,3.23-6.08,6.4-9.14,9.59
					c-6.49,3.46-13.05,6.82-18.67,11.59c-12.67,10.97-20.01,27.41-20.29,44.12c0.22,6.95,1.7,13.63,4.01,20.05
					c-0.11,0.57-0.2,1.15-0.22,1.75c0.14,3.71,2.07,7.58,5.23,9.5c0.53,1.01,1.07,2.01,1.64,3c-0.21,0.29-0.43,0.57-0.63,0.86
					c-5.81,8.97,1.23,20.31,11.98,17.66c0.3-0.1,0.58-0.24,0.87-0.35c0.41,0.53,0.82,1.06,1.23,1.59c2.29,3.09,4.52,6.24,6.76,9.38
					c-0.22,1.33-0.17,2.71,0.25,4.05c1.83,8.55,9.09,13.11,16.78,16.5c2.45,2.4,5.24,3.33,7.87,3.2c0.68,0.27,1.34,0.53,1.99,0.8
					c12.23,5.24,25.2,8.14,38.5,8.64c12.61,0.7,25.88,0.93,37.83-3.68c4.07-1.51,8.55-3.54,9.62-8.19c0.77-2.58,0.3-5.34-1.01-7.62
					c6.12-5.48,12-11.25,16.82-17.93c2.35-3.33,4.44-6.81,6.4-10.36c0.71-0.91,1.43-1.8,2.12-2.72
					c10.15-14.64,19.23-30.3,25.08-47.18c2.22-7.43,5.1-14.96,5.06-22.8C673.39,1480.04,669.7,1470.67,665.93,1461.41"/>
			</g>
			<g class="st2">
				<defs>
					<rect id="SVGID_69_" x="0" y="0" width="3840" height="2160"/>
				</defs>
				<clipPath id="SVGID_70_">
					<use xlink:href="#SVGID_69_"  style="overflow:visible;"/>
				</clipPath>
				<g class="st34">
					<g>
						<defs>
							<rect id="SVGID_71_" x="602.69" y="1462.35" width="45.67" height="13.56"/>
						</defs>
						<clipPath id="SVGID_72_">
							<use xlink:href="#SVGID_71_"  style="overflow:visible;"/>
						</clipPath>
						<path class="st35" d="M646.89,1462.36c-2.22-0.2-3.92,2.05-5.89,2.87c-7.06,3.99-12.77,6.42-19.95,6.68
							c-5.22,0.17-10.42-0.48-15.63-0.72c-0.76-0.1-1.59-0.06-2.15,0.54c-1.25,1.17-0.31,3.47,1.42,3.41
							c8.45,0.45,17.09,1.77,25.37-0.62c4.7-1.45,9.16-3.68,13.42-6.11c1.55-1.19,3.96-1.76,4.81-3.59
							C648.59,1463.8,647.92,1462.63,646.89,1462.36"/>
					</g>
				</g>
				<g class="st34">
					<g>
						<defs>
							<rect id="SVGID_73_" x="513.78" y="1477.63" width="52.18" height="12.4"/>
						</defs>
						<clipPath id="SVGID_74_">
							<use xlink:href="#SVGID_73_"  style="overflow:visible;"/>
						</clipPath>
						<path class="st36" d="M563.42,1477.71c-1.98,1.07-1.42,1.24-3.26,2.3c-7.13,4.48-17.25,6.55-23.91,5.84
							c-6.9-1.17-13.37-3.79-19.96-6.02c-2.5-0.68-3.59,3.14-1.06,3.86c8.09,2.58,16.17,6.46,24.82,6.33
							c8.92-0.89,19.36-2.9,25.74-9.61C566.5,1478.95,564.95,1477.24,563.42,1477.71"/>
					</g>
				</g>
			</g>
			<g class="st2">
				<defs>
					<rect id="SVGID_75_" x="0" y="0" width="3840" height="2160"/>
				</defs>
				<clipPath id="SVGID_76_">
					<use xlink:href="#SVGID_75_"  style="overflow:visible;"/>
				</clipPath>
				<g class="st37">
					<g>
						<defs>
							<rect id="SVGID_77_" x="628.37" y="1476.49" width="51.16" height="56"/>
						</defs>
						<clipPath id="SVGID_78_">
							<use xlink:href="#SVGID_77_"  style="overflow:visible;"/>
						</clipPath>
						<path class="st38" d="M677.6,1489.44c-2.53-9.56-10.25-14.4-18.22-12.57c-7.91-0.68-16.15,2.1-22.12,7.31
							c-7.89,7.62-10.79,19.98-7.66,30.42c7.41,19.98,34.26,25.24,45.29,5.36C679.93,1510.67,680.91,1499.47,677.6,1489.44"/>
					</g>
				</g>
				<g class="st37">
					<g>
						<defs>
							<rect id="SVGID_79_" x="493.45" y="1494.31" width="46.27" height="49.14"/>
						</defs>
						<clipPath id="SVGID_80_">
							<use xlink:href="#SVGID_79_"  style="overflow:visible;"/>
						</clipPath>
						<path class="st39" d="M538.81,1512.04c-0.08-0.31-0.14-0.63-0.23-0.94c-0.57-1.78-1.38-3.5-2.36-5.12
							c0.05-4.32-2.5-8.69-7.24-9.89c-9.98-3.87-19.92-1.15-26.74,5.1c-5.02,4.25-8.39,10.36-8.6,16.69
							c-0.34,2.93-0.21,5.98,0.5,9.09c3.84,16.14,24.44,21.64,36.57,10.94c3.25-3.08,5.73-6.97,7.22-11.19
							C539.93,1522.11,540.31,1516.82,538.81,1512.04"/>
					</g>
				</g>
				<g class="st37">
					<g>
						<defs>
							<rect id="SVGID_81_" x="562.54" y="1532.57" width="54.46" height="19.89"/>
						</defs>
						<clipPath id="SVGID_82_">
							<use xlink:href="#SVGID_81_"  style="overflow:visible;"/>
						</clipPath>
						<path class="st40" d="M610.64,1532.76c-1.28,0.31-2.19,1.23-3.04,2.17c-3.05,2.81-2.2,2.16-6.61,4.89
							c-6.11,3.51-19.49,3.96-26.38-0.99c-0.85-0.69-1.59-1.5-2.3-2.33c-0.11-0.15-0.26-0.36-0.44-0.63
							c-0.65-1.11-1.74-1.96-2.99-2.3c-4.13-1.29-7.96,3.67-5.65,7.35c6.9,10.97,21.48,12.75,33.3,10.91
							c5.11-0.96,9.98-3.22,14.09-6.39c2.11-1.75,4.72-3.38,5.91-5.92C618.36,1535.87,614.47,1531.59,610.64,1532.76"/>
					</g>
				</g>
				<g class="st37">
					<g>
						<defs>
							<rect id="SVGID_83_" x="578.16" y="1475.92" width="24.11" height="47.27"/>
						</defs>
						<clipPath id="SVGID_84_">
							<use xlink:href="#SVGID_83_"  style="overflow:visible;"/>
						</clipPath>
						<path class="st41" d="M602.15,1503.29c-0.75-9.57-5.02-18.82-10.83-26.27c-4.12-3.46-10.14,1.89-7.35,6.45
							c1.78,3.52,4.21,6.7,5.79,10.34c0.38,1.2,1.95,5.92,2.03,7.1c0.31,2,0.62,2.54,0.29,6.55c-0.09,0.48-0.23,0.94-0.38,1.4
							c-0.15,0.27-0.3,0.52-0.43,0.71c-0.26,0.31-0.51,0.62-0.79,0.91c-1.86,1.73-3.94,2.58-7.33,2.74
							c-3.23-0.08-5.7,3.25-4.82,6.33c1.14,4.31,6.05,3.93,9.52,3.13C597.44,1520.55,603.2,1513.16,602.15,1503.29"/>
					</g>
				</g>
			</g>
			<g class="st2">
				<defs>
					<rect id="SVGID_85_" x="0" y="0" width="3840" height="2160"/>
				</defs>
				<clipPath id="SVGID_86_">
					<use xlink:href="#SVGID_85_"  style="overflow:visible;"/>
				</clipPath>
				<path class="st42" d="M645.53,1461.56c-3.3,1.87-2.78,2.45-5.99,4.21c-8.15,5.23-21.22,7.16-29.39,5.98
					c-3.03-0.15-6.33-2.56-8.91-2.56c-3.15,0.24-3.47,5.12-0.4,5.84c5.5,2.65,11.61,3.32,17.65,2.92c7.27-0.25,14.35-2.12,20.88-5.3
					c2.81-1.29,5.4-3.01,7.78-4.98c1.04-0.81,2.23-1.75,2.17-3.21C649.37,1462.52,647.38,1461.03,645.53,1461.56"/>
				<path class="st42" d="M564.44,1475.81c-1.48-0.43-2.7,0.52-3.89,1.27c-2,1.24-3.92,2.62-6.03,3.67
					c-7.69,3.58-18.75,4.5-28.44,1.68c-2.31-0.67-4.61-1.4-6.86-2.29c-0.29-0.15-0.88-0.44-1.15-0.6c-0.69-0.4-1.54-0.51-2.31-0.3
					c-2.49,0.6-2.98,4.26-0.72,5.48c12.53,6.03,27.66,7.34,40.67,2.02c3.09-1.19,5.75-3.19,8.55-4.91c0.97-0.55,2.01-1.18,2.28-2.34
					C566.99,1477.97,565.99,1476.21,564.44,1475.81"/>
			</g>
			<g class="st2">
				<defs>
					<rect id="SVGID_87_" x="0" y="0" width="3840" height="2160"/>
				</defs>
				<clipPath id="SVGID_88_">
					<use xlink:href="#SVGID_87_"  style="overflow:visible;"/>
				</clipPath>
			</g>
			<g class="st2">
				<defs>
					<rect id="SVGID_89_" x="0" y="0" width="3840" height="2160"/>
				</defs>
				<clipPath id="SVGID_90_">
					<use xlink:href="#SVGID_89_"  style="overflow:visible;"/>
				</clipPath>
				<path class="st43" d="M830.75,1621.13c-2.22-30.74-8.68-61.82-24.51-88.6c-10.49-17.04-23.21-32.56-34.56-49.02
					c-12.82-18.43-27.45-35.73-38.26-55.48c-7.76-14.88-15.95-29.53-24.1-44.2c-7.31-14.02-14.55-28.21-24.53-40.57
					c-20.71-25.32-54.95-47.26-85.47-58.63c-23.55-7.74-49.03-7.79-73.44-4.88c-4.82,0.71-13.34,1.73-19.79,4.46
					c-2.85-1.24-5.73-2.42-8.76-3.14c-12.34-2.25-25.03-1.16-37.33,0.84c-14.12,2.23-27.87,6.45-40.64,12.89
					c-9.65,5.21-18.57,11.7-27.23,18.41c-50.07,40.16-70,94.33-89.15,153.32c-5.57,14.24-7.24,20.39-16.42,36.05
					c-18.04,28.03-38.56,49.35-59.51,80.77c-7.22,10.41-12.51,21.99-17.35,33.65c-4.87,11.68-9.55,23.49-12.86,35.72
					c-4.14,14.79-5.95,30.11-6.46,45.43c-0.6,13.87-0.33,27.95,3.1,41.47c3.42,14.28,10.56,27.14,19.53,38.66
					c5.77,7.62,11.04,15.9,18.36,22.14c5.49,4.67,12.61,6.88,19.59,8.24c2.98,1.37,6.02,2.6,9.14,3.62
					c12.59,3.14,25.76,3.4,38.39,0.34c25.89-7.92,46.86-25.57,68.84-40.6c6.08-3.93,12.38-7.51,18.87-10.71
					c10.96-2.31,21.24-3.6,27.78-4.47c14.85-1.64,29.76-2.84,44.56-4.93c9.38-1.32,18.87-2.76,27.64-6.48
					c18.93-7.5,35.55-20.15,49.8-34.55c6.41-7.67,10.99-16.88,14.27-26.28c2.71-10.28,3.92-20.93,4.31-31.54
					c0.85-23.42-4.92-47.35-18.31-66.77c-7.69-11.52-27.62-33.52-30.26-37.19c-8.73-11.03-13.52-27.75-14.35-33.44
					c-1.6-20.74,3.27-31.95,13.33-43.51c11.34-11.68,18.91-14.04,32.24-27.68c11.39-12.01,22.68-24.18,32.89-37.24
					c5.43-6.5,8.36-11.92,11.5-15.86c18.87,7.09,47.85,27.85,57.31,42.19c10,15.66,12.62,22.72,17.75,37.05
					c6.48,20.87,7.32,32.1,3.87,48.62c-4.33,14.83-5.48,17.65-11.98,29.03c-5.85,9.24-5.67,8.86-14.66,17.45
					c-20.66,19-51.77,39.02-45.9,71.31c3.6,23.02,21.37,41.51,40.79,53.02c14.56,7.92,31.25,10.38,47.49,12.37
					c3.56,0.42,7.12,0.79,10.68,1.27c-0.89-0.12-1.77-0.24-2.66-0.36c13,1.06,40.12,9.13,43.04,10.93
					c9.2,3.87,17.31,9.79,26.17,14.3c14.22,7,31.7,12.41,46.71,4.74C831.88,1714.79,832.55,1653.85,830.75,1621.13"/>
			</g>
			<g class="st2">
				<defs>
					<rect id="SVGID_91_" x="0" y="0" width="3840" height="2160"/>
				</defs>
				<clipPath id="SVGID_92_">
					<use xlink:href="#SVGID_91_"  style="overflow:visible;"/>
				</clipPath>
				<path class="st44" d="M552.32,1397.34c-1.01-4.12-7.09-4.98-9.14-1.19c-3.11,6.87-7.66,13.99-10.47,16.79
					c-8.84,8.93-21.63,15.73-34.29,24.67c-21.38,15.25-34.81,40.18-37.93,66.06c-1.38,7.09-0.64,14.31,0.58,21.37
					c2.12,14.22,8.77,27.56,17.95,38.54c5.28,6.39,11.61,11.78,17.14,17.92c2.93,3.55,11.05,15.76,15.81,23.32
					c5.48,8.99,10.66,17.27,12.5,24.51c2.78,9.36,1.87,30.52-0.33,39.91c-1.43,5.23-1.29,4.79-4.79,9.97
					c-2.33,3.63,1.5,8.66,5.65,7.34c3.26-1.13,4.57-4.86,6.31-7.57c4.01-8.67,4.01-18.52,4.99-27.87
					c-0.04-7.85-0.24-15.86-1.93-23.55c-3.24-12-10.54-22.35-16.93-32.86c-5.2-7.42-9.78-15.35-15.82-22.14
					c-9.85-9.84-16.57-15.64-22.52-26.4c-6.76-11.3-9.41-23.41-9.33-36.7c0.55-5.41,2.51-18.11,6.25-26.99
					c2.08-5.86,10.83-20.93,16.09-26.09c12.7-13.94,30.59-20.59,46.3-34.98c4.48-4.19,7.62-9.51,10.7-14.75
					C550.38,1403.69,553.06,1400.73,552.32,1397.34"/>
				<path class="st44" d="M502.33,1669.78c-0.29-13.04-2.68-25.92-5.04-38.71c-0.83-4.24-1.82-8.45-2.83-12.65
					c-0.62-2.35-0.75-5.22-3.14-6.51c-3.67-2.29-8.63,1.49-7.35,5.65c4.95,21.14,8.33,36.97,8.43,57.04
					c-0.77,12.53-2.67,23.37-10.79,35c-1.06,1.46-0.78,1.23-3.71,4.05c-1.08,1.15-2.65,2.01-3.16,3.57
					c-1.82,3.63,2.07,7.92,5.9,6.75c5.68-3,9.51-8.87,12.65-14.34c4.4-7.04,6.72-15.12,7.82-23.3
					C501.93,1680.84,502.71,1675.33,502.33,1669.78"/>
				<path class="st44" d="M257.99,1786.25c-3.45-2.4-1.58-1.01-4.76-3.56c-4.8-3.98-11.34-11.89-12.56-13.61
					c-4.23-6.35-7.07-13.53-10.28-20.42c-1-2.5-4.97-20.05-4.91-24.09c-2.43-17.79-2.71-35.51,0.43-49.75
					c1.7-9.23,3.05-18.54,5.25-27.67c4.65-15.61,8.25-25.13,15.67-38.38c1.46-2.69,3.02-5.33,4.57-7.97
					c0.68-1.16,0.86-2.56,0.5-3.85c-1-4.13-7.09-4.98-9.14-1.19c-9.67,15.9-17.22,33.09-21.83,51.14
					c-3.04,16.06-6.6,32.16-7.41,48.53c0.14,17.84,1.91,35.9,6.43,53.19c1.78,6.07,4.89,11.64,7.5,17.37
					c2.92,6.57,7.44,12.2,12.28,17.46c3.63,4.02,7.7,7.63,12.15,10.72c3.16,2.8,7.86,2.89,9.37-1.66
					C262.04,1789.86,260.33,1787.39,257.99,1786.25"/>
				<path class="st44" d="M422.37,1316.34c-12.42,10.33-22.22,23.11-31.19,36.45c-6.97,10.43-13.43,21.25-18.58,32.7
					c-3.57,8.38-6.18,17.12-8.92,25.8c-7.65,24.71-13.14,54.18-22.84,73.85c-5.37,12.37-10.35,17.38-18.91,27.56
					c-6.86,8.34-14.7,15.81-21.73,24c-1.49,1.68-2.96,3.37-4.51,4.99c-1.82,1.5-3.06,4.07-1.9,6.33c0.83,2.32,3.57,3.53,5.9,2.9
					c3.84-1.67,6.32-6.21,9.29-9.11c4.93-5.47,9.98-10.84,15.01-16.23c7.15-8.42,14.77-16.62,20.75-25.94
					c13.85-24.76,19.12-52.89,26.83-79.9c6.05-20.73,10.96-35.1,22.34-52.73c8.23-12.85,15.67-23.98,24.27-32.99
					c2.84-2.84,5.72-5.65,8.72-8.32c1.21-1.27,2.97-2.17,3.56-3.89C432.75,1317.02,426.1,1312.43,422.37,1316.34"/>
				<path class="st44" d="M407.3,1421.03c-1.9-4.91-9.65-3.46-9.57,1.93c-1.74,17.25-6.36,39.6-15.78,56.11
					c-5.66,10.71-11.51,16.84-17.14,24.58c-11.86,17.11-24.05,29.93-38.39,47.4c-11.07,15.53-22.69,30.76-30.9,48.06
					c-7.13,13.22-14.57,26.4-19.18,40.77c-6.25,24.12-10,49.21-8.46,74.16c0.31,8.97,0.85,18.02,3.59,26.62
					c3.02,9.24,6.77,18.32,11.81,26.65c2.37,3.97,5.93,10.06,11.02,5.66c1.9-1.9,1.94-5.18,0-7.07c-0.08-0.1-0.16-0.19-0.23-0.29
					c-0.19-0.27-0.38-0.54-0.57-0.81c-1.96-3.02-3.77-6.14-5.39-9.35c-3.51-6.27-9.13-22.83-9.31-27.48
					c-2.12-19.42-1.4-41.9,1.26-57.14c1.92-10.62,3.52-21.4,7.05-31.64c4.01-11.75,12.13-25.71,19.51-39.68
					c4.81-10.46,11.69-19.69,18.23-29.09c8.9-13.48,16.57-21.68,27.72-34.95c7.13-8.03,13.55-16.65,19.82-25.36
					c3.18-4.53,8.8-11.08,13.73-18.46c8.41-13.13,14.17-27.88,17.62-43.06c1.41-6.62,2.4-13.32,3.28-20.03
					C407.12,1426.07,408.3,1423.41,407.3,1421.03"/>
				<path class="st44" d="M355.78,1597.2c1.56-2.78,4.91-5.29,3.93-8.8c-1-4.13-7.09-4.97-9.14-1.2
					c-5.68,7.95-10.94,16.3-14.46,25.45c-6.13,16.54-8.09,34.14-9.57,51.61c-1.55,15.05-0.36,30.19,1.3,45.17
					c1.56,11.91,1.84,24.21,6.42,35.48c1.51,3.91,2.69,8.11,5.42,11.38c2.21,2.31,6.28,1.77,7.85-1.01
					c1.04-1.73,0.83-4.06-0.41-5.63c-0.57-0.9-1.07-1.84-1.49-2.82c-0.44-1.15-1.4-3.62-1.62-4.29c-1.28-3.61-2.63-7.23-3.37-11
					c-2.04-13.71-4.46-33.31-4.85-51.08c-0.03-13.11,2.08-30.09,3.2-38.85C342.26,1623.51,345.78,1611.54,355.78,1597.2"/>
				<path class="st44" d="M505.16,1326.93c-10.95,2.88-21.75,7.37-30.88,14.13c-14.23,11.14-26.38,25.25-34,41.71
					c-5.24,11.89-8.48,24.54-11.96,37.03c-2.66,8.72-4.38,17.65-6.25,26.56c-3.34,14.1-3.01,22.17-7.14,36.4
					c-3.62,16.03-17.03,31.99-24.54,41.48c-2.97,3.67-6.11,7.2-9.47,10.51c-1.39,1.6-3.51,2.71-4.32,4.72
					c-1.12,2.2-0.03,5.03,2.05,6.25c4.03,2.34,7.13-1.82,9.78-4.33c5.78-5.76,10.44-11.84,13.38-15.69
					c8.25-10.22,16.26-20.89,20.54-33.46c3.98-10.2,6.35-25.66,7.1-32.14c1.36-7.64,3.33-15.15,4.64-22.8
					c3.37-14.44,10.32-38.2,13.9-47.43c6.75-14.73,12.72-22.79,24.21-33.9c11.32-10.73,20.18-15.15,35.62-19.42
					C514.05,1334.8,511.56,1325.28,505.16,1326.93"/>
				<path class="st44" d="M532.63,1363.8c-11.51,4.33-22.67,9.86-32.09,17.87c-11.4,9.94-20.9,22.04-28.85,34.86
					c-5.25,9.2-11.43,17.85-16.14,27.37c-8.63,17.49-16.84,35.36-22.36,54.1c-4.3,13.33-6.89,27.2-6.22,41.25
					c1.24,14.46,5.44,28.46,8.55,42.59c3.81,14.92,11.69,28.49,15.07,43.52c6.2,23.47,10.15,43.13,5.16,63.52
					c-1.52,6.6-2.96,13.25-5.41,19.58c-1.42,4.82-7.01,11.89,0.16,14.5c4.68,1.07,6.15-3.04,7.45-6.65
					c2.25-5.44,4.2-10.99,5.54-16.73c2.7-10.39,4.64-21.06,4.6-31.82c-0.37-11.98-2.73-23.82-5.4-35.47
					c-1.78-6.42-3.07-12.98-5.16-19.32c-2.38-6.56-5.27-12.94-7.6-19.53c-4.24-10.2-6.34-21.05-8.86-31.75
					c-3.46-14.62-5.18-22.83-3.56-37.85c0.79-10.06,6.22-27.09,11.16-40.4c6.97-17.56,16.56-38.65,29.04-57.35
					c5.7-10.25,11.59-17.86,17.34-24.71c9.98-11.45,17-17.13,30.42-23.79c3.51-1.81,4.25-1.77,9.84-4.15
					c1.25-0.36,2.33-1.17,2.99-2.3C540.57,1367.53,536.79,1362.48,532.63,1363.8"/>
				<path class="st44" d="M412.67,1542.88c-1.87-4.96-9.68-3.41-9.57,1.93c-0.89,10.85-2.54,20.28-6.87,32.89
					c-5,13.39-8.73,20.49-14.99,33.75c-10.88,23.9-20.95,48.85-22.24,75.39c0.01,7.01-0.48,14.09,0.3,21.06
					c0.9,5.68,2.74,11.21,5.46,16.27c2.53,3.46,3.47,10.61,8.93,9.85c2.46-0.18,4.31-2.51,4.34-4.91c-0.8-4.5-4.07-8.24-5.88-12.43
					c-0.22-0.52-0.57-1.38-0.74-1.87c-1.06-2.85-1.79-5.81-2.34-8.79c-0.24-2.71-0.13-5.45-0.15-8.17
					c-1.34-27.63,9.13-55.58,20.36-80c7.11-15.49,15.26-30.7,19.59-47.29c1.71-6.54,3-13.18,3.67-19.9
					C412.56,1548.09,413.66,1545.31,412.67,1542.88"/>
				<path class="st44" d="M425.12,1643.48c-0.38-3.42-0.7-6.87-1.26-10.27c-0.29-2.11-0.69-4.45-2.76-5.54
					c-3.67-2.29-8.63,1.49-7.34,5.65c2.17,9.74,3.65,38.05,1.62,47.63c-2.02,9.53-4.57,18.95-7.51,28.24
					c-1.38,4.54-3.4,8.9-4.19,13.61c-0.58,3.61-0.57,7.36-0.03,10.98c0.34,1.75,0.39,3.77,1.59,5.17c3.1,4.37,10.27,0.77,8.75-4.36
					c-1.72-6.59-0.66-11.29,2.93-20.9c3.4-10.84,6.74-21.81,8.54-33.04C426.94,1668.31,426.62,1655.79,425.12,1643.48"/>
				<path class="st44" d="M581.9,1381.37c-2.17-5.96-5.54-11.31-8.88-16.66c-4-7.27-12.42-19.69-14.98-22.53
					c-4.39-6.01-4.88-6.91-9.11-11.96c-1.84-2.06-3.4-5.18-6.56-5.09c-4.3-0.14-6.68,5.59-3.53,8.53c1.55,1.77,3,3.62,4.53,5.4
					c3.49,4.69,8.2,10.86,11.3,15.22c6.02,9.06,15.28,23.77,17.6,29.74C574.09,1390.31,583.52,1387.74,581.9,1381.37"/>
				<path class="st44" d="M535.97,1314.6c-5.14-10.89-12.44-21.46-22.33-28.46c-4.86-2.3-9.32,4.41-5.46,8.1
					c9.27,8.13,12.92,12.96,18.34,23.72c0.32,0.67,1.21,2.5,1.49,3c0.43,1.06,1.13,2.01,2.15,2.58c2.72,1.68,6.53,0.09,7.34-2.99
					C538.17,1318.41,536.91,1316.44,535.97,1314.6"/>
				<path class="st44" d="M728.13,1444.59c-2.43-2.94-4.95-5.8-7.4-8.72c-4.5-5.79-13.95-19.83-19.26-30.19
					c-7.28-14.67-11.68-26.55-19.74-42.71c-8.02-14.66-18.01-28.55-31.22-38.97c-7.05-5.28-13.91-10.96-21.64-15.22
					c-17.97-9.04-37.76-14.48-57.77-16.29c-6.41-0.56-12.86-0.73-19.28-0.31c-2.91,0.48-6.43-0.34-8.73,1.87
					c-3.12,2.95-0.79,8.67,3.54,8.53c22.8-1.93,39.05,0.86,60.53,7.82c11.08,3.79,19.44,7.63,30.26,16.15
					c6.97,5.01,13.41,10.1,20.54,18.73c7.56,8.75,15.02,21.17,20.79,34.79c4.58,8.72,6.07,14.59,11.35,24.86
					c7.92,16.99,18.63,32.65,30.98,46.73c2.92,3.13,8.69,0.79,8.54-3.54C729.5,1446.81,729.11,1445.53,728.13,1444.59"/>
				<path class="st44" d="M799.85,1561.62c-4.77-13.33-9.88-26.52-17.26-38.66c-4.16-8.45-10.39-15.6-15.43-23.5
					c-7.3-10.25-14.08-20.93-22.31-30.48c-1.66-1.86-3.17-4.41-5.98-4.3c-4.29-0.11-6.69,5.56-3.53,8.54
					c8.65,9.59,14.36,18.87,23.07,31.1c6.21,9.23,13.08,18,17.94,28.06c7.08,11.71,9.25,20.04,14.57,33.75
					c4.67,12.3,7.49,25.23,10.06,38.1c1.32,7.18,1.86,17.09,2.71,27.69c0.32,13.16-0.32,26.32-1.44,39.43
					c-0.76,15.85-5.6,31.68-16.37,38.29c-4.35,2.41-2.48,9.39,2.52,9.32c3.2-0.2,5.61-2.99,7.98-4.9c4.46-3.76,7.2-8.82,9.79-13.95
					c4.03-9.48,5.67-19.74,6.16-29.98c0.46-7.02,1.39-14.01,1.23-21.06C814.65,1619.43,810.29,1589.43,799.85,1561.62"/>
				<path class="st44" d="M738.64,1504.28c-1.87-3.99-3.79-3.54-5.5-5.46c-6.18-5-11.65-10.79-16.97-16.67
					c-10.07-11.27-19.83-27.85-29.26-43.76c-7.48-13.33-10.12-21.74-16.03-34.76c-8.43-17.99-16.81-36.48-30.08-51.5
					c-8.77-9.85-19.91-17.1-31.65-22.91c-8.79-4.46-17.68-8.99-27.28-11.42c-5.09-1.29-10.29-2.04-15.5-2.7
					c-1.29-0.37-2.7-0.16-3.85,0.5c-3.74,2.06-2.98,8.12,1.19,9.14c17.69,1.85,28.08,6.49,42.82,14.41
					c21.32,10.5,32.57,23.67,43.69,44.98c8.71,16.43,14.2,29.32,20.59,44.5c4.94,11.1,11.19,21.56,17.76,31.75
					c7.84,13.12,16.71,25.64,27.61,36.42c3.62,3.7,7.43,7.22,11.53,10.39c1.76,1.16,3.25,3.14,5.45,3.33
					C736.54,1511.22,739.65,1507.54,738.64,1504.28"/>
				<path class="st44" d="M779.38,1578.36c-5.81-18.44-13.16-37.11-25.41-52.22c-4.1-3.43-10.15,1.86-7.35,6.45
					c27.2,37.9,35.87,90.6,28.54,132.7c-1.38,9.09-4.08,17.95-7.1,26.61c-0.32,0.85-0.32,0.97-1.69,3.69
					c-0.67,1.16-0.86,2.56-0.5,3.85c0.66,2.59,3.59,4.25,6.15,3.49c2.34-0.62,3.34-2.78,4.22-4.81c2.04-4.53,3.47-9.28,4.79-14.06
					C791.1,1649.71,789.09,1612.57,779.38,1578.36"/>
				<path class="st44" d="M647.59,1406.2c-9.41-17.27-21.87-32.83-37.37-45.02c-5.52-4.46-11.49-8.38-18.03-11.17
					c-2.75-0.84-5.47-2.87-8.4-2.6c-5.3,0.48-5.8,8.43-0.66,9.73c9.5,3.2,18.27,9.08,25.96,16.16
					c13.32,11.81,20.15,21.09,28.74,36.01c1.89,2.62,2.73,6.66,6.12,7.68c3.08,0.92,6.37-1.62,6.33-4.82
					C650.27,1409.9,648.55,1408.15,647.59,1406.2"/>
				<path class="st44" d="M686.31,1510.59c0.36-7.54-0.64-14.99-1.96-22.4c-1.33-9.64-3.9-19.04-8.25-27.77
					c-3.28-7.97-7.32-15.53-12.43-22.49c-1.8-2.25-2.93-5.56-5.89-6.46c-4.14-1.26-7.95,3.65-5.65,7.35
					c3.6,5.23,7.42,10.36,10.4,15.98c4.06,8.73,6.74,13.94,8.95,20.74c3.38,13.86,5.08,22.56,4.82,35.04
					c0.09,5.39,0.11,17.79-0.24,18.46c-2.54,10.66-5.06,21.34-9.4,31.44c-1.17,5.15-7.58,15.25-10.09,17.94
					c-3.19,3.62-6.99,6.68-10.68,9.78c-17.59,11.91-36.27,22.6-37.84,46.27c-0.08,1.94,0.01,4.09,1.51,5.51
					c2.95,3.12,8.67,0.79,8.54-3.53c-0.55-6.21,3.59-15.71,6.95-19.3c8.24-8.98,13.97-12.37,24.79-19.44
					c7.75-5.75,14.85-12.36,19.97-20.61c3.67-5.28,5.48-11.47,7.82-17.39c3.8-9.18,5.87-18.95,8.16-28.59
					C686.85,1524.35,686.18,1517.44,686.31,1510.59"/>
				<path class="st44" d="M749.07,1600.01c-1.35-9.21-4.77-17.93-8.61-26.36c-6.32-15.44-14.33-30.07-21.88-44.92
					c-3.07-6.4-6.24-13.5-7.59-16.82c-1-2.32-1.17-5.33-3.58-6.69c-3.66-2.3-8.63,1.49-7.35,5.65c7.79,22.06,20.82,41.76,29.8,63.31
					c4.1,9.01,9.14,21.17,9.47,29.09c-0.16,4.31,5.59,6.68,8.54,3.53C749.71,1605,749.45,1602.36,749.07,1600.01"/>
				<path class="st44" d="M749.98,1642.75c-2.04-3.75-8.13-2.97-9.14,1.19c-1.54,12.33-1.04,18.76-4.22,29.29
					c-2.02,9.1-4.07,11.06-7.13,19.16c-0.72,3.4,2.99,6.5,6.24,5.49c3.82-1.25,4.58-6.23,6.32-9.42c4.58-10.76,7-22.37,7.73-34.03
					c0.09-1.28,0.6-6.53,0.68-7.59C750.72,1645.45,750.78,1643.99,749.98,1642.75"/>
				<path class="st44" d="M703.39,1555.46c-0.37-3.09-0.06-7.72-1.8-10.23c-3.11-4.37-10.26-0.78-8.75,4.36
					c0.59,3.91,0.76,6.32,0.33,12.63c-0.03,0.22-0.05,0.39-0.07,0.55c-1.5,7.49-3.39,11.94-5.8,16.49
					c-2.77,4.77-6.48,8.92-9.28,13.68c-3.34,5.09-3.76,4.98-7.84,10.3c-5.49,7.49-7.58,11.65-12.73,16.84
					c-8.35,8.89-16.59,17.76-22.01,28.83c-4.04,8.92-7.22,19.2-4.99,28.97c1.32,3.77,6.99,4.06,8.89,0.6
					c0.8-1.25,0.71-2.71,0.53-4.12c-0.15-2.16-0.18-4.33,0.05-6.48c0.47-4.08,2.86-12.63,6.53-18.18
					c5.63-10.18,12.31-15.94,21.23-26.02c4.02-4.69,7.17-10.02,10.84-14.97c3.89-4.69,7.55-9.54,10.76-14.73
					c2.1-3.2,4.67-6.08,6.54-9.45C700.58,1575.63,703.85,1565.64,703.39,1555.46"/>
				<path class="st44" d="M720.58,1644.44c-0.46-17.01-5.34-33.45-8.26-50.12c-0.09-0.93-0.27-2.72-0.23-3.39
					c-0.25-2.62,0.88-5.46-0.13-7.94c-1.85-4.99-9.69-3.39-9.57,1.93c-1.01,7.97,0.84,15.82,2.6,23.54
					c1.69,8.03,3.2,16.11,4.67,24.19c0.62,5.6,1.15,11.25,0.81,16.88c0,0.52-0.1,1.53-0.18,2.24c-0.13,0.84-0.29,1.67-0.5,2.48
					c-0.35,1.29-0.17,2.7,0.5,3.85c1.55,2.79,5.64,3.29,7.85,1.01c1.48-1.46,1.62-3.65,1.93-5.6
					C720.51,1650.51,720.63,1647.47,720.58,1644.44"/>
				<path class="st44" d="M682.57,1630.1c-8.27,8.15-13.3,18.77-16.82,29.7c-1.66,4.98-2.77,10.13-2.91,15.39
					c-0.22,2.84-0.14,6.59,3.06,7.67c2.2,1.09,5.02,0.02,6.24-2.05c1.15-1.92,0.45-4.24,0.73-6.35c0.35-4.57,0.19-3.6,1.62-9.06
					c2.08-8.23,7.7-19.8,10.79-23.32c1.85-2.84,5.69-4.79,5.82-8.44C691.26,1629.34,685.52,1626.96,682.57,1630.1"/>
				<path class="st44" d="M702.87,1674.08c-2.04-3.76-8.13-2.96-9.14,1.19c-1.23,3.99-2.59,7.94-3.94,11.89
					c-0.73,1.64-0.94,3.57,0.05,5.16c2.79,4.45,8.83,2.42,9.58-2.47c1.35-3.97,2.72-7.93,3.95-11.93
					C703.73,1676.65,703.54,1675.23,702.87,1674.08"/>
			</g>
			<g class="st2">
				<defs>
					<rect id="SVGID_93_" x="0" y="0" width="3840" height="2160"/>
				</defs>
				<clipPath id="SVGID_94_">
					<use xlink:href="#SVGID_93_"  style="overflow:visible;"/>
				</clipPath>
				<path class="st45" d="M1038.95,1614.56c-0.05-1.62-0.47-3.24-1.31-4.74c-4.13-5.44-3.01-2-8.65-8.6
					c-2.53-3.04-9.44-13.79-11.35-24.52c-0.02-0.23-0.05-0.53-0.09-0.92c-0.23-1.44,0.07-5.81,0.2-7.81
					c0.71-3.55,0.02-7.25-2.57-9.93c-4.42-4.6-12.63-3.49-15.74,2.07c-0.35,0.88-0.68,1.69-0.99,2.48c0-0.01,0-0.02,0.01-0.03
					c0,0.01-0.01,0.03-0.01,0.04c-3.5,8.88-4.61,12.63-7.32,18.14c-4.6,8.7-7,11.22-10.07,14.82c-3.46,3.63-7.14,7.06-10.8,10.49
					c-2.28,2.45-5.6,4.31-6.72,7.59c-1.91,4.22-0.6,8.22,2.11,10.83c-0.11,3.33,1.35,6.72,4.87,8.76
					c11.67,7.93,14.27,8.78,21.9,16.92c5.61,6.59,3.99,5.11,5.86,8.52c1.35,3.42,2.42,6.95,3.13,10.56
					c-0.01,0.95,0.1,1.89,0.45,2.78c0.26,10.01,13.22,13.96,18.68,5.12c1.53-2.68,1.49-5.85,0.98-9.04
					c0.19-1.12,0.39-2.24,0.64-3.35c3.16-11.18,3.4-11.58,10.34-22.97c0.45-0.63,0.9-1.27,1.35-1.9c0.83-1.04,2.14-2.66,2.82-3.43
					c2.98-4.09,8.03-7.52,7.95-13.04C1044.72,1619.33,1042.23,1616.13,1038.95,1614.56"/>
				<path class="st45" d="M185.72,1343.39c0-0.12,0.01-0.23,0.01-0.34c-0.17-2.64-0.95-5.21-2.93-7.07
					c-1.56-1.21-3.08-2.47-4.48-3.86c-5.59-6.09-5.37-5.42-9.77-14.23c-0.02-0.04-0.02-0.05-0.04-0.09
					c-2.19-5.95-3.01-12.27-4.01-18.5c-0.24-1.42-0.92-5.73-1.26-7.72c-0.35-4.63-1.57-9.82-6.47-11.45
					c-5.18-2.58-12.14,0.91-13.5,6.48c-0.18-0.04-1.45,12.28-4.49,20.3c-0.65,2.57-5.7,13.28-11.16,21.54
					c-3.35,5.27-7.19,10.2-10.94,15.18c-1.76,2.6-4.55,4.91-4.62,8.25c-0.5,3.06,0.39,5.64,2.01,7.57c0.12,3.08,1.58,6.13,4.84,8.01
					c5.07,2.82,10.27,5.47,15.03,8.81c0.08,0.06,0.13,0.09,0.2,0.14c0.52,0.42,1.04,0.84,1.54,1.28c8.96,8.77,6.72,6.37,9.64,12.89
					c0.95,2.78,1.64,5.64,2.07,8.54c0,0,0,0.01,0,0.01c-0.2,1.99-0.3,3.99-0.23,6c0.32,13.17,19.63,13.16,20,0
					c-0.16-1.14,0.03-3.68,0.14-5.1c0.07-0.43,0.13-0.86,0.23-1.28c4.03-17.11,9.4-25.41,22.05-41.68
					C192.83,1351.2,190.1,1345.8,185.72,1343.39"/>
				<path class="st45" d="M708.34,1093.08c-0.09-2.5-1.06-4.98-2.86-6.75c-1.45-1.2-2.87-2.45-4.19-3.8
					c-2.55-2.8-1.77-1.3-5.68-7.99c-4.21-8.71-4.43-7.14-6.66-17.47c0-0.02,0-0.04-0.01-0.06c-0.03-0.39,0-0.77,0.01-1.16
					c0.03-0.26,0.05-0.52,0.04-0.78c0.02-2.63-1.08-5.22-2.93-7.07c-3.85-3.84-10.29-3.85-14.14,0c-1.93,1.8-2.54,4.35-3.4,6.75
					c-3.24,8.68-2.22,6.3-4.8,11.93c-4.65,8.71-3.74,7.01-8.23,12.44c-1.7,1.89-3.51,3.68-5.36,5.43c-2.06,2.2-4.99,3.91-5.95,6.89
					c-3.36,7.42,3.19,14.18,9.89,13.83c6.78,4.93,9.61,7.13,13.58,14.1c0.19,0.4,0.32,0.67,0.42,0.88c0.84,2.05,1.64,4.12,2.3,6.23
					c0.57,1.89,0.95,3.95,2.38,5.4c0.73,1.08,1.65,1.9,2.66,2.52c4.24,4.09,12.15,4.34,15.78-1.92c4.98-10.69,4.55-9.93,11.16-17.17
					c3.01-3.5,7.74-5.85,9.56-10.2C714.14,1100.17,711.99,1095.53,708.34,1093.08"/>
				<path class="st45" d="M186.91,2010.01c-0.08-0.03-0.17-0.06-0.25-0.09c-0.12-0.05-0.24-0.1-0.35-0.16
					c-4.77-3.15-4.43-2.49-8.37-6.73c-1.95-2.07-5.6-8.97-6.69-12.8c-0.85-2.59-1.88-5.13-2.71-7.73c-0.54-2.05-1.7-4.15-3.91-4.68
					c-2.98-0.89-6.04,1.43-6.32,4.42c-0.06,0.33-0.11,0.66-0.18,0.99c-1.09,4.39-1.63,5.03-2.44,6.9
					c-3.18,6.35-4.67,8.34-8.05,12.11c-1.81,1.97-3.91,3.64-5.99,5.32c-1.47,1.39-3.69,2.28-4.41,4.28
					c-0.69,1.46-0.56,2.88,0.05,4.05c-0.03,1.71,0.73,3.43,2.41,4.35c10.23,4.5,16.68,13.46,19.37,20.96
					c0.17,0.46,0.35,0.93,0.53,1.4c-0.01,0.03-0.03,0.06-0.03,0.1c-0.88,2.45-1.21,5.69,1.27,7.31c0.47,0.42,1.02,0.66,1.59,0.83
					c2.17,1.98,6.16,1.66,7.69-1.14c1.2-2.16,0.61-4.8,0.03-7.11c0.29-0.67,0.69-1.42,1.47-3.02c5.14-8.87,7.67-10.51,16.52-16.29
					c2.11-1.28,2.73-3.27,2.37-5.09c0.34-0.47,0.66-0.99,0.93-1.66C192.31,2013.36,189.94,2010.58,186.91,2010.01"/>
				<path class="st45" d="M839.1,1840.32c-0.07-0.15-0.14-0.29-0.22-0.43c-2.78-3.26-3.48-2.4-6.57-5.79
					c-4.61-4.74-7.21-9.57-8.82-15.74c-0.27-1.76-0.4-0.82-0.5-4.55c-0.02,0.24-0.05,0.41-0.07,0.58c0.01-0.73,0.02-1.46-0.03-2.19
					c-1.08-4.14-7.06-4.97-9.14-1.2c-0.72,1.19-0.83,2.55-0.75,3.91c-0.11,0.72-0.22,1.43-0.35,2.14
					c-1.61,7.93-3.76,11.27-8.32,16.5c-1.51,1.61-3.13,3.1-4.78,4.58c-1.01,0.44-1.85,1.22-2.41,2.18
					c-1.42,1.39-3.39,2.44-4.12,4.34c-1.64,3.46,1.3,6.7,4.46,6.9c0.14,0.1,0.27,0.2,0.43,0.29c6.62,3.69,10.16,5.67,12.96,9.15
					c1.09,1.82,1.92,3.58,2.42,5.24c0.8,2.19,1.44,4.43,1.93,6.71c0.25,1.86,0.89,3.79,2.65,4.74c2.72,1.68,6.53,0.09,7.34-2.99
					c0.08-0.55,0.1-1.1,0.08-1.65c0.64-0.24,1.24-0.59,1.73-1.1c1.6-1.54,1.48-3.91,2.17-5.89c0.14-0.64,0.76-2.3,1.05-3.09
					c1.7-3.79,3.74-7.43,5.92-10.97c1.31-2.54,3.68-4.75,4.21-7.59C840.69,1842.72,840.11,1841.31,839.1,1840.32 M818.03,1831.53
					c0.64,1.16,1.36,2.27,2.1,3.37c-0.55-0.59-1.33-1.11-2.43-1.48c-0.24-0.06-0.46-0.06-0.69-0.09
					C817.35,1832.74,817.69,1832.14,818.03,1831.53"/>
				<path class="st45" d="M864.57,1461.87c-0.65-2.07-1.98-3.03-3.62-3.42c-0.22-2.84-0.46-5.68-0.69-8.52c-0.1-6.56-9.87-6.56-10,0
					c0.25,2.96,0.49,5.93,0.72,8.89c-1.56,0.19-3.25-0.06-4.68,0.62c-5,1.86-3.38,9.69,1.93,9.57c1.14-0.08,2.29-0.16,3.43-0.24
					c0.08,1.28-0.05,2.62,0.54,3.77c0.63,1.86,2.64,3.08,4.57,3.07c4.63-0.24,5.25-4.1,4.88-7.81
					C863.86,1466.86,865.27,1464.31,864.57,1461.87"/>
				<path class="st45" d="M455.55,1312.53c-0.24-2.15-0.53-4.28-1.04-6.35c-1.86-5-9.69-3.38-9.57,1.93c0.27,1.95,0.5,3.9,0.74,5.86
					c-2.04,0.32-3.95,0.91-5.07,2.74c-2.31,3.67,1.5,8.63,5.65,7.35c0.25-0.04,0.47-0.08,0.7-0.12c0.16,1.45,0.25,2.95,1.24,4.04
					c1.9,2.86,6.63,2.45,8.24-0.51c0.86-1.59,0.7-3.29,0.38-5.01c0.07-0.01,0.12-0.01,0.19-0.02c1.28-0.24,2.69-0.03,3.87-0.65
					c1.86-0.63,3.08-2.64,3.07-4.57C463.62,1312.19,459.57,1312.02,455.55,1312.53"/>
				<path class="st45" d="M390.95,1760.17c-0.28,0.01-0.57,0.02-0.85,0.03c-0.2-2.09-0.39-4.18-0.56-6.27
					c-0.33-2.3,0.08-5.01-1.76-6.75c-2.94-3.14-8.68-0.77-8.54,3.54c0.38,3.25,0.64,6.53,0.88,9.81c-1.07,0.03-2.15,0.06-3.22,0.09
					c-1.31-0.01-2.61,0.54-3.54,1.46c-3.15,2.94-0.77,8.68,3.54,8.54c1.36-0.04,2.71-0.07,4.07-0.11c0.21,2.01,0.45,4.01,0.77,5.98
					c2.69,5.92,10.98,2.53,9.44-3.69c-0.06-0.87-0.13-1.75-0.2-2.62c1.3,0,2.58-0.54,3.5-1.46
					C397.63,1765.77,395.26,1760.03,390.95,1760.17"/>
				<path class="st45" d="M1024.41,2003.1c0.05-0.56,0.12-1.12,0.17-1.68c0-2.44,1.07-5.11,0.08-7.42c-1.86-5-9.69-3.38-9.57,1.93
					c-0.24,2.72-0.53,5.44-0.8,8.16c-0.31,0.03-0.63,0.07-0.94,0.1c-1.31-0.01-2.61,0.54-3.54,1.46c-3.13,2.93-0.78,8.64,3.49,8.53
					c-0.28,2.44-0.76,5.08,1.17,6.9c2.94,3.14,8.68,0.77,8.54-3.53c0.11-1.51,0.28-3.02,0.43-4.52c0.71-0.12,1.43-0.24,2.12-0.42
					C1030.31,2010.85,1029.08,2003.72,1024.41,2003.1"/>
				<path class="st45" d="M1263.95,1783.02c-1.21-4.07-5.44-3.85-9.17-3.86c0-0.52-0.01-1.04-0.01-1.56
					c-0.27-3.01,0.88-6.69-1.48-9.07c-2.94-3.14-8.68-0.77-8.54,3.54c0,2.19,0.05,4.37,0.06,6.56c-1.59-0.1-3.17-0.21-4.76-0.31
					c-0.69-0.03-1.33,0.12-1.93,0.43c-5.01,1.86-3.38,9.69,1.93,9.57c1.62,0.11,3.24,0.21,4.85,0.31c0.01,0.47,0,0.95,0.01,1.42
					c0.23,2.32-0.47,4.87,0.43,7.06c1.86,5,9.69,3.38,9.57-1.93c0.03-2,0.01-4.01-0.02-6.01c0.07,0,0.14,0.01,0.21,0.01
					c1.96-0.06,4.11,0.62,5.94-0.25C1263.41,1788.12,1264.57,1785.35,1263.95,1783.02"/>
				<path class="st45" d="M102.64,1737.66c-0.01-1.19-0.02-2.37-0.02-3.56c-0.4-3.58,1.18-8.02-1.45-10.94
					c-2.94-3.14-8.68-0.77-8.54,3.54c-0.01,4.18-0.02,8.36,0.03,12.54c-1.63,0.27-3.27,0.53-4.9,0.79c-1.25,0.34-2.34,1.19-2.99,2.3
					c-2.31,3.67,1.5,8.63,5.65,7.35c0.84-0.14,1.68-0.27,2.52-0.41c0.01,0.22,0.01,0.43,0.03,0.65c0.53,3.36-0.39,7.5,1.99,10.21
					c2.2,2.31,6.28,1.75,7.85-1.01c1.12-1.75,0.49-3.83,0.37-5.76c-0.13-1.87-0.23-3.74-0.31-5.62c0.7-0.1,1.39-0.21,2.09-0.3
					c0.35-0.05,0.74-0.1,1.07-0.14c2.68,0.06,5.06-2.32,5-5C110.67,1737.23,106.69,1737.08,102.64,1737.66"/>
				<path class="st45" d="M765.2,1558.1c-2.22-0.41-4.46-0.56-6.7-0.58c0.04-1.07,0.01-2.14-0.45-3.11c-1.86-5-9.69-3.38-9.57,1.93
					c0.01,0.55,0,1.09,0,1.64c-2.27,0.04-4.71-0.21-6.38,1.54c-3.14,2.94-0.77,8.68,3.54,8.54c0.8-0.04,1.74-0.08,2.74-0.13
					c0.03,1.97,0.12,3.94,0.36,5.89c1.52,6.79,11.11,4.32,9.75-2.12c-0.05-1.38-0.05-2.75-0.07-4.12c2.46-0.03,4.32,0.04,4.63,0.31
					C769.76,1569.53,771.96,1559.45,765.2,1558.1"/>
				<path class="st45" d="M591.24,1934.22c-2.53-0.34-5.09-0.19-7.64-0.36c0.1-0.71,0.21-1.42,0.29-2.13
					c0.41-2.02,0.47-4.28-1.18-5.79c-2.94-3.14-8.68-0.77-8.53,3.54c-0.13,1.07-0.28,2.19-0.46,3.38c-0.53-0.04-1.06-0.09-1.58-0.12
					c-1.32-0.01-2.61,0.54-3.54,1.46c-3.14,2.94-0.77,8.68,3.54,8.54c0.01,0,0.02,0,0.03,0c-0.15,0.95-0.3,1.93-0.46,2.96
					c-0.08,2.8-1.42,5.91,0.01,8.52c1.78,3.28,6.91,3.24,8.69-0.02c0.59-0.93,0.78-1.94,0.67-2.92c0.01-0.11,0.02-0.23,0.03-0.34
					c0.38-3.74,0.59-4.9,0.98-7.25c2.39,0.25,4.78,0.41,7.18,0.31c1.71,0.33,3.55,0.47,4.92-0.8
					C598.21,1940.24,595.46,1934.2,591.24,1934.22"/>
				<path class="st45" d="M383.73,1161.06c0.03-3.6-3.92-4.77-6.73-6.53c-0.1-0.07-0.16-0.11-0.23-0.16
					c-0.38-0.31-0.75-0.61-1.11-0.95c-0.38-0.32-0.84-0.83-1.12-1.15c-0.42-0.59-0.82-1.19-1.15-1.83
					c-0.21-0.68-0.37-1.48-0.43-1.75c-0.05-0.45-0.08-0.91-0.07-1.36c1.12-2.53,0.16-5.93-2.58-6.9c-1.41-0.71-3.08-0.47-4.45,0.25
					c-2.12,1.26-2.64,3.9-3.93,5.86c-2.34,4.23-4.82,8.39-7.76,12.24c-1.83,3.26,0.11,6.24,2.75,7.19c0.23,0.47,0.55,0.93,0.98,1.35
					c2.77,3.01,4.97,5.57,7.53,10.12c-0.09,0.56-0.2,1.12-0.23,1.69c0.13,1.5,0.88,2.6,1.89,3.31c1.17,6.37,10.79,4.98,9.87-2
					c-0.06-1.39-0.38-2.7-0.84-3.97c1.15-2.92,1.58-3.33,4.42-6.73c1.15-1.38,2.96-2.34,3.58-4.09
					C384.91,1163.95,384.6,1162.32,383.73,1161.06"/>
			</g>
			<g class="st2">
				<defs>
					<rect id="SVGID_95_" x="0" y="0" width="3840" height="2160"/>
				</defs>
				<clipPath id="SVGID_96_">
					<use xlink:href="#SVGID_95_"  style="overflow:visible;"/>
				</clipPath>
				<path class="st46" d="M1104.84,1889.02c-3.82-4.52-9.88-7.46-15.85-6.95c-12.28,1.15-21.06,11.06-28.6,19.9
					c-0.39,0.46-0.75,0.95-1.12,1.42c-3.31-8.43-7.8-16.57-15.92-20.95c-7.44-3.55-16.99-1.12-22.35,4.99
					c-5.09,6.44-6.37,15.82-4.34,23.66c2.4,7.57,7.79,13.82,12.36,20.2c6.83,9.67,12.4,15.76,18.79,22.66
					c2.2,1.97,5.45,1.31,7.43-0.64c2.11-1.61,4.4-2.96,6.7-4.28c4.95-2.99,16.71-8.11,24.14-14.48c6.54-5.37,12.31-11.73,16.68-19
					c2.43-3.76,4.49-7.84,5.22-12.3C1108.68,1898.4,1107.63,1893.07,1104.84,1889.02"/>
			</g>
			<g class="st2">
				<defs>
					<rect id="SVGID_97_" x="0" y="0" width="3840" height="2160"/>
				</defs>
				<clipPath id="SVGID_98_">
					<use xlink:href="#SVGID_97_"  style="overflow:visible;"/>
				</clipPath>
				<path class="st47" d="M496.6,1243.81c-16.83,1.03-33.8-0.07-50.51,2.4c-12.36,2.05-24.22,6.44-35.68,11.39
					c-29.41,12.02-53.37,34.17-71.31,60.06c-20.06,26.36-33.06,57.23-42.01,88.95c-5.03,16.9-11.63,39.65-16.94,51.72
					c-1.53,3.42-3.26,6.75-5.22,9.95c-0.83,1.6-2.31,2.98-2.45,4.84c-0.42,1.93,0.72,4.01,2.39,4.98c6.12,3.08,8.62-5.14,11.18-9.12
					c9.38-18.71,14.36-39.26,20.52-59.17c9.38-32.79,20.63-59.89,41.86-88.05c17.31-24.97,41.06-45.16,67.63-55.8
					c10.7-4.46,21.77-8.39,33.25-10.2c6.73-1.16,25.1-1.23,36.58-1.57c3.57-0.13,7.15-0.25,10.72-0.39c1.33,0,2.6-0.53,3.54-1.46
					C503.24,1249.43,500.93,1243.65,496.6,1243.81"/>
				<path class="st47" d="M245.12,1507.85c-18.61,28.92-42.46,54.54-57.2,85.84c-6.8,14.11-12.75,28.63-18.57,43.18
					c-5.35,13.68-10.6,27.54-13.08,42.08c-3.45,19.13-3.87,38.69-1.18,57.94c1.45,12.24,3.44,24.49,8.01,36
					c2.59,7.38,6.23,14.32,11.28,20.33c1.43,1.56,2.44,3.81,4.5,4.6c2.21,1.11,5.01,0.03,6.24-2.05c1.13-1.89,0.8-4.52-0.78-6.06
					c-3.16-3.88-2.38-2.78-5.41-7.05c-5.31-8.18-6.1-12.15-9.41-21.96c-6.95-27.19-8.24-57.26-2.76-83.6
					c4.9-21.89,14.7-43.68,21.88-60.92c5.61-13.14,11.75-26.09,19.23-38.28c6.49-10.58,14.22-20.31,21.44-30.39
					c6.04-8.38,12.16-16.72,18.07-25.2c1.52-2.21,3-4.44,4.5-6.65c0.87-1.51,2.36-2.8,2.46-4.61
					C255.28,1505.88,247.73,1503.13,245.12,1507.85"/>
				<path class="st47" d="M193.7,1834.2c-2.04-3.74-8.13-2.98-9.14,1.2c-7.42,23.73-16.39,46.94-23.8,70.68
					c-3.68,10.69-7.21,21.47-9,32.67c-0.93,3.09,1.61,6.37,4.82,6.33c4.95-0.02,5.1-5.26,5.84-8.93c1.9-10.25,5.59-20.03,8.81-29.9
					c4.78-15.16,10.07-30.15,15.39-45.13c2.28-6.64,4.48-13.31,6.61-20.01C193.93,1838.88,195.11,1836.41,193.7,1834.2"/>
				<path class="st47" d="M530.05,2123.7c-0.2-2.46-2.5-4.31-4.91-4.33c-1.66-0.04-3.02,1.01-4.49,1.62c-0.98,0.53-3.34,1.4-1,0.46
					c-4.74,1.99-9.74,3.32-14.81,4.18c-15.77,3.29-37.19,2.19-56.96,1.76c-27.23-0.83-54.44,1.04-81.66,1.59
					c-18.6,0.29-37.18-0.83-55.76-1.33c-20.17-0.41-39.02-0.99-55.75-4.19c-13.53-2.43-28.17-7.79-37.26-11.9
					c-19.64-8.56-27.71-19.05-33.43-36.72c-1.57-3.33-1.58-7.93-4.77-10.16c-3.62-2.3-8.66,1.49-7.35,5.65
					c4.6,13.77,9.6,28.47,21.17,38.02c8.83,7.45,19.45,12.28,30.16,16.38c24.68,9.88,51.5,12.33,77.88,12.65
					c20.05,0.45,40.09,1.67,60.16,1.66c21.72-0.25,43.42-1.5,65.14-1.85c29.15-0.61,58.77,3.72,87.45-3.25
					c3.83-0.97,7.53-2.36,11.14-3.98C527.69,2128.99,530.74,2126.98,530.05,2123.7"/>
				<path class="st47" d="M851.44,1656.71c-0.01-1.99,0.08-4.21-1.51-5.68c-2.2-2.3-6.28-1.75-7.85,1.01
					c-0.45,0.78-0.68,1.62-0.68,2.52c0.09,4.84,0.3,9.68,0.33,14.52c0.53,16.56-8.13,36.66-17.18,48.45
					c-3.32,3.96-7.05,7.55-10.84,11.05c-1.66,1.81-4.18,3.06-5.18,5.35c-0.58,1.23-0.58,2.43-0.2,3.48c-0.46,1.65-0.15,3.5,1.24,4.8
					c3.4,3.91,6.98,7.68,10.28,11.68c1.82,2.55,3.34,6.53,7.15,5.74c2.45-0.17,4.31-2.52,4.33-4.91c-0.19-3.03-2.63-5.39-4.29-7.77
					c-2.67-3.23-5.51-6.33-8.3-9.45c6.37-5.76,12.66-11.73,17.38-18.96c7.3-12.21,13.48-25.53,14.98-39.82
					C852.09,1671.42,851.6,1664.05,851.44,1656.71"/>
				<path class="st47" d="M856.71,1619.75c-3.7-22.61-5.79-45.97-15.46-67.01c-5.93-12.79-12.92-25.11-20.59-36.94
					c-6.5-9.93-19.99-26.87-24.24-32.38c-15.36-21.15-31.32-42.04-44.46-64.67c-3.92-7.07-7.8-14.16-11.6-21.3
					c-0.75-1.24-1.19-2.77-2.46-3.58c-1.84-1.64-4.86-1.31-6.56,0.39c-2.62,2.58-1.08,5.98,0.59,8.62c1.36,2.58,2.75,5.14,4.14,7.7
					c4.77,8.81,9.57,17.61,14.98,26.05c11.4,17.16,23.52,33.85,35.68,50.48c11.93,15.49,23.44,29.2,34.19,48.24
					c9.84,17.33,16.14,29.69,20.02,49.69c1.75,9.15,3.12,18.37,4.66,27.56c0.9,3.53,0.48,8.57,2.36,11.52
					C851.03,1628.45,858.25,1624.9,856.71,1619.75"/>
				<path class="st47" d="M725.14,1367.29c-19.51-37.62-47.71-70.78-82.93-94.52c-15.16-10.21-31.21-19.44-48.66-25.13
					c-8.5-2.6-17.35-3.89-26.15-5.01c-5.38-0.68-10.79-1.1-16.2-1.46c-3.22-0.07-5.72,3.24-4.82,6.33c0.56,2.11,2.63,3.7,4.82,3.67
					c3.7,0.24,7.4,0.52,11.08,0.89c8.36,0.86,13.4,1.6,23.45,3.79c14.98,3.99,25.37,9.47,40,18.2
					c18.56,11.44,30.89,21.23,46.67,36.77c15.81,16.23,26.34,30.71,38.46,51.21c1.99,3.38,3.78,6.86,5.65,10.3
					c0.66,1.12,1.74,1.95,2.99,2.3C723.61,1375.9,727.46,1370.98,725.14,1367.29"/>
				<path class="st47" d="M773.31,2122.71c-1.29-4.62-6.45-3.61-10.14-3.47c-42.08,2.76-84.25,3.32-126.4,1.93
					c-24.26-1.36-48.57-1.72-72.81-3.36c-3,0-6.58-1.37-8.96,1.06c-3.12,2.94-0.79,8.68,3.54,8.54c14.6,1.3,29.24,1.71,43.88,2.09
					c22.97,1.37,45.96,2.2,68.97,2.32c15.82,0.07,31.64,0.03,47.46-0.26c16.56-0.62,33.08-2.02,49.64-2.52
					C771.7,2129.12,774.2,2125.79,773.31,2122.71"/>
				<path class="st47" d="M1064.88,1703.66c-3.21-2.75-8.42-1-12.36-1.45c-23.16,0.07-46.33-0.06-69.48,0.43
					c-17.64,0.52-35.27,2.06-52.94,1.43c-18.15-0.23-36.28-0.97-54.36-2.64c-6.51,0.09-6.6,9.87,0,10
					c35.5,3.33,71.17,3.25,106.73,1.23c26.29-0.56,52.58-0.37,78.87-0.46C1065.63,1712.35,1068.04,1706.61,1064.88,1703.66"/>
				<path class="st47" d="M1333.62,1738.68c-0.65-13.02-2.93-28.13-14.2-36.32c-7.61-5.24-17.15-6.39-26.12-7.35
					c-15.6-1.56-31.3-0.52-46.93,0.16c-22.18,0.85-44.33,2.21-66.49,3.2c-20.1,0.95-40.21,0.97-60.31,0.2
					c-3.32,0.35-7.33-0.86-9.99,1.59c-3.1,2.94-0.8,8.68,3.54,8.54c15.31-0.35,30.61,0.98,45.92,0.32
					c33.05-0.81,66.04-3.16,99.07-4.39c19.82-0.73,41.82-1.23,54.1,4.95c6.44,2.86,10.02,13.89,10.81,21.41
					c0.69,5.98,0.88,12.01,0.73,18.02c0.07,3.5-1.4,8.56,2.86,10.12c2.2,1.09,5.03,0.03,6.24-2.05c0.97-1.62,0.65-3.58,0.81-5.39
					C1333.82,1747.37,1333.83,1743.02,1333.62,1738.68"/>
				<path class="st47" d="M1294.54,2078.64c-2.18-2.31-6.3-1.74-7.85,1.01c-1.46,3.87-0.71,8.34-1.53,12.4
					c-0.29,3.85-4.61,15.64-9.7,19.72c-5.73,5.81-19.3,6.78-34.14,6.81c-14.53,0.15-29.06-0.2-43.57-0.88
					c-17.53-0.85-35.06,0.53-52.59,0.61c-28.21,0.14-56.42,0.11-84.6,1.56c-19.14,0.53-38.25,1.98-57.41,1.85
					c-27.67,0.11-55.32-1.32-82.99-1.82c-27.62-0.77-55.23-1.77-82.86-1.86c-5.83-0.06-11.67,0.16-17.49,0.5
					c-2.29,0.2-4.85-0.19-6.58,1.63c-3.05,2.93-0.84,8.68,3.54,8.53c23.78-1.43,47.61-0.27,71.4,0.35
					c33.59,0.67,67.16,1.96,100.74,2.64c35.64,0.57,71.2-2.37,106.83-3c18.09-0.48,36.19-0.09,54.28-0.44
					c15.94-0.22,31.88-1.34,47.82-0.54c15.04,0.7,30.11,1.07,45.16,0.85c12.91-0.42,27.44,0.01,38.07-8.44
					c9.35-8.04,13.88-20.56,14.57-32.64C1295.69,2084.53,1296.92,2080.97,1294.54,2078.64"/>
				<path class="st47" d="M1312.13,1872.06c-4.27,1.14-3.69,5.98-4.06,9.46c-2.28,27.91-6.16,48.85-9.7,75.64
					c-2.03,19.82-3.07,40.45-5.63,56.52c-2.2,16.49-2.24,29.09-5.39,43.05c-1.64,6.3,7.76,8.98,9.64,2.66
					c3.01-13.36,3.53-27.13,5.14-40.71c2.65-17.5,4.2-39.96,6.21-61.29c2.99-22.19,8.23-53.72,10.11-80.51
					C1318.53,1873.66,1315.21,1871.16,1312.13,1872.06"/>
				<path class="st47" d="M1327.75,1773.09c-1.11-3.25-5.8-4.07-8.11-1.61c-1.92,1.91-1.43,4.71-1.65,7.17
					c-0.2,4.9-0.32,9.81-0.64,14.71c-1.13,13.9-3.05,27.74-4.6,41.61c-0.66,4.99-1.25,9.98-1.79,14.98c-0.11,1.3-0.44,2.7,0.24,3.89
					c1.86,4.99,9.69,3.39,9.57-1.93c2.35-23.84,6.56-47.54,7.15-71.52C1327.8,1777.99,1328.7,1775.36,1327.75,1773.09"/>
			</g>
			<g class="st2">
				<defs>
					<rect id="SVGID_99_" x="0" y="0" width="3840" height="2160"/>
				</defs>
				<clipPath id="SVGID_100_">
					<use xlink:href="#SVGID_99_"  style="overflow:visible;"/>
				</clipPath>
				<path class="st48" d="M3590.03,308.11c-1.35-4.45-4.72-8.48-9.6-10.75c-3.24-2.4-6.69-4.24-14.48-13.35
					c-10.71-13.39-23.25-45.69-24.47-68.8c-1.36-8.37,1.04-18.52-5.49-25.09c-6.61-6.85-19.08-5.28-23.68,3.11
					c-3.1,6.95-3.57,14.76-5.66,22.06c-3.06,12.54-6.62,24.97-10.97,37.13c-2.03,7.28-11.3,24.05-14.69,26.83
					c-9.48,9.11-4.48,4.94-14.95,11.6c-3.35,2.01-7.49,3.21-9.72,6.6c-11.87,4.36-14.16,23.72,1.29,28.57
					c1.48,0.55,2.97,1.1,4.45,1.68c1.69,0.76,3.37,1.55,5.01,2.44c6.51,3.64,13,7.37,19.05,11.75
					c14.64,11.86,20.21,21.83,23.71,30.11c2.44,6.86,3.52,10.48,4.09,13.36c-0.92,6.38-1.52,12.82-1.97,19.23
					c0.07,4.5,1.86,8.12,4.54,10.68c0.63,2.54,1.76,4.91,3.75,6.76c6.61,6.82,18.87,5.26,23.56-3.04
					c3.15-5.12,1.75-11.29,1.64-16.96c-0.3-5.44-0.71-10.88-1.36-16.29c1.39-7.21,3.66-14.24,6.46-21.04
					c0.15-0.38,0.31-0.75,0.46-1.12c2.81-6.45,6.1-12.71,10.13-18.48c0.03-0.04,0.05-0.06,0.07-0.1c2.16-2.54,4.58-4.85,7.23-6.88
					c0.02,0.01,2.91-2.1,5.08-3.31c2.99-1.06,6.07-1.84,9.16-2.57C3594.89,328.45,3596,315.51,3590.03,308.11"/>
				<path class="st48" d="M3424.85,604.07c0.19-2.79-0.4-5.65-1.99-8.24c-2.07-3.83-6.03-5.68-9.46-8.05
					c-9.46-6.77-5.31-3.68-11.47-8.73c-1.07-0.95-2.47-2.53-3.36-3.56c-1.43-2-2.75-4.09-3.97-6.23
					c-7.22-13.79-6.24-11.14-10.54-27.65c-1.66-9.75-2.06-8.47-2.08-21.69c0.1-1.45,0.16-2.89,0.13-4.34
					c0.02-0.19,0.02-0.38,0.04-0.57c-0.01,0.09-0.02,0.22-0.04,0.39c-0.03-1.58-0.14-3.16-0.4-4.73
					c-2.35-9.87-15.84-14.54-23.55-7.79c-5.63,3.79-6.24,10.72-6.24,17.14c-0.12,1.52-0.28,3.03-0.45,4.54
					c-3.66,20.31-4.98,23.52-13.74,38.55c-0.08,0.11-0.14,0.2-0.2,0.29c-4.43,5.16-9.97,9.24-15.29,13.42
					c1.01-0.78,2.02-1.56,3.04-2.35c-1.23,1.08-2.65,2.14-4.13,3.19c-14.15-2.48-23.79,14.63-13.37,25.33
					c10.93,9.43,23.19,17.56,32.66,28.54c2.59,3.62,4.98,7.4,6.92,11.4c1.13,3.28,2,6.64,2.74,10.04
					c-0.71,3.86-1.24,7.76-1.73,11.65c-1.94,9.41-0.12,19,10.21,22.05c1.92,0.53,3.87,0.61,5.76,0.36
					c5.97,0.99,12.51-1.53,15.66-7.09c2.21-3.53,2.17-7.68,1.96-11.7c-0.06-4.82-0.51-9.62-1.24-14.39
					c-0.02-0.13-0.04-0.25-0.06-0.38c0.24-0.96,0.51-1.92,0.8-2.86c2.16-4.23,4.81-8.21,7.55-12.08c4.58-5.37,5.76-5.22,7.47-6.39
					c1.63-0.86,3.3-1.63,4.98-2.39c0.01-0.01,0.03-0.01,0.04-0.02c7.69-3.64,18.2-3.74,22.9-11.75
					C3427.14,613.38,3426.92,608.28,3424.85,604.07"/>
				<path class="st48" d="M3670.55,510.56c-1.17-2.73-2.84-5.17-5.33-6.84c-1.3-1.21-2.51-2.54-3.64-3.91
					c-2.2-3.01-4.2-6.15-5.97-9.43c-0.3-0.55-0.58-1.12-0.85-1.68c-0.05-0.1-0.09-0.2-0.14-0.29c-0.13-0.36-0.29-0.72-0.4-1.09
					c-0.48-1.42-0.96-3.87-1.26-5.47c-0.22-3.16,0.01-6.31-0.61-9.44c-1.34-4.98-5.5-9.13-10.48-10.48
					c-6.45-1.55-13.63,0.96-16.94,6.89c-1.82,3.62-2.66,7.61-4.02,11.41c-4.4,12.56-2.88,9.15-6.44,16.7
					c-1.55,3.02-3.2,6.01-4.96,8.92c-6.51,4.39-9.43,13.83-4.01,21.27c1.15,1.98,2.76,3.61,4.65,4.84c5.4,5.3,6.16,6.68,8.12,9.31
					c2.42,3.47,4.74,7.03,6.53,10.87c0.5,1.37,0.95,2.77,1.21,4.21c0.07,0.79,0.13,1.57,0.17,2.36c0.78,19.83,29.29,19.72,30,0
					c-0.02-1.32-0.11-2.62-0.24-3.91c1.8-1.47,3.35-3.45,4.49-5.98c2.84-4.83,6.01-9.45,9.21-14.05c2.22-3.48,5.53-6.74,5.59-11.1
					C3676.14,518.07,3674.02,513.52,3670.55,510.56"/>
				<path class="st48" d="M3258.25,155.76c-3.08,0-6.16-0.05-9.24-0.12c-0.07-1.58-0.14-3.17-0.22-4.75
					c0.05-1.38-0.23-2.66-0.86-3.85c-3.91-10.03-19.19-6.86-19.14,3.85c0.1,2.03,0.18,4.07,0.27,6.1c-1.89,1.35-3.06,3.21-3.56,5.24
					c-0.29-0.03-0.57-0.06-0.87-0.07c-13.18,0.33-13.14,19.64,0,20c2.07-0.05,3.78-0.61,5.2-1.45c0,0.37,0.02,0.73,0.02,1.1
					c0.4,5.3-1.2,11.66,3.06,15.76c4.4,4.62,12.56,3.49,15.71-2.02c1.62-2.55,1.38-5.58,1.31-8.47c-0.05-3.81-0.12-7.63-0.2-11.44
					c1.57,0.04,3.15,0.1,4.73,0.12c4.18,0.09,8.91,0.45,12-2.91C3273.1,166.26,3267.5,154.79,3258.25,155.76"/>
				<path class="st48" d="M3715.33,889.99c-2.5-1.58-5.48-1.37-8.32-1.46c-0.28-0.01-0.56-0.01-0.84-0.01
					c-0.06-0.81-0.11-1.63-0.18-2.44c-0.43-2.75,0.04-5.78-1.25-8.31c-3.92-10.03-19.19-6.86-19.14,3.85
					c0.24,2.33,0.42,4.65,0.57,6.98c-2.3,0.04-4.61,0.09-6.92,0.13c-2.7,0.19-5.65-0.37-8.11,0.95
					c-10.03,3.92-6.86,19.19,3.85,19.14c3.68-0.06,7.37-0.14,11.05-0.22c-0.43,3.8-1.57,7.72,0.02,11.21
					c2.63,7.57,13.99,8.11,17.77,1.19c1.25-1.96,1.3-4.2,1.54-6.44c0.24-1.99,0.43-3.99,0.59-5.99c2.81,0.17,5.6,0.23,8.16-0.82
					C3721.71,905.13,3722.25,893.77,3715.33,889.99"/>
				<path class="st48" d="M3772.45,94.95c-2.61-1.65-5.71-1.36-8.68-1.39c-0.1-0.9-0.2-1.8-0.31-2.7c0.02-2.63-1.08-5.22-2.93-7.07
					c-5.4-5.66-15.07-2.41-16.78,4.65c-1.08,1.39-1.82,3.04-1.99,4.83c-0.7,0.4-1.35,0.9-1.93,1.52c-3.09,2.95-3.51,7.17-2.12,10.68
					c0.96,3.81,4.02,7.11,8.24,7.63c0.06,0.59,0.13,1.18,0.2,1.77c0.74,3.67,0.14,8.07,2.79,11.02c3.81,5.72,13.27,4.91,16.49-1.01
					c1.22-2.4,1.8-5.07,1.01-7.7c-0.03-0.33-0.11-0.69-0.44-3.53c4.44-0.1,9.01-1.61,10.53-6.2
					C3778.74,103.03,3776.59,97.4,3772.45,94.95"/>
			</g>
			<g class="st2">
				<defs>
					<rect id="SVGID_101_" x="0" y="0" width="3840" height="2160"/>
				</defs>
				<clipPath id="SVGID_102_">
					<use xlink:href="#SVGID_101_"  style="overflow:visible;"/>
				</clipPath>
			</g>
			<g class="st2">
				<defs>
					<rect id="SVGID_103_" x="0" y="0" width="3840" height="2160"/>
				</defs>
				<clipPath id="SVGID_104_">
					<use xlink:href="#SVGID_103_"  style="overflow:visible;"/>
				</clipPath>
				<path class="st49" d="M3250.81,1733.1c-13.18,0.33-13.15,19.64,0,20C3264,1752.77,3263.96,1733.46,3250.81,1733.1"/>
				<path class="st49" d="M3437.05,1253.39c-13.18,0.33-13.15,19.64,0,20C3450.23,1273.06,3450.2,1253.75,3437.05,1253.39"/>
				<path class="st49" d="M2590.51,1417.05c-13.18,0.33-13.15,19.64,0,20C2603.69,1436.73,2603.65,1417.42,2590.51,1417.05"/>
				<path class="st49" d="M2754.17,926.06c-13.18,0.33-13.15,19.64,0,20C2767.36,945.73,2767.32,926.42,2754.17,926.06"/>
				<path class="st49" d="M3566.86,711.6c-13.18,0.33-13.15,19.64,0,20C3580.04,731.27,3580,711.96,3566.86,711.6"/>
				<path class="st49" d="M2669.52,344.77c-13.18,0.33-13.15,19.64,0,20C2682.7,364.44,2682.67,345.13,2669.52,344.77"/>
				<path class="st49" d="M1981,931.7c-13.18,0.33-13.15,19.64,0,20C1994.18,951.38,1994.14,932.07,1981,931.7"/>
				<path class="st49" d="M2686.45,1247.75c-13.18,0.33-13.15,19.64,0,20C2699.63,1267.42,2699.6,1248.11,2686.45,1247.75"/>
				<path class="st49" d="M1992.28,1806.46c-13.18,0.33-13.15,19.64,0,20C2005.47,1826.14,2005.43,1806.83,1992.28,1806.46"/>
				<path class="st49" d="M1540.79,1812.11c-13.18,0.33-13.15,19.64,0,20C1553.97,1831.78,1553.94,1812.47,1540.79,1812.11"/>
				<path class="st49" d="M1315.05,1366.26c-13.18,0.33-13.15,19.64,0,20C1328.23,1385.94,1328.19,1366.63,1315.05,1366.26"/>
				<path class="st49" d="M908.71,1400.12c-13.18,0.33-13.15,19.64,0,20C921.89,1419.8,921.85,1400.49,908.71,1400.12"/>
				<path class="st49" d="M434.64,965.56c-13.18,0.33-13.15,19.64,0,20C447.82,985.24,447.79,965.93,434.64,965.56"/>
				<path class="st49" d="M208.9,1191.31c-13.18,0.33-13.15,19.64,0,20C222.08,1210.98,222.04,1191.67,208.9,1191.31"/>
				<path class="st49" d="M180.68,632.59c-13.18,0.33-13.15,19.64,0,20C193.86,652.26,193.82,632.95,180.68,632.59"/>
				<path class="st49" d="M191.96,265.75c-13.18,0.33-13.15,19.64,0,20C205.15,285.43,205.11,266.12,191.96,265.75"/>
				<path class="st49" d="M767.62,85.16c-13.18,0.33-13.15,19.64,0,20C780.8,104.83,780.76,85.52,767.62,85.16"/>
				<path class="st49" d="M502.36,649.52c-13.18,0.33-13.15,19.64,0,20C515.55,669.19,515.51,649.88,502.36,649.52"/>
				<path class="st49" d="M1298.12,525.36c-13.18,0.33-13.15,19.64,0,20C1311.3,545.03,1311.26,525.72,1298.12,525.36"/>
				<path class="st49" d="M2212.38,231.89c-13.18,0.33-13.15,19.64,0,20C2225.57,251.56,2225.53,232.25,2212.38,231.89"/>
				<path class="st49" d="M1467.42,892.2c-13.18,0.33-13.15,19.64,0,20C1480.61,911.87,1480.57,892.56,1467.42,892.2"/>
				<path class="st49" d="M925.64,773.68c-13.18,0.33-13.15,19.64,0,20C938.82,793.35,938.78,774.04,925.64,773.68"/>
				<path class="st49" d="M1619.8,186.74c-13.18,0.33-13.15,19.64,0,20C1632.98,206.42,1632.95,187.11,1619.8,186.74"/>
				<path class="st49" d="M2443.77,1050.22c-13.18,0.33-13.15,19.64,0,20C2456.96,1069.89,2456.92,1050.58,2443.77,1050.22"/>
				<path class="st49" d="M1958.42,1366.26c-13.18,0.33-13.15,19.64,0,20C1971.6,1385.94,1971.57,1366.63,1958.42,1366.26"/>
				<path class="st49" d="M3341.11,1428.34c-13.18,0.33-13.15,19.64,0,20C3354.29,1448.02,3354.26,1428.71,3341.11,1428.34"/>
				<path class="st49" d="M3617.65,1981.42c-13.18,0.33-13.15,19.64,0,20C3630.83,2001.09,3630.79,1981.78,3617.65,1981.42"/>
				<path class="st49" d="M2850.12,2116.87c-13.18,0.33-13.15,19.64,0,20C2863.3,2136.54,2863.26,2117.23,2850.12,2116.87"/>
				<path class="st49" d="M1743.96,2111.22c-13.18,0.33-13.15,19.64,0,20C1757.14,2130.89,1757.11,2111.58,1743.96,2111.22"/>
				<path class="st49" d="M2652.59,1783.89c-13.18,0.33-13.15,19.64,0,20C2665.77,1803.56,2665.73,1784.25,2652.59,1783.89"/>
				<path class="st49" d="M2049.88,618.96c-0.42-0.01-0.84,0-1.26,0c-0.05-0.86-0.1-1.73-0.15-2.59c-0.25-5.02-0.5-10.03-0.75-15.05
					c0.05-1.38-0.23-2.66-0.86-3.85c-3.91-10.02-19.19-6.87-19.14,3.85c0.33,6.39,0.63,12.78,0.98,19.17
					c-1.25,0.13-2.5,0.24-3.75,0.34c-4.97,0.83-10.94-0.27-14.77,3.67c-6.27,5.99-1.61,17.26,7.07,17.07
					c4.28-0.36,8.56-0.82,12.84-1.26c0,0.05,0.01,0.11,0.01,0.16c0.81,5.25,0.43,11.11,2.12,16.09c3.91,10.03,19.19,6.87,19.14-3.85
					c-0.54-4.54-0.97-9.1-1.36-13.66C2062.46,638.07,2063.86,620.25,2049.88,618.96"/>
				<path class="st49" d="M536.15,263.61c-0.2-1.56-0.39-3.13-0.59-4.69c-0.54-4.31-1.09-8.63-1.64-12.95
					c0.02-2.63-1.07-5.22-2.93-7.07c-5.98-6.27-17.26-1.62-17.07,7.07c0.94,7.43,1.88,14.86,2.81,22.3
					c-0.51,0.1-1.01,0.22-1.52,0.31c-4.13,1.2-9.11,0.83-12.55,3.63c-8.74,6.4-1.67,20.39,8.72,17.5c2.59-0.52,5.18-1.04,7.77-1.56
					c0.37,3.27,0.73,6.55,1.13,9.82c-0.02,3.86,2.42,7.88,6.15,9.14c4.41,2.19,10.04,0.04,12.49-4.09
					c2.64-4.39,0.47-9.61,0.29-14.36c-0.19-1.67-0.4-3.33-0.6-4.99c3.27-0.86,6.46-2.05,8.15-5.21
					C551.21,271.2,544.25,261.82,536.15,263.61"/>
				<path class="st49" d="M1113.33,1212.65c-2.4-1.22-5.07-1.8-7.71-1.01c-7.12,1.02-3.86,0.55-8.16,1.13
					c-0.31,0.04-0.62,0.06-0.93,0.1c-0.01-0.17-0.03-0.34-0.04-0.52c-0.77-5.11,0.46-11.25-3.58-15.2
					c-5.98-6.27-17.26-1.61-17.07,7.07c0.28,3.54,0.56,7.08,0.85,10.62c-3.4,0.26-6.96-0.01-10.07,1.3
					c-10.03,3.91-6.87,19.19,3.85,19.14c2.6-0.18,5.2-0.4,7.8-0.61l0.19,2.39c0.32,13.17,19.64,13.15,20,0
					c-0.12-1.47-0.23-2.94-0.35-4.41c4.28-0.52,8.56-1.08,12.83-1.74C1119.33,1228.82,1120.87,1216.86,1113.33,1212.65"/>
				<path class="st49" d="M3156.68,1931.17c-2.71-1.74-5.91-1.36-8.96-1.06c-1.81,0.12-3.62,0.21-5.43,0.31
					c-0.01-0.96-0.02-1.92-0.04-2.88c0.05-1.38-0.23-2.66-0.86-3.85c-3.91-10.03-19.18-6.87-19.14,3.85
					c0.02,1.23,0.03,2.45,0.05,3.68c-4.15,0.33-8.64-0.54-12.5,1.08c-10.03,3.91-6.87,19.19,3.85,19.14
					c3.03-0.09,6.06-0.17,9.1-0.25c0.11,2.47,0.24,4.93,0.41,7.39c0.58,3.96,0.03,8.3,1.56,12.02c2.63,7.57,13.99,8.11,17.77,1.19
					c2.01-3.1,1.16-6.75,0.91-10.19c-0.31-3.73-0.5-7.46-0.67-11.2c0.17-0.01,0.34-0.02,0.51-0.03c4.04-0.53,8.47,0.12,12.26-1.45
					C3163.05,1946.32,3163.59,1934.95,3156.68,1931.17"/>
				<path class="st49" d="M2304.31,1672.37c-2.99-0.95-5.9,0.09-8.62,1.33c-0.05,0.02-0.1,0.03-0.15,0.05
					c-0.02-3.06,0.12-6.17-1.06-8.95c-3.92-10.03-19.19-6.87-19.14,3.85c0.16,3.57,0.31,7.14,0.46,10.71
					c-1.71,0.44-3.42,0.87-5.13,1.31c-4.35,1.49-9.56,1.48-13.28,4.31c-8.74,6.4-1.67,20.39,8.72,17.5
					c3.46-0.89,6.92-1.76,10.37-2.64c-0.04,2.91-0.24,5.89,0.95,8.51c2.63,7.57,13.99,8.11,17.77,1.19
					c2.24-4.36,1.28-9.9,1.06-14.98c4.01-1.17,8.02-2.49,11.46-4.71C2314.36,1685.38,2311.97,1674.25,2304.31,1672.37"/>
				<path class="st49" d="M3007.66,404.84c-2.66-0.49-5.32-0.97-7.97-1.45c0.65-4.75,1.31-9.49,1.96-14.24
					c3.17-12.78-15.42-17.9-19.28-5.32c-0.74,5.38-1.48,10.76-2.22,16.13c-3.97-0.8-8.06-1.88-11.68,0.33
					c-7.53,4.18-5.97,16.16,2.39,18.28c2.19,0.36,4.39,0.76,6.58,1.13c-0.19,1.41-0.39,2.81-0.58,4.22
					c-0.49,3.53-0.97,7.05-1.46,10.58c-0.71,2.57-0.34,5.41,1.01,7.71c2.6,4.67,9.12,6.36,13.68,3.59c2.16-1.45,3.95-3.39,4.6-5.98
					l2.29-16.66c1.79,0.33,3.58,0.64,5.38,0.97C3015.13,427.3,3020.24,408.7,3007.66,404.84"/>
			</g>
		</g>
	</g>
</g>
</svg>
