<?xml version="1.0" encoding="utf-8"?>
<!-- Generator: Adobe Adobe Illustrator 24.2.0, SVG Export Plug-In . SVG Version: 6.00 Build 0)  -->
<svg version="1.1" xmlns="http://www.w3.org/2000/svg" xmlns:xlink="http://www.w3.org/1999/xlink" x="0px" y="0px"
	 viewBox="0 0 1920 300" style="enable-background:new 0 0 1920 1080;" xml:space="preserve">
<style type="text/css">
	.st0{display:none;}
	.st1{display:inline;fill:#FFD7EA;stroke:#FBE6F2;stroke-miterlimit:10;}
	.st2{display:inline;fill:#FFD1E0;}
	.st3{fill:#D9978E;}
	.st4{fill:#D4BADB;}
	.st5{display:inline;fill:#D4BADB;}
	.st6{opacity:0.502;fill:#BBA1CE;}
	.st7{fill:#E0ACD4;}
	.st8{fill:#D4A7CE;}
	.st9{fill:#BAE3EE;}
	.st10{fill:#99D7E7;}
	.st11{fill:#F2B991;}
	.st12{fill:#F1B991;}
	.st13{fill:#F4B991;}
	.st14{opacity:0.2588;}
	.st15{opacity:0.749;fill:#F5806D;}
	.st16{display:inline;fill:#5F2B75;}
	.st17{fill:#602771;}
	.st18{fill:#6B2C7D;}
	.st19{display:inline;fill:#F9CC6C;}
	.st20{fill:#F99A82;}
	.st21{fill:#FFFFFF;}
	.st22{display:inline;fill:#F3CC6C;}
	.st23{display:inline;fill:#EFCC6C;}
	.st24{display:inline;fill:#F7FCFD;}
	.st25{fill:#F5DD8D;}
</style>
<g id="Layer_5" class="st0">
	<rect class="st1" width="1920" height="1080"/>
</g>
<g id="Layer_28" class="st0">
	<path class="st2" d="M431.02,901.18c-2.13-5.79-4.45-11.51-7.12-17.07c-0.99-2.04-2.05-4.05-3.19-6.01
		c1.33-1.35,2.2-3.23,2.24-5.54c0.04-1.37-0.39-2.59-0.95-3.79c-0.57-1.55-1.02-3.14-1.31-4.76c-0.01-0.09-0.02-0.18-0.03-0.27
		c-0.19-2.44-0.04-4.89,0.26-7.31c0.67-4.66,1.54-9.28,2.1-13.95c0.84-6.61,1.29-13.27,1.27-19.93c0.01-8.13-0.84-16.23-1.96-24.27
		c-1.12-9.03-3.17-17.98-6.81-26.34c-3.92-10.05-9.71-19.23-16.1-27.88c-4.83-6.48-10.03-12.69-14.36-19.53
		c-5.14-7.95-8.65-16.8-13.35-25c-8.3-13.87-17.41-27.3-27.33-40.07c-3.37-4.26-7.52-7.79-11.72-11.21
		c-4.74-3.79-9.65-7.45-15.11-10.15c-12.76-6.26-27.47-6.76-41.43-6.02c-6.68,0.32-13.47,0.7-19.76,3.17
		c-1.77,0.76-3.85,1.03-5.29,2.37c-6.97,5.2-1.39,16.25,6.97,14c9.67-3.52,8.9-2.95,18.08-3.54c6.87-0.4,13.78-0.49,20.62,0.4
		c0.19,0.02,0.38,0.05,0.58,0.07c0.43,0.06,0.87,0.12,1.3,0.19c3.42,0.6,6.8,1.49,10.03,2.78c4.2,1.97,8.09,4.54,11.79,7.33
		c3.75,3.02,7.51,6.09,10.72,9.69c4.23,4.75,9.72,12.98,16.12,22.32c4.46,6.73,8.98,13.44,12.71,20.61
		c3.89,7.32,7.14,15,11.75,21.91c5.02,7.78,11.14,14.76,16.45,22.33c5.21,6.94,12.09,20,12.51,21.98c4.2,9.6,6.01,22.61,6.42,26.84
		c1.37,10.92,1.53,21.98,0.45,32.93c-0.43,6.35-1.92,11.06-2.84,20.93c-0.3-0.26-0.58-0.54-0.88-0.8c-0.93-0.77-1.73-1.77-2.92-2.11
		c-5.92-2.68-11.15,5.16-6.55,9.73c10.09,8.88,13.8,14.06,19.91,26.57c2.39,5.27,1.85,4.05,4.29,10.29c0.92,2.92,2.28,6.42,5.84,6.6
		C428.5,909.49,432.24,905.09,431.02,901.18z"/>
	<path class="st2" d="M403.45,1036.95c-0.6-2.18-2.53-3.58-3.9-5.28c-1.77-1.95-3.53-3.92-5.4-5.77c-1.28-1.4-2.99-2.31-4.75-2.61
		c0.01-1.01,0.03-2.02,0.07-3.02c0.01-1.61,0.41-3.36-0.41-4.83c-2.35-6.02-11.51-4.12-11.48,2.31c-0.29,5.36-0.38,10.81,1.03,16.03
		c0.75,2.57,1.41,5.33,3.18,7.4c2.69,2.87,7.34,2.35,9.73-0.52c0.05,0.06,0.1,0.11,0.15,0.17c1.13,1.16,2.06,2.72,3.69,3.2
		C399.71,1046.21,404.85,1041.54,403.45,1036.95z"/>
	<path class="st2" d="M661.72,865.93c-3.17-8-15.3-5.55-15.31,3.08c-2.35,17.43-3.13,35.02-4.57,52.54
		c-2.62,25.69-4.53,51.44-7.11,77.13c-1.07,9.42-2.42,18.82-3.39,28.25c-0.28,2.66-0.54,5.32-0.75,7.98
		c-0.11,1.31-0.21,2.62-0.3,3.93c-0.02,3.09,1.94,6.3,4.92,7.31c4.94,2.45,11.27-1.85,11.08-7.31c0.36-5.35,0.91-10.69,1.49-16.02
		c1.8-14.91,3.84-29.8,4.89-44.79c1.58-19.59,3.58-39.13,5.36-58.7c1.14-14.77,1.91-29.57,3.62-44.29
		C661.79,872.04,663.18,868.77,661.72,865.93z"/>
</g>
<g id="Layer_4">
	<path class="st3" d="M311.27,810.66c-1.51-4.51-6.3-7.41-10.98-7.39c-2.87,0.14-5.6,1.16-8.41,1.72c-1.13,0.13-2.26,0.22-3.4,0.26
		c-11.21-0.29-5.84,0.17-16.24-2.44c-7.26-3-15.12-0.26-17.45,7.57c-1.43,5.24,1.03,10.95,5.61,13.6c-0.12,0.69-0.2,1.39-0.19,2.08
		c0.01,6.45,5.49,12.1,12,12c10.08-0.43,19.67-4.08,28.39-8.98c3.65-2.12,7.78-4.01,10.05-7.74c0.4-0.96,0.81-1.91,1.21-2.87
		C312.6,815.91,312.41,813.04,311.27,810.66z"/>
</g>
<g id="Layer_6">
	<path class="st4" d="M432.29,940.73c-0.96-10.19-3.56-20.14-6.21-30.01c-2.82-11-10.15-20.01-16.88-28.9
		c-8.21-10.78-16.94-21.24-27.46-29.85c-7.84-6.66-15.38-13.74-23.89-19.55c-6.77-4.63-14.1-8.34-21.6-11.6
		c-2.48-1.02-5.15-2.24-7.87-3.05c-0.54-0.98-1.21-1.89-1.99-2.66c-4.55-4.56-12.45-4.66-16.97,0c-1.65,2.02-3.35,4.02-5.39,5.67
		c-1.45,1.04-2.96,1.99-4.48,2.92c-1.52-0.6-3.17-0.94-4.9-0.94c-3.82,0.32-7.66-0.32-11.47-0.64c-4.69-0.66-2.76,0.06-12.49-2.09
		c-4.2-1.05-8.25-2.63-12.52-3.4c-9.72-1.73-19.67-1.88-29.41-0.29c-7.6,1.01-14.95,3.25-22.3,5.34
		c-7.56,2.25-15.08,4.67-22.32,7.82c-14.15,5.76-27.55,13.82-38.71,24.31c-8.19,5.42-15.15,12.47-20.79,20.5
		c-4.12,5.62-7.81,11.58-10.56,18c-2.81,6.55-5.43,13.22-7.32,20.1c-1.28,5.09-2.13,10.27-2.99,15.45
		c-3.55,9.97-6.73,20.07-9.5,30.29c-5.35,16.92-9.23,35.07-6.27,52.81c1.76,7.82,4.94,15.36,8.92,22.3
		c2.63,3.78,5.4,7.52,8.73,10.71c4.38,3.87,9.27,7.42,14.85,9.38c3.99,1.62,8.27,2.14,12.52,2.56c6.17,0.58,12.35,0.9,18.53,1.34
		c8.81,0.51,17.56,1.82,26.38,2.21c8.84,0.37,17.69-0.01,26.53,0.33c8.37,0.24,16.71,1.17,25.08,1.37
		c5.12,0.02,10.23-0.56,15.31-1.18c10.37-0.96,19.37-4.41,25.22-13.41c1.19,0.33,2.43,0.52,3.68,0.66c3.17,0.45,6.34,0.85,9.52,1.11
		c12.82,1.11,25.68,1.28,38.52,0.63c12.44-0.31,24.88-0.2,37.32,0.06c7.82,0.13,16.38,2.35,23.5-1.9c2.09-1.2,3.71-3.03,4.8-5.16
		c-0.75,0.07-1.51,0.08-2.27-0.04c-0.3-0.05-0.55-0.14-0.76-0.25c-0.62,0.1-1.28-0.11-1.81-0.54c-0.72-0.57-0.93-1.53-1.02-2.4
		c-0.09-0.87-0.16-1.74-0.25-2.61c-0.23-2.11-0.26-4.23-0.62-6.32c-0.18-1.05-0.43-2.11-0.56-3.17c-0.13-1.04,0.01-2.17-0.19-3.19
		c-0.18-0.92-0.56-1.85-0.8-2.76c-0.28-1.08-0.68-2.12-1.1-3.16c-0.4-1.01,0.44-2.2,1.4-2.46c0.04-0.01,0.07-0.01,0.11-0.02
		c0.86-0.5,2.02-0.44,2.62,0.7c2.33,4.42,5.13,8.62,8.78,12.07c1.64,1.56,3.42,3,5.3,4.26c0.9,0.61,1.61,1.36,2.45,2.04
		c0.48,0.39,0.9,0.82,1.21,1.33c1.46,0.25,3.01,0.38,4.29,0.34c3.63-0.28,7.14-1.3,10.32-3.09c4.85-3.14,7.53-8.45,9.11-13.86
		c2.4-9.26,3.09-18.85,4.2-28.33c1.35-9.34,3.15-18.63,3.94-28.04C432.28,955.25,432.92,947.97,432.29,940.73z"/>
</g>
<g id="Layer_30" class="st0">
	<path class="st5" d="M662.27,964.98c-0.79-3.5-2.33-7.01-4.95-9.53c-2.21-2.07-5.16-3.05-8.08-3.64c-2.01-0.13-4.22-1.08-6.15-0.27
		c-3.06,1.18-3.03,5.04-0.95,6.78c-0.05,0.53-0.01,1.06,0.15,1.58c-0.11,1.07,0.21,2.19,1.14,3.1c0.31,0.27,0.6,0.57,0.87,0.89
		c-0.76,1.69-0.52,3.63-0.76,5.44c-0.04,0.38-0.09,0.76-0.13,1.13c-0.03,0.16-0.06,0.38-0.09,0.64c-1.67,9.33-4.51,18.41-6.51,27.68
		c-0.69,3.05-1.53,6.07-2.15,9.13c-0.13,0.73-0.26,1.53-0.33,2.33c-1.45-0.09-2.84,0.01-3.93,1.12c-2.51,2.34-0.62,6.95,2.83,6.83
		c4.63,0.28,9.41,0.42,13.98-0.51c2.63-0.79,5.05-2.25,7-4.17c1.69-1.86,2.86-4.12,3.77-6.45c2.23-5.8,3.41-11.93,4.37-18.05
		C663.67,981.08,663.87,972.9,662.27,964.98z"/>
</g>
<g id="Layer_24">
	<path class="st6" d="M279.23,826.02c-1.17,2.5-2.16,5.12-2.58,7.86c-0.06,1.01-0.53,2.13-0.06,3.09c0.93,2.5,4.84,1.69,4.78-0.96
		c0.04-0.62,0.37-2.8,1.17-5.02c0.7-2.19,0.67-1.19,1.29-3.37C284.32,824.98,280.52,823.7,279.23,826.02z"/>
	<path class="st6" d="M291.64,835.9c-0.01-0.05-0.01-0.09-0.02-0.13c-0.23-1.86-0.4-3.74-0.51-5.61c-0.14-1.06,0.16-2.22-0.27-3.21
		c-0.93-2.5-4.84-1.69-4.78,0.96c0.01,2.56,0.25,5.11,0.54,7.66c0.27,1.38,0.17,3.01,1.01,4.19c0.95,1.43,3.32,1.23,4.12-0.25
		C292.41,838.36,291.8,837.11,291.64,835.9z"/>
	<path class="st6" d="M302.31,838.41c-0.46-1.18-0.71-2.42-0.99-3.64c-0.53-1.64-0.5-3.92-1.39-5.31c-1.55-2.19-5.14-0.38-4.37,2.18
		c0.45,2.3,0.94,4.6,1.52,6.87c0.37,1.03,0.57,2.33,1.5,3.01C300.6,843.22,303.53,840.66,302.31,838.41z"/>
	<path class="st6" d="M272.26,1000.65c-0.81-1.24-2.41-1.6-3.68-2.21c-2.37-0.91-4.72-1.9-7.1-2.8c-1.3-0.36-2.56-1.33-3.94-1.17
		c-2.65,0.24-2.9,4.22-0.33,4.87c2.99,1.11,9.38,3.66,10.2,3.99c1.08,0.46,2.11,1.4,3.36,0.99
		C272.32,1003.93,273.08,1002.01,272.26,1000.65z"/>
	<path class="st6" d="M267.37,1010.39c-2.96-0.92-5.88-1.98-8.79-3.04c-1.22-0.33-2.4-1.25-3.68-1.07c-2.65,0.24-2.9,4.22-0.33,4.87
		c3.01,1.17,6.06,2.26,9.12,3.3c1.38,0.36,2.91,1.35,4.29,0.51C269.84,1013.94,269.45,1010.89,267.37,1010.39z"/>
	<path class="st6" d="M265.36,1022.73c-0.96-2.42-2.88-1.69-3.7-2.02c-1.98-0.18-3.96-0.86-5.92-0.88c-2.65,0.24-2.9,4.22-0.33,4.87
		c2.25,0.44,4.51,0.79,6.78,1.1C264.04,1026.36,265.91,1024.62,265.36,1022.73z"/>
	<path class="st6" d="M262.69,1033.69c-1.5-0.71-3.29-0.12-4.9-0.17c-2.34,0.26-4.82,0.09-7.1,0.63c-2.5,0.93-1.69,4.84,0.96,4.78
		c2.59-0.18,5.18-0.38,7.78-0.5c0.98-0.12,2.05,0.1,2.96-0.3C264.28,1037.47,264.42,1034.63,262.69,1033.69z"/>
	<path class="st6" d="M260.91,1044.21c-2.23,0.71-4.5,1.22-6.76,1.8c-1.28,0.41-2.95,0.4-3.69,1.71c-1.15,1.83,0.75,4.31,2.82,3.67
		c2.98-0.79,6.01-1.44,8.96-2.36C265.39,1048.11,264.09,1043.41,260.91,1044.21z"/>
	<path class="st6" d="M172.26,928.73c-1.06,0.48-2.1,1.02-3.1,1.64c-0.02-0.05-0.03-0.09-0.05-0.14c-1.5-3.38-6.28-1.32-4.65,2
		c0.22,0.5,0.52,0.87,0.86,1.15c-0.49,0.52-0.89,1.09-0.96,1.79c-0.41,1.99,2.03,3.55,3.72,2.49c1.73-1.59,2.59-2.75,6.71-4.61
		C177.59,931.34,175.13,927.13,172.26,928.73z"/>
	<path class="st6" d="M137.55,962.21c-0.94-1.51-2.33-1.38-3.64-0.8c-0.99-1.49-2-2.99-3.21-4.27c-2.06-1.73-5.07,0.95-3.67,3.23
		c1.08,1.45,2.16,2.89,3.14,4.41c0.66,1.09,1.5,2.37,2.94,2.3c1.32-0.01,2.4-0.9,3.54-1.44
		C137.82,964.98,138.25,963.36,137.55,962.21z"/>
	<path class="st6" d="M135.51,1019.02c-0.41,0.23-0.82,0.47-1.22,0.71c-0.02-0.03-0.02-0.07-0.04-0.1
		c-1.21-3.54-6.29-1.37-4.58,1.93c0.23,0.68,0.6,1.14,1.04,1.43c-0.31,1.94,2,3.59,3.74,2.5c1.02-0.65,2.04-1.29,3.09-1.87
		c0.75-0.36,1.43-0.93,1.64-1.77C139.83,1019.77,137.35,1017.87,135.51,1019.02z"/>
	<path class="st6" d="M396.43,889.64c-0.64-2.15-2.74-1.94-4.5-1.51c-0.56,0.11-2.21,0.36-0.86,0.17c-0.38,0.12-1.6,0.09-2.13,0.08
		c-2.52-0.61-1.21-0.55-3.94-2.17c-2.43-1.15-4.66,2.21-2.73,4.05c1.97,1.69,4.26,3.13,6.94,3.14c1.27,0.04,2.53-0.18,3.78-0.4
		c0.85-0.21,1.86-0.11,2.54-0.73C396.36,891.72,396.69,890.58,396.43,889.64z"/>
	<path class="st6" d="M399.68,967.93c-0.93-1.72-3.56-1.53-4.38,0.11c-0.04,0.04-0.06,0.06-0.11,0.11
		c-0.19,0.17-0.38,0.33-0.58,0.49c-0.17,0.13-0.39,0.25-0.56,0.34c-0.18,0.06-0.36,0.11-0.55,0.15c-0.26,0.02-0.71,0.04-0.98,0.01
		c-0.04,0-0.06-0.01-0.09-0.01c-0.16-0.03-0.3-0.07-0.39-0.1c-0.61-0.32-1.17-0.8-1.87-0.83c-2.63-0.48-3.92,3.32-1.59,4.61
		c2.85,1.94,6.93,1.79,9.5-0.56C399.4,971.29,400.66,969.6,399.68,967.93z"/>
	<path class="st6" d="M121.85,909.94c-0.24-2.65-4.22-2.9-4.87-0.33c0,0.01,0,0.01-0.01,0.02c-0.34-0.36-0.67-0.72-0.96-1.1
		c-0.73-0.84-1.5-1.87-2.74-1.82c-2.15-0.07-3.34,2.8-1.77,4.27c1.29,1.24,2.4,2.94,3.75,4.16c-0.08,0.26-0.16,0.53-0.25,0.79
		c-0.21,0.85-0.74,1.7-0.56,2.59c0.07,1.24,1.26,2.15,2.46,2.17c1.09,0.01,2.13-0.78,2.41-1.84c0.63-1.97,1.26-3.94,1.87-5.92
		C121.41,911.94,122.02,910.96,121.85,909.94z"/>
	<path class="st6" d="M223.88,1037.52c-0.23,0.23-0.45,0.47-0.68,0.7c-0.02-0.13-0.04-0.25-0.05-0.38
		c-0.23-1.19-0.27-2.63-1.47-3.27c-1.83-1.16-4.31,0.75-3.67,2.82c0.31,1.68,0.62,3.36,0.88,5.06c0.01,0.04,0.02,0.06,0.04,0.1
		c-0.55,0.54-1,1.21-0.97,2.02c-0.07,2.15,2.8,3.34,4.27,1.77c1.77-1.72,3.49-3.5,5.21-5.27c0.46-0.46,0.74-1.11,0.73-1.77
		C228.22,1037.14,225.35,1035.95,223.88,1037.52z"/>
	<path class="st6" d="M217.69,998.89c-2.3,0.04-2.98,2.43-2.06,3.9c-1.05-0.06-2.27,0.32-3.3,0.59c-0.61,0.17-1.3,0.21-1.77,0.67
		c-2.19,1.55-0.38,5.14,2.18,4.37c2.16-0.59,5.78-0.68,5.07-3.88c-0.08-0.26-0.19-0.48-0.31-0.68c0.06,0.01,0.12,0.02,0.19,0.02
		C220.98,1003.83,220.97,998.95,217.69,998.89z"/>
	<path class="st6" d="M386.58,932.08c-0.35,0.38-0.82,0.82-1.32,1.29c-0.38-0.67-1.09-1.17-2.12-1.19c-3.04,0.05-3.25,4.22-0.68,4.9
		c-0.24,0.92,0,1.83,1.14,2.65c0.95,0.57,2.26,0.4,3.03-0.39c0.38-0.5,0.78-0.98,1.2-1.45c0.83-1.1,2.19-1.83,2.79-3.08
		C391.78,932.38,388.42,930.15,386.58,932.08z"/>
	<path class="st6" d="M403.5,1012.09c-0.15,0.1-0.49,0.29-0.86,0.48c-0.03-0.26-0.07-0.51-0.2-0.74c-0.93-2.5-4.84-1.69-4.78,0.96
		c-0.02,1.89,0.17,3.77,0.45,5.64c0.13,1.09,0.34,2.32,1.4,2.88c1.83,1.16,4.31-0.75,3.67-2.82c-0.04-0.22-0.08-0.42-0.11-0.59
		c0.81-0.25,1.61-0.71,2.29-1.12C408.91,1015.44,406.92,1010.43,403.5,1012.09z"/>
	<path class="st6" d="M298.54,844.79c-2.43-0.15-2.11,0.38-3.63,0.31c-6.23,0.45-9.2-0.42-15.49-1.79
		c-3.17-0.82-4.48,3.88-1.33,4.82c5.49,1.25,11.07,2.49,16.74,1.97c1.75-0.25,4.14,0.05,5.21-1.64
		C300.88,847.1,300.08,845.19,298.54,844.79z"/>
</g>
<g id="Layer_25">
	<path class="st7" d="M337.25,894.28c-1.24-2.3-4.36-2.31-6.56-1.57c-1.88,0.68-3.35,2.1-4.76,3.47c-0.52,0.53-1.01,1.08-1.48,1.65
		c-0.43,0.44-0.88,0.92-1.32,1.45c-1.49-1.91-3.16-3.67-5.43-4.6c-2.32-0.86-5.55,0.08-6.17,2.7c-0.61,3.06,1.62,5.91,3.92,7.67
		c2.87,2.09,3.01,2.41,5.98,4.4c1.26,0.74,2.47,2.05,4.05,1.59c1.29-0.43,2.07-1.62,2.98-2.56c1.17-1.28,2.38-2.52,3.62-3.73
		C334.47,901.95,338.94,898.38,337.25,894.28z"/>
	<path class="st7" d="M225.44,965.31c-2.28-0.9-4.54,0.72-6.29,2.06c-0.02,0.01-0.03,0.03-0.05,0.04c-0.42-0.42-0.99-0.7-1.7-0.68
		c-1.63-0.1-3.39-0.39-4.94,0.27c-2.01,0.73-2.64,3.29-1.44,4.99c0.98,1.58,2.72,2.37,4.31,3.2c0.82,0.42,1.63,1.04,2.5,1.32
		c2.65,0.45,4.68-2,6.55-3.53c1.12-1.1,2.26-2.29,2.81-3.78C227.73,967.69,226.98,965.86,225.44,965.31z"/>
	<path class="st7" d="M250.69,878.78c-1.65-2.13-4.21-0.43-5.78,0.89c-0.7,0.38-1.09,1.04-1.19,1.74c-0.27-0.26-0.61-0.46-1.04-0.57
		c-2.17-0.55-4.61-1.02-6.71-0.01c-1.55,0.88-2.16,2.94-1.28,4.5c1.28,2.01,3.58,3.13,5.71,4.02c4.4,1.61,5.2,0.83,7.61-2.91
		c0.83-1.29,1.62-2.61,2.41-3.93C251.2,881.47,251.63,879.88,250.69,878.78z"/>
	<path class="st7" d="M120.88,985.53c-2.65-1.41-4.48,1.59-5.78,3.45c-0.3,0.41-0.65,0.85-0.96,1.32c-1.56-0.26-3.16-0.78-4.72-0.46
		c-1.73,0.41-2.57,2.46-1.56,3.95c1.46,1.95,4.43,2.1,6.66,2.54c4.02,0.87,5.02-0.14,6.4-3.84
		C121.56,990.34,123.29,987.11,120.88,985.53z"/>
	<path class="st7" d="M368.14,1022.59c-1.25,1.03-2.71,2.08-3.48,3.52c-0.15,0.3-0.22,0.62-0.22,0.93
		c-2.95,1.47-2.71,5.23,0.09,7.22c2.81,2.43,4.79-0.92,6.02-3.19c1.07-2.16,2.39-4.37,2.76-6.77
		C373.18,1021.57,369.97,1020.94,368.14,1022.59z"/>
</g>
<g id="Layer_8">
</g>
<g id="Layer_10">
</g>
<g id="Layer_14">
	<path class="st8" d="M266.85,996.11c-0.97-0.95-2.39-1.14-3.6-1.65c-3.59-1.27-7.17-2.57-10.87-3.49
		c-11.11-2.76-22.4-4.73-33.66-6.79c-11.36-2.09-22.73-4.43-34.21-5.73c3.58-7.23,6.56-14.77,9.08-22.42
		c2.25-7.27,3.76-14.74,5.54-22.13c0.96-4.18,1.89-8.37,2.79-12.56c0.28-1.62,1.08-3.38,0.12-4.92c-1.43-2.62-5.69-2.08-6.4,0.84
		c-2.72,12.27-5.23,24.63-8.73,36.71c-3.11,9.4-5.31,14.73-9.3,22.73c-0.19,0.41-0.43,0.81-0.67,1.22
		c-3.4-0.12-6.81-0.09-10.19,0.41c-1.91,0.41-4.16,0.25-5.79,1.4c-3.05,2.21-0.58,7.16,3.05,6.12c10.97-2.33,23.35-0.24,36.38,2.06
		c13.46,2.45,26.95,4.78,40.34,7.61c5.13,1.01,10.25,2.17,15.23,3.79c1.99,0.69,3.96,1.4,5.95,2.09c1.7,0.83,4.03,1.11,5.22-0.69
		C268.25,999.4,268.04,997.31,266.85,996.11z"/>
	<path class="st8" d="M383.86,1009.5c-1.92-4.06-2.82-5.57-3.08-6.5c-2.7-6.39-4.51-13.1-5.42-19.98
		c-0.48-3.86-2.1-18.33-2.69-25.78c-0.83-7.91-1.26-15.9-3.33-23.61c-1.79-7.96-8.5-16.12-11.55-20.27
		c-1.02-1.5-2.07-2.98-3.16-4.42c-0.46-0.78-1.22-1.37-2.09-1.61c-2.89-0.89-5.57,2.56-3.95,5.14c5.01,7.31,8.39,10.44,12.49,18.52
		c4.47,10.86,4.29,28.58,6.42,44.34c0.96,9.74,2.29,19.54,6.18,28.6c1.4,3.54,1.55,3.94,3.66,7.98c0.03,0.07,0.07,0.14,0.11,0.21
		c0,0,0,0,0,0.01c0,0,0,0,0,0c0.3,0.55,0.75,1.02,1.29,1.34C381.29,1015.06,384.77,1012.41,383.86,1009.5z"/>
</g>
<g id="Layer_9">
	<path class="st9" d="M649.63,861.71c-2.11-0.36-4.55-0.21-6.54-0.31c-5.77-0.11-11.54-0.04-17.3,0.04
		c-44.06,0.81-88.11,1.46-132.18,1.26c-19.24-0.03-38.48-0.5-57.72-1.09c-2.52-0.27-5.55,0.03-6.73,2.53
		c-1.18,0.84-2.01,2.19-2,3.96c-3.31,53.63-12.04,100.49-18.88,154.41c-0.89,6.77-1.72,13.55-2.62,20.32
		c0.07,1.01-0.49,2.5-0.63,4.1c-1.29,3.05,0.9,7.07,4.59,6.99c35.49-1.28,70.99-1.55,106.5-1.54c28.52-0.04,57.03-0.53,85.54-0.7
		c6.73-0.03,13.45-0.05,20.18-0.02c1.75-0.13,3.63,0.26,5.35-0.07c2.3,0.14,4.59-1.34,5.19-3.65c0.38-1.48,0.75-2.96,1.15-4.44
		c1.03-3.89,2.04-7.78,2.58-11.77c3.32-21.27,5.99-41.15,8.41-59.31c3.26-24.27,6.3-48.59,8.14-73.01
		c0.73-10.86,2.07-27.07,2.28-33.43C654.63,863.01,652.08,861.54,649.63,861.71z M602.27,1006.76c0.4-0.34,0.8-0.67,1.19-1.02
		c-0.06,0.32-0.13,0.63-0.19,0.95C602.94,1006.72,602.6,1006.73,602.27,1006.76z"/>
</g>
<g id="Layer_11">
	<path class="st10" d="M421.78,868.19c-5.51,43.28-14.13,108.73-20.17,159.59c-0.49,3.75-1,7.5-1.59,11.23
		c-0.11,0.61-0.23,1.24-0.33,1.9c-3.91,0.03-7.81,0.07-11.72,0.16c-14.64,0.43-29.28-0.01-43.93,0.01
		c-18.88-0.04-37.75,0.24-56.63,0.36c-5.05,0.06-10.09,0.13-15.14,0.2c-0.41,2.06-1.46,4.13-3.36,6.02c-0.01,0.01-0.1,0.1-0.23,0.23
		c-0.08,0.12-0.17,0.24-0.25,0.36c-0.21,0.31-0.43,0.62-0.65,0.92c-0.06,0.08-0.12,0.16-0.18,0.24c-0.52,0.69-1.06,1.38-1.62,2.07
		c-0.07,0.08-0.15,0.15-0.22,0.23c35.56-0.4,71.12-0.87,106.68-0.45c7.75,0,15.51-0.21,23.26-0.31c1.84-0.02,3.68-0.03,5.52-0.04
		c0.25,0.28,0.52,0.56,0.84,0.81c1.35,0.44,2.31,0.02,3.01-0.83c1.47-0.14,2.52-0.77,2.86-3.09c0.35-1.43,0.34-3.96-0.54-5.54
		c0.78-5,1.42-10.02,2.06-15.04c4.59-39.27,9.76-78.47,14.83-117.69c1.45-13.8,3.92-27.5,5.03-41.33
		C429.2,858.49,421.96,858.14,421.78,868.19z"/>
</g>
<g id="Layer_7">
</g>
<g id="Layer_3">
</g>
<g id="Layer_13">
	<path class="st11" d="M364.4,994.06c-1.62-1.57-3.85-2.21-6.07-2.12c-2.2-0.08-4.39-0.17-6.59-0.03c-2.38,0.11-9.71-0.05-9.59-0.05
		c-0.33-0.06-0.65-0.15-0.96-0.26c-0.04-0.02-0.08-0.05-0.12-0.07c-0.05-0.05-0.1-0.09-0.15-0.14c0.02-0.03,0.03-0.06,0.05-0.08
		c0.03-0.03,0.06-0.06,0.1-0.11c1.92-1.01,1.54-0.54,4.1-0.97c2.18-0.26,4.37-0.47,6.56-0.47c2.62,0.05,5.52-0.37,7.34-2.45
		c2.07-2.28,1.29-6.18-1.49-7.5c-1.62-0.82-3.44-1.03-5.23-1.1c-3.04-0.33-6.1-0.27-9.15-0.23c-6.15-0.03-12.36,0.14-18.41,1.36
		c-7.54,1.61-14.59,4.93-21.45,8.37c-3.44,1.91-7.1,3.39-10.45,5.45c-3.59,2.13-6.89,4.75-10.75,6.4c-1.23,0.51-2.36,1.22-3.56,1.79
		c-1.39,0.65-3.04,0.79-4.31,1.62c-0.36,0.26-0.6,0.57-0.76,0.91c-0.19,0.17-0.36,0.35-0.49,0.58c-0.05,0.07-0.07,0.15-0.1,0.23
		c-1.31,2.11-0.77,5.08-0.49,7.43c0.27,0.69-0.13,7.84-0.04,10.96c-0.29,4.2-0.24,3.31-1.44,8.44c-0.19,0.67-0.37,1.34-0.55,2.01
		c-0.18,0.55-0.37,1.1-0.56,1.64c-0.9,2.79-3.24,6.94,1.07,7.97c0.2,0.03,0.41,0.04,0.61,0.06c0.4-0.23,0.86-0.43,1.39-0.56
		c5.58-1.4,11.91-0.57,17.61-0.8c2.52-0.1,4.96-0.26,7.4-0.35c0.9-0.65,2.02-1.02,3.08-1.03c0.36,0,0.71,0.03,1.07-0.02l-0.19,0.03
		c0.4-0.01,0.79,0,1.2,0.01c0.21-0.03,0.43-0.06,0.66-0.08c0.36-0.05,0.71-0.1,1.07-0.12c0.61-0.04,1.18,0.06,1.7,0.25
		c1.2-0.69,2.15-1.46,2.55-1.8c3.12-2.21,6.31-4.34,9.45-6.52c2.03-1.59,7.11-4.41,7.41-4.41c3.77-1.68,9.79-2.97,11.76-3.17
		c3.66-0.32,7.34,0.17,10.97-0.54c2.54-0.48,5.36-1.29,6.95-3.47c1.44-2.06,1.37-4.22,0.24-5.87c0.52-0.03,1.04-0.08,1.56-0.18
		c1.4-0.45,2.77-1.05,4-1.86c2.56-1.73,3.63-6.04,1.4-8.43c-0.79-0.89-1.79-1.49-2.87-1.95c0.05-0.01,0.1-0.01,0.16-0.02
		C364.69,1002.18,368.21,998.09,364.4,994.06z"/>
</g>
<g id="Layer_29">
	<path class="st12" d="M653.9,958.27c1.04-1.77,0.83-4.32-1.33-5.55c-4.94-3.07-10.97-5.34-16.84-4.09
		c-6.03,1.61-9.32,7.8-4.27,12.57c0.72,0.64,1.5,1.19,2.32,1.67c-0.79,0.43-1.52,0.94-2.16,1.6c-2.89,3.46-2.41,6.76-0.37,9.39
		c-3.6,1.34-6.11,3.98-5.16,9.07c0.42,1.6,1.27,2.92,2.36,4.05c-0.34,0.23-0.68,0.49-0.99,0.77c-1.96,1.86-3,4.8-2.5,7.48
		c0.89,4.64,5.27,7.63,9.45,9.18c10.98,3.62,14.48-15.78,16.15-23.26c0.97-4.92,2.09-9.81,3.05-14.74c0.34-2.62,1.26-5.47,0.36-8.04
		C653.93,958.33,653.91,958.3,653.9,958.27z"/>
</g>
<g id="Layer_12">
	<path class="st13" d="M332.97,730.71c-0.49-2.89-1.27-5.73-2.48-8.44c-0.64-1.22-1.39-2.35-2.21-3.42
		c-0.28-0.63-0.58-1.24-0.91-1.85c-2.69-4.79-6.05-9.35-10.34-12.82c-0.98-0.8-1.99-1.56-3.02-2.29c-0.56-1.48-1.76-2.72-3.84-3.36
		c-0.59-0.1-1.18-0.13-1.76-0.12c-1.55-0.86-3.12-1.67-4.73-2.4c-2.97-1.24-5.78-3.15-8.93-3.83c-2.09-1.8-5.1-2.79-7.43-0.86
		c-1.74,1.16-1.99,3.32-2.38,5.2c-0.26,1.07-0.5,2.04-0.73,2.94c-0.73,0.89-1.46,1.77-2.21,2.65c-6.39,7.6-13.07,14.93-19.86,22.17
		c-1.5,1.61-3.04,3.2-4.57,4.79c-3.25,1.73-6.52,3.41-9.34,5.8c-6.34,5.48-10,13.71-10.14,22.06c0.11,3.48,0.85,6.82,2.01,10.02
		c-0.06,0.29-0.1,0.58-0.11,0.88c0.07,1.85,1.04,3.79,2.61,4.75c0.27,0.5,0.54,1,0.82,1.5c-0.1,0.14-0.21,0.28-0.32,0.43
		c-2.91,4.49,0.62,10.16,5.99,8.83c0.15-0.05,0.29-0.12,0.44-0.17c0.2,0.27,0.41,0.53,0.62,0.79c1.15,1.55,2.26,3.12,3.38,4.69
		c-0.11,0.67-0.08,1.35,0.13,2.03c0.91,4.28,4.54,6.55,8.39,8.25c1.22,1.2,2.62,1.66,3.94,1.6c0.34,0.13,0.67,0.27,0.99,0.4
		c6.11,2.62,12.6,4.07,19.25,4.32c6.31,0.35,12.94,0.46,18.92-1.84c2.04-0.76,4.27-1.77,4.81-4.09c0.38-1.29,0.15-2.67-0.5-3.81
		c3.06-2.74,6-5.62,8.41-8.97c1.17-1.66,2.22-3.4,3.2-5.18c0.35-0.45,0.72-0.9,1.06-1.36c5.08-7.32,9.61-15.15,12.54-23.59
		c1.11-3.72,2.55-7.48,2.53-11.4C336.69,740.02,334.85,735.33,332.97,730.71z"/>
</g>
<g id="Layer_15">
	<path class="st14" d="M323.44,731.18c-1.11-0.1-1.96,1.02-2.95,1.43c-3.53,1.99-6.38,3.21-9.98,3.34
		c-2.61,0.09-5.21-0.24-7.81-0.36c-0.38-0.05-0.8-0.03-1.08,0.27c-0.63,0.59-0.16,1.74,0.71,1.71c4.23,0.22,8.54,0.88,12.69-0.31
		c2.35-0.72,4.58-1.84,6.71-3.06c0.77-0.59,1.98-0.88,2.4-1.79C324.29,731.9,323.96,731.31,323.44,731.18z"/>
	<path class="st14" d="M281.71,738.85c-0.99,0.54-0.71,0.62-1.63,1.15c-3.57,2.24-8.62,3.28-11.95,2.92
		c-3.45-0.58-6.69-1.9-9.98-3.01c-1.25-0.34-1.79,1.57-0.53,1.93c4.05,1.29,8.09,3.23,12.41,3.17c4.46-0.45,9.68-1.45,12.87-4.81
		C283.25,739.48,282.47,738.62,281.71,738.85z"/>
</g>
<g id="Layer_16">
	<path class="st15" d="M338.8,744.72c-1.27-4.78-5.12-7.2-9.11-6.28c-3.95-0.34-8.07,1.05-11.06,3.66
		c-3.95,3.81-5.39,9.99-3.83,15.21c3.7,9.99,17.13,12.62,22.65,2.68C339.96,755.33,340.46,749.73,338.8,744.72z"/>
	<path class="st15" d="M269.4,756.02c-0.04-0.16-0.07-0.31-0.11-0.47c-0.29-0.89-0.69-1.75-1.18-2.56c0.02-2.16-1.25-4.35-3.62-4.95
		c-4.99-1.93-9.96-0.57-13.37,2.55c-2.51,2.13-4.2,5.18-4.3,8.35c-0.17,1.46-0.11,2.99,0.25,4.55c1.92,8.07,12.22,10.82,18.28,5.47
		c1.63-1.54,2.86-3.49,3.61-5.6C269.97,761.05,270.15,758.41,269.4,756.02z"/>
	<path class="st15" d="M305.32,766.38c-0.64,0.15-1.1,0.61-1.52,1.09c-1.53,1.4-1.1,1.08-3.3,2.44c-3.05,1.76-9.74,1.98-13.19-0.49
		c-0.42-0.35-0.79-0.75-1.15-1.17c-0.05-0.08-0.13-0.18-0.22-0.31c-0.33-0.56-0.87-0.98-1.49-1.15c-2.07-0.65-3.98,1.84-2.82,3.67
		c3.45,5.49,10.74,6.38,16.65,5.45c2.56-0.48,4.99-1.61,7.04-3.2c1.06-0.87,2.36-1.69,2.96-2.96
		C309.18,767.94,307.24,765.8,305.32,766.38z"/>
	<path class="st15" d="M301.08,751.64c-0.38-4.78-2.51-9.41-5.41-13.13c-2.06-1.73-5.07,0.94-3.67,3.23
		c0.89,1.76,2.11,3.35,2.9,5.17c0.19,0.6,0.98,2.96,1.02,3.55c0.15,1,0.31,1.27,0.15,3.27c-0.05,0.24-0.11,0.47-0.19,0.7
		c-0.07,0.14-0.15,0.26-0.21,0.36c-0.13,0.15-0.25,0.31-0.39,0.45c-0.93,0.87-1.97,1.29-3.66,1.37c-1.62-0.04-2.85,1.62-2.41,3.16
		c0.57,2.15,3.03,1.97,4.76,1.57C298.72,760.28,301.6,756.58,301.08,751.64z"/>
</g>
<g id="Layer_17">
	<path d="M322.76,730.78c-1.65,0.93-1.39,1.23-3,2.1c-4.07,2.62-10.61,3.58-14.69,2.99c-1.51-0.07-3.16-1.28-4.45-1.28
		c-1.58,0.12-1.73,2.56-0.2,2.92c2.75,1.32,5.8,1.66,8.82,1.46c3.64-0.12,7.17-1.06,10.44-2.65c1.4-0.65,2.7-1.5,3.89-2.49
		c0.52-0.41,1.12-0.88,1.08-1.61C324.68,731.26,323.69,730.51,322.76,730.78z"/>
	<path d="M282.22,737.91c-0.74-0.21-1.35,0.26-1.94,0.64c-1,0.62-1.96,1.31-3.02,1.83c-3.85,1.79-9.38,2.25-14.22,0.84
		c-1.16-0.34-2.31-0.7-3.43-1.14c-0.15-0.07-0.44-0.22-0.58-0.3c-0.35-0.2-0.77-0.26-1.16-0.15c-1.24,0.3-1.49,2.13-0.36,2.74
		c6.27,3.01,13.83,3.67,20.34,1.01c1.54-0.6,2.87-1.59,4.27-2.45c0.48-0.27,1-0.59,1.14-1.17
		C283.49,738.98,282.99,738.11,282.22,737.91z"/>
</g>
<g id="Layer_2" class="st0">
	<path class="st16" d="M411.12,791.38c-1.32-7.03-4.16-13.66-6.93-20.22c-5.17-12.27-12.7-23.4-21.05-33.72
		c-9.25-11.46-14.06-16.47-22.67-33.49c-2.65-4.77-5.99-17.36-14.44-28.01c-4.95-6.83-10.98-12.77-17.64-17.92
		c-4.2-3.23-8.27-6.73-13-9.18c-8.33-4.15-17.39-6.65-26.61-7.76c-5.97-0.92-12.01-1.35-18.04-0.93
		c-5.06,0.33-10.15,0.94-15.04,2.34c-1.05,0.3-2.09,0.66-3.11,1.04c-5.26-2.12-10.95-3.01-16.63-2.23
		c-9.18,0.7-17.77,4.08-26.03,7.97c-4.17,1.88-7.99,4.44-11.57,7.27c-11.21,8.22-20.65,18.74-27.88,30.59
		c-3.27,5.53-5.97,11.41-8.07,17.48c-1.6,4.9-2.54,9.97-3.91,14.93c-1.65,6.02-3.06,12.13-5.3,17.97
		c-5.38,11.7-13.87,21.62-20.91,32.33c-8.49,12.4-17.17,24.81-23.91,38.27c-3.88,7.94-6.29,16.49-8.02,25.13
		c-1.79,10.35-2.15,20.99-0.43,31.38c1.06,8.65,4.98,17.36,12.18,22.56c4,3.21,9.13,4.97,14.25,5.1c7.82-0.33,14.88-4.05,21.83-7.3
		c8.62-4.1,10.14-5.13,23.69-8.47c4.03-0.97,8.1-1.79,12.2-2.39c11.84-1.28,23.77-0.09,35.63-0.86c4.68-0.24,9.33-0.92,13.96-1.64
		c5.1-0.69,10.09-2.05,14.61-4.57c8.53-5.11,15.59-12.83,19.97-21.75c2.5-5.25,4.39-10.46,4.8-16.3c0.66-4.31-0.12-8.64-0.78-12.9
		c-0.78-3.41-2.26-6.6-3.6-9.82c-4.03-9.48-9.92-17.98-16.29-26.04c-2.53-3.41-4.72-7.07-6.52-10.91c-0.1-0.23-0.2-0.46-0.3-0.69
		c-1.16-2.9-2.13-5.88-2.75-8.94c-0.09-0.49-0.16-0.98-0.23-1.47c-0.35-3.41-0.47-6.86-0.19-10.28c0.56-2.84,1.25-5.66,2.13-8.41
		c1.16-0.78,2.33-1.54,3.52-2.28c7.6-4.55,15.08-9.4,21.51-15.53c4.67-4.4,8.62-9.54,12.16-14.88c2.74-4.94,4.78-10.22,6.67-15.55
		c6.02,2.63,12.49,6.95,20.94,13.44c7.19,5.53,5.29,3.07,13.11,11.6c2.19,3.02,4.05,6.27,5.61,9.65c0.05,0.12,0.1,0.24,0.14,0.36
		c1.1,3.04,2.2,6.11,2.83,9.29c0.18,2.42,0.13,4.85,0.11,7.27c-0.05,4.16-0.12,8.33-0.64,12.47c-0.62,4.07-1.69,8.08-3.09,11.95
		c-1.7,4.58-5.74,12.87-12.05,19.07c-1.22,1.24-2.49,2.44-3.83,3.55c-1.4,1.03-2.83,2.01-4.36,2.83c-2.91,1.48-5.81,3.01-8.26,5.2
		c-9.34,8.69-6.38,21.99,5.74,25.94c6.19,2.14,12.77,2.64,19.13,4.1c7.29,1.44,14.42,3.65,21.32,6.39c2.55,1.14,5.06,2.38,7.52,3.71
		c6.64,3.81,12.69,8.57,18.87,13.06c5,3.6,10.04,7.67,16.07,9.29c7.45,1.76,15.59-2.03,19.09-8.83c2.08-4.01,2.54-8.5,3.09-12.92
		c0.75-5.26,1.2-10.56,1.56-15.87C412.07,812.37,413.03,801.79,411.12,791.38z"/>
</g>
<g id="Layer_18" class="st0">
</g>
<g id="Layer_20">
</g>
<g id="Layer_21">
	<path class="st17" d="M415.37,810.57c-1.11-15.37-4.34-30.91-12.26-44.3c-5.24-8.52-11.61-16.28-17.28-24.51
		c-6.41-9.22-13.73-17.86-19.13-27.74c-3.88-7.44-7.97-14.77-12.05-22.1c-3.65-7.01-7.28-14.11-12.26-20.28
		c-10.35-12.66-27.47-23.63-42.74-29.32c-11.77-3.87-24.52-3.89-36.72-2.44c-2.41,0.36-6.67,0.87-9.89,2.23
		c-1.43-0.62-2.87-1.21-4.38-1.57c-6.17-1.13-12.51-0.58-18.66,0.42c-7.06,1.11-13.93,3.22-20.32,6.44
		c-4.83,2.6-9.29,5.85-13.61,9.2c-25.04,20.08-35,47.16-44.58,76.66c-2.78,7.12-3.62,10.2-8.21,18.03
		c-9.02,14.02-19.28,24.68-29.75,40.39c-3.61,5.21-6.26,10.99-8.68,16.83c-2.44,5.84-4.77,11.74-6.43,17.86
		c-2.07,7.39-2.97,15.06-3.23,22.72c-0.3,6.93-0.17,13.98,1.55,20.74c1.71,7.14,5.28,13.57,9.77,19.33
		c2.89,3.81,5.52,7.95,9.18,11.07c2.74,2.34,6.3,3.44,9.8,4.12c1.49,0.69,3.01,1.3,4.57,1.81c6.29,1.57,12.88,1.7,19.2,0.17
		c12.95-3.96,23.43-12.78,34.42-20.3c3.04-1.97,6.19-3.75,9.43-5.35c5.48-1.16,10.62-1.8,13.89-2.23
		c7.43-0.82,14.88-1.42,22.28-2.47c4.69-0.66,9.43-1.38,13.82-3.24c9.47-3.75,17.78-10.08,24.9-17.27c3.2-3.84,5.5-8.44,7.14-13.14
		c1.35-5.14,1.96-10.47,2.15-15.77c0.43-11.71-2.46-23.67-9.15-33.38c-3.85-5.76-13.81-16.76-15.13-18.6
		c-4.37-5.52-6.76-13.87-7.17-16.72c-0.8-10.37,1.64-15.98,6.67-21.75c5.67-5.84,9.45-7.02,16.12-13.84
		c5.7-6.01,11.34-12.09,16.44-18.62c2.72-3.25,4.18-5.96,5.75-7.93c9.44,3.54,23.92,13.92,28.66,21.09c5,7.83,6.31,11.36,8.87,18.53
		c3.24,10.43,3.66,16.05,1.93,24.31c-2.17,7.42-2.74,8.82-5.99,14.52c-2.93,4.62-2.83,4.43-7.33,8.73
		c-10.33,9.5-25.89,19.51-22.95,35.65c1.8,11.51,10.68,20.76,20.39,26.51c7.28,3.96,15.62,5.19,23.75,6.18
		c1.78,0.21,3.56,0.4,5.34,0.63c-0.44-0.06-0.89-0.12-1.33-0.18c6.5,0.53,20.06,4.57,21.52,5.47c4.6,1.93,8.65,4.9,13.09,7.15
		c7.11,3.5,15.85,6.2,23.35,2.37C415.94,857.4,416.27,826.93,415.37,810.57z"/>
</g>
<g id="Layer_26">
	<path class="st18" d="M276.16,698.67c-0.51-2.06-3.54-2.49-4.57-0.6c-1.55,3.43-3.83,6.99-5.24,8.4
		c-4.42,4.46-10.82,7.86-17.15,12.34c-10.69,7.63-17.41,20.09-18.97,33.03c-0.69,3.55-0.32,7.15,0.29,10.68
		c1.06,7.11,4.39,13.78,8.97,19.27c2.64,3.19,5.8,5.89,8.57,8.96c1.47,1.77,5.52,7.88,7.9,11.66c2.74,4.49,5.33,8.64,6.25,12.25
		c1.39,4.68,0.94,15.26-0.17,19.96c-0.72,2.61-0.64,2.39-2.4,4.98c-1.17,1.82,0.75,4.33,2.82,3.67c1.63-0.56,2.28-2.43,3.16-3.78
		c2.01-4.33,2-9.26,2.49-13.93c-0.02-3.93-0.12-7.93-0.96-11.78c-1.62-6-5.27-11.18-8.46-16.43c-2.6-3.71-4.89-7.67-7.91-11.07
		c-4.92-4.92-8.29-7.82-11.26-13.2c-3.38-5.65-4.7-11.71-4.67-18.35c0.27-2.7,1.26-9.06,3.12-13.49c1.04-2.93,5.42-10.46,8.04-13.04
		c6.35-6.97,15.29-10.3,23.15-17.49c2.24-2.09,3.81-4.76,5.35-7.38C275.19,701.85,276.53,700.36,276.16,698.67z"/>
	<path class="st18" d="M251.16,834.89c-0.14-6.52-1.34-12.96-2.52-19.36c-0.42-2.12-0.91-4.23-1.42-6.33
		c-0.31-1.17-0.38-2.61-1.57-3.26c-1.83-1.15-4.31,0.74-3.67,2.82c2.48,10.57,4.17,18.49,4.22,28.52
		c-0.39,6.26-1.34,11.68-5.39,17.5c-0.53,0.73-0.39,0.61-1.85,2.02c-0.54,0.58-1.32,1-1.58,1.79c-0.91,1.81,1.04,3.96,2.95,3.37
		c2.84-1.5,4.76-4.44,6.32-7.17c2.2-3.52,3.36-7.56,3.91-11.65C250.96,840.42,251.35,837.67,251.16,834.89z"/>
	<path class="st18" d="M129,893.13c-1.73-1.2-0.79-0.5-2.38-1.78c-2.4-1.99-5.67-5.94-6.28-6.8c-2.11-3.17-3.54-6.76-5.14-10.21
		c-0.5-1.25-2.49-10.02-2.46-12.04c-1.21-8.89-1.35-17.76,0.22-24.87c0.85-4.61,1.52-9.27,2.62-13.83
		c2.32-7.81,4.13-12.56,7.83-19.19c0.73-1.35,1.51-2.66,2.28-3.99c0.34-0.58,0.43-1.28,0.25-1.93c-0.5-2.06-3.55-2.49-4.57-0.6
		c-4.84,7.95-8.61,16.55-10.91,25.57c-1.52,8.03-3.3,16.08-3.71,24.26c0.07,8.92,0.96,17.95,3.22,26.59
		c0.89,3.04,2.45,5.82,3.75,8.69c1.46,3.28,3.72,6.1,6.14,8.73c1.82,2.01,3.85,3.81,6.08,5.36c1.58,1.4,3.93,1.45,4.69-0.83
		C131.02,894.93,130.17,893.69,129,893.13z"/>
	<path class="st18" d="M211.19,658.17c-6.21,5.16-11.11,11.56-15.59,18.23c-3.49,5.21-6.71,10.62-9.29,16.35
		c-1.78,4.19-3.09,8.56-4.46,12.9c-3.83,12.35-6.57,27.09-11.42,36.93c-2.69,6.18-5.17,8.69-9.45,13.78
		c-3.43,4.17-7.35,7.9-10.87,12c-0.74,0.84-1.48,1.68-2.25,2.5c-0.91,0.75-1.53,2.04-0.95,3.17c0.41,1.16,1.78,1.76,2.95,1.45
		c1.92-0.83,3.16-3.1,4.65-4.56c2.47-2.74,4.99-5.42,7.51-8.11c3.57-4.21,7.39-8.31,10.37-12.97c6.92-12.38,9.56-26.45,13.42-39.95
		c3.03-10.37,5.48-17.55,11.17-26.36c4.11-6.42,7.84-11.99,12.14-16.5c1.42-1.42,2.86-2.82,4.36-4.16c0.61-0.63,1.48-1.09,1.78-1.95
		C216.38,658.51,213.05,656.22,211.19,658.17z"/>
	<path class="st18" d="M203.65,710.52c-0.95-2.46-4.83-1.73-4.78,0.96c-0.87,8.63-3.18,19.8-7.89,28.06
		c-2.83,5.35-5.76,8.42-8.57,12.29c-5.93,8.55-12.03,14.96-19.2,23.7c-5.54,7.76-11.35,15.38-15.45,24.03
		c-3.57,6.61-7.28,13.2-9.59,20.39c-3.13,12.06-5,24.6-4.23,37.08c0.16,4.48,0.42,9.01,1.8,13.31c1.51,4.62,3.39,9.16,5.91,13.32
		c1.19,1.99,2.96,5.03,5.51,2.83c0.95-0.95,0.97-2.59,0-3.54c-0.04-0.05-0.08-0.1-0.12-0.15c-0.09-0.14-0.19-0.27-0.28-0.41
		c-0.98-1.51-1.89-3.07-2.7-4.68c-1.75-3.14-4.56-11.42-4.65-13.74c-1.06-9.71-0.7-20.95,0.63-28.57c0.96-5.31,1.76-10.7,3.53-15.82
		c2-5.87,6.07-12.85,9.76-19.84c2.4-5.23,5.84-9.84,9.12-14.54c4.45-6.74,8.29-10.84,13.86-17.48c3.57-4.02,6.77-8.33,9.91-12.68
		c1.59-2.26,4.4-5.54,6.86-9.23c4.2-6.57,7.09-13.94,8.81-21.53c0.71-3.31,1.2-6.66,1.64-10.02
		C203.56,713.04,204.15,711.7,203.65,710.52z"/>
	<path class="st18" d="M177.89,798.6c0.78-1.39,2.46-2.64,1.97-4.4c-0.5-2.07-3.55-2.49-4.57-0.6c-2.84,3.97-5.47,8.15-7.23,12.72
		c-3.06,8.27-4.05,17.07-4.78,25.8c-0.77,7.52-0.18,15.09,0.65,22.59c0.78,5.96,0.92,12.11,3.21,17.74
		c0.76,1.96,1.35,4.05,2.71,5.69c1.11,1.15,3.14,0.88,3.93-0.51c0.52-0.86,0.41-2.03-0.21-2.81c-0.29-0.45-0.53-0.92-0.75-1.41
		c-0.22-0.58-0.7-1.81-0.81-2.14c-0.64-1.81-1.32-3.61-1.69-5.5c-1.02-6.86-2.23-16.66-2.42-25.54c-0.02-6.55,1.04-15.04,1.6-19.43
		C171.13,811.76,172.89,805.77,177.89,798.6z"/>
	<path class="st18" d="M252.58,663.46c-5.47,1.44-10.87,3.68-15.44,7.07c-7.11,5.57-13.19,12.62-17,20.86
		c-2.62,5.94-4.24,12.27-5.98,18.51c-1.33,4.36-2.19,8.82-3.12,13.28c-1.67,7.05-1.5,11.08-3.57,18.2
		c-1.81,8.01-8.52,15.99-12.27,20.74c-1.48,1.83-3.06,3.6-4.73,5.26c-0.7,0.8-1.76,1.35-2.16,2.36c-0.56,1.1-0.01,2.51,1.02,3.12
		c2.01,1.17,3.57-0.91,4.89-2.16c2.89-2.88,5.22-5.92,6.69-7.84c4.13-5.11,8.13-10.45,10.27-16.73c1.99-5.1,3.17-12.83,3.55-16.07
		c0.68-3.82,1.66-7.57,2.32-11.4c1.69-7.22,5.16-19.1,6.95-23.71c3.37-7.36,6.36-11.4,12.1-16.95c5.66-5.36,10.09-7.58,17.81-9.71
		C257.03,667.4,255.78,662.64,252.58,663.46z"/>
	<path class="st18" d="M266.32,681.9c-5.75,2.16-11.34,4.93-16.05,8.94c-5.7,4.97-10.45,11.02-14.43,17.43
		c-2.63,4.6-5.72,8.93-8.07,13.68c-4.32,8.74-8.42,17.68-11.18,27.05c-2.15,6.66-3.45,13.6-3.11,20.63
		c0.62,7.23,2.72,14.23,4.28,21.29c1.91,7.46,5.85,14.24,7.53,21.76c3.1,11.74,5.08,21.57,2.58,31.76c-0.76,3.3-1.48,6.63-2.7,9.79
		c-0.71,2.41-3.51,5.95,0.08,7.25c2.34,0.53,3.08-1.52,3.73-3.32c1.13-2.72,2.1-5.5,2.77-8.37c1.35-5.19,2.32-10.53,2.3-15.91
		c-0.18-5.99-1.36-11.91-2.7-17.74c-0.89-3.21-1.54-6.49-2.58-9.66c-1.19-3.28-2.64-6.47-3.8-9.77c-2.12-5.1-3.17-10.52-4.43-15.88
		c-1.73-7.31-2.59-11.41-1.78-18.93c0.4-5.03,3.11-13.55,5.58-20.2c3.48-8.78,8.28-19.32,14.52-28.67
		c2.85-5.13,5.79-8.93,8.67-12.36c4.99-5.73,8.5-8.57,15.21-11.9c1.75-0.91,2.13-0.88,4.92-2.07c0.63-0.18,1.17-0.59,1.49-1.15
		C270.28,683.76,268.4,681.24,266.32,681.9z"/>
	<path class="st18" d="M206.33,771.44c-0.93-2.48-4.84-1.71-4.78,0.96c-0.44,5.42-1.27,10.14-3.43,16.44
		c-2.5,6.7-4.36,10.24-7.5,16.87c-5.44,11.95-10.47,24.42-11.12,37.69c0.01,3.5-0.24,7.04,0.15,10.53c0.45,2.84,1.37,5.6,2.73,8.14
		c1.26,1.73,1.73,5.31,4.47,4.92c1.23-0.09,2.16-1.25,2.17-2.46c-0.4-2.25-2.03-4.12-2.94-6.21c-0.11-0.26-0.28-0.69-0.37-0.94
		c-0.53-1.42-0.89-2.9-1.17-4.4c-0.12-1.36-0.07-2.72-0.08-4.09c-0.67-13.81,4.56-27.79,10.18-40c3.56-7.75,7.63-15.35,9.79-23.65
		c0.85-3.27,1.5-6.59,1.83-9.95C206.28,774.05,206.83,772.66,206.33,771.44z"/>
	<path class="st18" d="M212.56,821.74c-0.19-1.71-0.35-3.43-0.63-5.13c-0.15-1.05-0.35-2.23-1.38-2.77
		c-1.83-1.15-4.31,0.74-3.67,2.82c1.09,4.87,1.83,19.02,0.81,23.81c-1.01,4.76-2.29,9.48-3.76,14.12c-0.69,2.27-1.7,4.45-2.1,6.8
		c-0.29,1.8-0.29,3.68-0.02,5.49c0.17,0.87,0.2,1.88,0.8,2.59c1.55,2.19,5.13,0.38,4.37-2.18c-0.86-3.3-0.33-5.65,1.46-10.45
		c1.7-5.42,3.37-10.9,4.27-16.52C213.47,834.15,213.31,827.9,212.56,821.74z"/>
	<path class="st18" d="M290.95,690.68c-1.08-2.98-2.77-5.65-4.44-8.33c-2-3.64-6.21-9.85-7.49-11.26c-2.19-3-2.44-3.45-4.55-5.98
		c-0.92-1.03-1.7-2.59-3.28-2.55c-2.15-0.07-3.34,2.79-1.77,4.27c0.77,0.88,1.5,1.81,2.26,2.7c1.75,2.34,4.1,5.43,5.65,7.61
		c3.01,4.53,7.64,11.88,8.8,14.87C287.05,695.15,291.76,693.87,290.95,690.68z"/>
	<path class="st18" d="M267.99,657.3c-2.57-5.45-6.22-10.73-11.16-14.23c-2.43-1.15-4.66,2.2-2.73,4.05
		c4.64,4.06,6.46,6.48,9.17,11.86c0.16,0.34,0.61,1.25,0.75,1.5c0.21,0.53,0.57,1,1.07,1.29c1.36,0.84,3.27,0.04,3.67-1.49
		C269.09,659.21,268.46,658.22,267.99,657.3z"/>
	<path class="st18" d="M364.06,722.3c-1.22-1.47-2.48-2.9-3.7-4.36c-2.25-2.89-6.98-9.91-9.63-15.09
		c-3.64-7.33-5.84-13.27-9.87-21.35c-4.01-7.33-9.01-14.28-15.61-19.49c-3.53-2.64-6.95-5.48-10.82-7.61
		c-8.98-4.52-18.88-7.24-28.89-8.15c-3.21-0.28-6.43-0.36-9.64-0.16c-1.46,0.24-3.22-0.17-4.37,0.93c-1.56,1.48-0.4,4.33,1.77,4.27
		c11.4-0.97,19.53,0.43,30.26,3.91c5.54,1.89,9.72,3.81,15.13,8.08c3.49,2.51,6.7,5.05,10.27,9.36c3.78,4.37,7.51,10.59,10.4,17.4
		c2.29,4.36,3.04,7.3,5.68,12.43c3.96,8.49,9.32,16.33,15.49,23.36c1.46,1.57,4.34,0.4,4.27-1.77
		C364.75,723.4,364.56,722.76,364.06,722.3z"/>
	<path class="st18" d="M399.93,780.81c-2.39-6.67-4.94-13.26-8.63-19.33c-2.08-4.22-5.19-7.8-7.72-11.75
		c-3.65-5.12-7.04-10.47-11.16-15.24c-0.83-0.93-1.59-2.2-2.99-2.15c-2.14-0.05-3.34,2.78-1.77,4.27
		c4.33,4.79,7.18,9.44,11.54,15.55c3.11,4.62,6.54,9,8.97,14.03c3.54,5.86,4.63,10.02,7.28,16.87c2.33,6.15,3.74,12.61,5.03,19.05
		c0.66,3.59,0.93,8.54,1.36,13.85c0.16,6.58-0.16,13.16-0.72,19.71c-0.38,7.93-2.8,15.84-8.19,19.14c-2.18,1.2-1.24,4.7,1.26,4.66
		c1.6-0.1,2.8-1.49,3.99-2.45c2.23-1.88,3.6-4.41,4.89-6.98c2.02-4.74,2.83-9.87,3.08-14.99c0.23-3.51,0.69-7.01,0.62-10.53
		C407.33,809.71,405.14,794.71,399.93,780.81z"/>
	<path class="st18" d="M369.32,752.14c-0.93-1.99-1.89-1.77-2.75-2.73c-3.09-2.5-5.82-5.39-8.49-8.33
		c-5.03-5.63-9.92-13.92-14.63-21.88c-3.74-6.67-5.06-10.87-8.02-17.38c-4.22-9-8.4-18.24-15.04-25.75
		c-4.38-4.92-9.95-8.55-15.83-11.45c-4.39-2.23-8.84-4.49-13.64-5.71c-2.55-0.65-5.15-1.02-7.75-1.35
		c-0.65-0.18-1.35-0.08-1.93,0.25c-1.87,1.03-1.49,4.06,0.6,4.57c8.84,0.92,14.04,3.24,21.41,7.2
		c10.66,5.25,16.28,11.84,21.85,22.49c4.35,8.21,7.1,14.66,10.3,22.25c2.47,5.55,5.59,10.78,8.88,15.88
		c3.92,6.56,8.36,12.82,13.81,18.21c1.81,1.85,3.71,3.61,5.76,5.19c0.88,0.58,1.62,1.57,2.72,1.66
		C368.27,755.61,369.83,753.77,369.32,752.14z"/>
	<path class="st18" d="M389.69,789.18c-2.91-9.22-6.58-18.55-12.7-26.11c-2.05-1.71-5.07,0.93-3.67,3.23
		c13.6,18.95,17.94,45.3,14.27,66.35c-0.69,4.55-2.04,8.97-3.55,13.31c-0.16,0.43-0.16,0.48-0.85,1.84
		c-0.34,0.58-0.43,1.28-0.25,1.93c0.33,1.29,1.79,2.12,3.08,1.75c1.17-0.31,1.67-1.39,2.11-2.41c1.02-2.26,1.74-4.64,2.39-7.03
		C395.55,824.85,394.55,806.29,389.69,789.18z"/>
	<path class="st18" d="M323.8,703.1c-4.7-8.64-10.94-16.42-18.68-22.51c-2.76-2.23-5.74-4.19-9.01-5.58
		c-1.38-0.42-2.74-1.44-4.2-1.3c-2.65,0.24-2.9,4.22-0.33,4.87c4.75,1.6,9.13,4.54,12.98,8.08c6.66,5.9,10.08,10.54,14.37,18
		c0.94,1.31,1.36,3.33,3.06,3.84c1.54,0.46,3.18-0.81,3.16-2.41C325.14,704.95,324.28,704.08,323.8,703.1z"/>
	<path class="st18" d="M343.15,755.3c0.18-3.77-0.32-7.5-0.98-11.2c-0.67-4.82-1.95-9.52-4.13-13.88
		c-1.64-3.98-3.66-7.77-6.21-11.24c-0.9-1.13-1.47-2.78-2.94-3.23c-2.07-0.63-3.98,1.82-2.82,3.67c1.8,2.61,3.71,5.18,5.2,7.99
		c2.03,4.36,3.37,6.97,4.47,10.37c1.69,6.93,2.54,11.28,2.41,17.52c0.04,2.7,0.06,8.9-0.12,9.23c-1.27,5.33-2.53,10.67-4.7,15.72
		c-0.58,2.57-3.79,7.62-5.04,8.97c-1.6,1.81-3.49,3.34-5.34,4.89c-8.79,5.95-18.13,11.3-18.92,23.14c-0.04,0.97,0,2.05,0.75,2.75
		c1.47,1.56,4.33,0.39,4.27-1.77c-0.27-3.1,1.8-7.85,3.47-9.65c4.12-4.49,6.98-6.18,12.4-9.72c3.88-2.87,7.42-6.18,9.99-10.3
		c1.83-2.64,2.74-5.74,3.91-8.69c1.9-4.59,2.94-9.48,4.08-14.29C343.42,762.17,343.09,758.72,343.15,755.3z"/>
	<path class="st18" d="M374.54,800.01c-0.67-4.6-2.38-8.97-4.3-13.18c-3.16-7.72-7.16-15.03-10.94-22.46
		c-1.54-3.2-3.12-6.75-3.79-8.41c-0.5-1.16-0.59-2.67-1.79-3.34c-1.83-1.15-4.32,0.75-3.67,2.82c3.9,11.03,10.41,20.88,14.9,31.66
		c2.05,4.51,4.57,10.58,4.73,14.55c-0.08,2.15,2.79,3.34,4.27,1.77C374.86,802.5,374.72,801.18,374.54,800.01z"/>
	<path class="st18" d="M374.99,821.37c-1.02-1.88-4.07-1.48-4.57,0.6c-0.77,6.17-0.52,9.38-2.11,14.64
		c-1.01,4.55-2.03,5.53-3.56,9.58c-0.36,1.7,1.49,3.25,3.12,2.74c1.91-0.62,2.29-3.11,3.16-4.71c2.29-5.38,3.5-11.19,3.86-17.01
		c0.04-0.64,0.3-3.27,0.34-3.8C375.36,822.72,375.39,822,374.99,821.37z"/>
	<path class="st18" d="M351.69,777.73c-0.18-1.54-0.03-3.86-0.9-5.11c-1.56-2.18-5.13-0.39-4.37,2.18c0.29,1.95,0.38,3.16,0.16,6.31
		c-0.02,0.11-0.03,0.2-0.04,0.27c-0.75,3.74-1.7,5.97-2.9,8.24c-1.39,2.39-3.24,4.46-4.64,6.84c-1.67,2.54-1.88,2.49-3.92,5.15
		c-2.74,3.75-3.79,5.83-6.36,8.42c-4.18,4.44-8.29,8.88-11.01,14.41c-2.02,4.46-3.61,9.6-2.5,14.48c0.66,1.89,3.5,2.03,4.44,0.3
		c0.4-0.63,0.36-1.36,0.27-2.06c-0.07-1.08-0.09-2.16,0.02-3.24c0.23-2.04,1.43-6.32,3.27-9.09c2.82-5.09,6.16-7.97,10.62-13.01
		c2.01-2.34,3.59-5.01,5.42-7.48c1.94-2.35,3.78-4.77,5.38-7.37c1.05-1.6,2.33-3.04,3.27-4.72
		C350.29,787.81,351.93,782.82,351.69,777.73z"/>
	<path class="st18" d="M360.29,822.22c-0.23-8.5-2.67-16.73-4.13-25.06c-0.05-0.47-0.13-1.36-0.12-1.7
		c-0.13-1.31,0.44-2.73-0.06-3.97c-0.93-2.49-4.84-1.69-4.78,0.96c-0.51,3.98,0.42,7.91,1.3,11.77c0.84,4.02,1.6,8.05,2.34,12.09
		c0.31,2.8,0.58,5.62,0.4,8.44c0,0.26-0.05,0.77-0.09,1.12c-0.06,0.42-0.14,0.83-0.25,1.24c-0.18,0.64-0.08,1.35,0.25,1.93
		c0.77,1.39,2.82,1.64,3.93,0.51c0.74-0.73,0.81-1.83,0.96-2.8C360.26,825.26,360.32,823.73,360.29,822.22z"/>
	<path class="st18" d="M341.29,815.05c-4.14,4.08-6.65,9.38-8.41,14.85c-0.83,2.49-1.38,5.07-1.46,7.69
		c-0.11,1.42-0.07,3.29,1.53,3.83c1.1,0.55,2.51,0.01,3.12-1.02c0.58-0.96,0.22-2.12,0.37-3.18c0.17-2.28,0.09-1.8,0.81-4.53
		c1.04-4.11,3.85-9.9,5.4-11.66c0.92-1.42,2.84-2.39,2.91-4.22C345.63,814.67,342.76,813.48,341.29,815.05z"/>
	<path class="st18" d="M351.44,837.04c-1.02-1.88-4.07-1.48-4.57,0.6c-0.62,2-1.3,3.97-1.97,5.95c-0.36,0.82-0.47,1.79,0.02,2.58
		c1.4,2.22,4.41,1.21,4.79-1.23c0.68-1.98,1.36-3.96,1.98-5.97C351.87,838.32,351.77,837.61,351.44,837.04z"/>
</g>
<g id="Bottom_Left_Stars" class="st0">
	<path class="st19" d="M519.48,807.28c-0.02-0.81-0.24-1.62-0.66-2.37c-2.07-2.72-1.51-1-4.33-4.3c-1.26-1.52-4.72-6.9-5.68-12.26
		c-0.01-0.12-0.02-0.26-0.04-0.46c-0.12-0.72,0.03-2.9,0.1-3.9c0.35-1.77,0.01-3.63-1.28-4.96c-2.21-2.3-6.31-1.75-7.87,1.03
		c-0.18,0.44-0.34,0.85-0.49,1.24c0,0,0-0.01,0-0.02c0,0.01,0,0.01,0,0.02c-1.75,4.44-2.31,6.31-3.66,9.07
		c-2.3,4.35-3.5,5.61-5.03,7.41c-1.73,1.82-3.57,3.53-5.4,5.25c-1.14,1.23-2.8,2.15-3.36,3.79c-0.96,2.11-0.3,4.11,1.05,5.42
		c-0.06,1.67,0.67,3.36,2.43,4.38c5.83,3.96,7.14,4.39,10.95,8.46c2.81,3.29,1.99,2.55,2.93,4.26c0.68,1.71,1.21,3.48,1.57,5.28
		c-0.01,0.48,0.05,0.95,0.23,1.39c0.13,5.01,6.61,6.98,9.34,2.56c0.76-1.34,0.74-2.93,0.49-4.52c0.09-0.56,0.19-1.12,0.32-1.67
		c1.58-5.59,1.7-5.79,5.17-11.48c0.23-0.32,0.45-0.63,0.68-0.95c0.42-0.52,1.07-1.33,1.41-1.71c1.49-2.04,4.02-3.76,3.97-6.52
		C522.36,809.66,521.12,808.07,519.48,807.28z"/>
	<path class="st19" d="M92.86,671.69c0-0.06,0.01-0.11,0.01-0.17c-0.09-1.32-0.48-2.6-1.46-3.54c-0.78-0.6-1.54-1.23-2.24-1.93
		c-2.8-3.04-2.69-2.71-4.88-7.12c-0.01-0.02-0.01-0.03-0.02-0.05c-1.09-2.97-1.5-6.14-2-9.25c-0.12-0.71-0.46-2.87-0.63-3.86
		c-0.17-2.31-0.79-4.91-3.23-5.72c-2.59-1.29-6.07,0.46-6.75,3.24c-0.09-0.02-0.73,6.14-2.24,10.15c-0.32,1.28-2.85,6.64-5.58,10.77
		c-1.68,2.63-3.6,5.1-5.47,7.59c-0.88,1.3-2.27,2.46-2.31,4.13c-0.25,1.53,0.2,2.82,1.01,3.78c0.06,1.54,0.79,3.06,2.42,4.01
		c2.54,1.41,5.13,2.73,7.51,4.41c0.04,0.03,0.06,0.05,0.1,0.07c0.26,0.21,0.52,0.42,0.77,0.64c4.48,4.39,3.36,3.19,4.82,6.45
		c0.48,1.39,0.82,2.82,1.04,4.27c0,0,0,0,0,0.01c-0.1,0.99-0.15,1.99-0.12,3c0.16,6.58,9.82,6.58,10,0
		c-0.08-0.57,0.01-1.84,0.07-2.55c0.04-0.21,0.07-0.43,0.11-0.64c2.01-8.55,4.7-12.7,11.02-20.84
		C96.42,675.6,95.05,672.9,92.86,671.69z"/>
	<path class="st19" d="M354.17,546.54c-0.05-1.25-0.53-2.49-1.43-3.37c-0.73-0.6-1.44-1.23-2.1-1.9c-1.27-1.4-0.89-0.65-2.84-3.99
		c-2.11-4.35-2.22-3.57-3.33-8.74c0-0.01,0-0.02,0-0.03c-0.01-0.19,0-0.39,0.01-0.58c0.02-0.13,0.03-0.26,0.02-0.39
		c0.01-1.31-0.54-2.61-1.46-3.54c-1.93-1.92-5.15-1.92-7.07,0c-0.97,0.9-1.27,2.18-1.7,3.38c-1.62,4.34-1.11,3.15-2.4,5.96
		c-2.33,4.36-1.87,3.5-4.12,6.22c-0.85,0.95-1.76,1.84-2.68,2.72c-1.03,1.1-2.49,1.96-2.98,3.45c-1.68,3.71,1.6,7.09,4.94,6.91
		c3.39,2.47,4.8,3.56,6.79,7.05c0.09,0.2,0.16,0.33,0.21,0.44c0.42,1.03,0.82,2.06,1.15,3.12c0.28,0.95,0.47,1.98,1.19,2.7
		c0.36,0.54,0.82,0.95,1.33,1.26c2.12,2.04,6.07,2.17,7.89-0.96c2.49-5.34,2.27-4.97,5.58-8.59c1.51-1.75,3.87-2.93,4.78-5.1
		C357.07,550.08,356,547.77,354.17,546.54z"/>
	<path class="st19" d="M93.45,1005c-0.04-0.02-0.08-0.03-0.12-0.05c-0.06-0.03-0.12-0.05-0.17-0.08c-2.39-1.57-2.22-1.25-4.19-3.36
		c-0.97-1.04-2.8-4.49-3.35-6.4c-0.43-1.3-0.94-2.56-1.36-3.86c-0.27-1.03-0.85-2.07-1.96-2.34c-1.49-0.45-3.02,0.72-3.16,2.21
		c-0.03,0.16-0.05,0.33-0.09,0.49c-0.55,2.19-0.81,2.51-1.22,3.45c-1.59,3.17-2.33,4.17-4.02,6.06c-0.91,0.98-1.96,1.82-2.99,2.66
		c-0.74,0.69-1.85,1.14-2.2,2.14c-0.34,0.73-0.28,1.44,0.03,2.02c-0.02,0.86,0.37,1.72,1.21,2.17c5.11,2.25,8.34,6.73,9.69,10.48
		c0.09,0.23,0.18,0.47,0.26,0.7c-0.01,0.02-0.01,0.03-0.02,0.05c-0.44,1.22-0.61,2.84,0.63,3.65c0.24,0.21,0.51,0.33,0.79,0.42
		c1.09,0.99,3.08,0.83,3.84-0.57c0.6-1.08,0.31-2.4,0.02-3.55c0.15-0.33,0.35-0.71,0.74-1.51c2.57-4.44,3.83-5.25,8.26-8.15
		c1.05-0.64,1.36-1.64,1.19-2.54c0.17-0.23,0.33-0.5,0.47-0.83C96.16,1006.68,94.97,1005.29,93.45,1005z"/>
	<path class="st19" d="M419.55,920.16c-0.04-0.07-0.07-0.15-0.11-0.22c-1.39-1.63-1.74-1.2-3.29-2.89c-2.31-2.37-3.6-4.78-4.41-7.87
		c-0.14-0.88-0.2-0.41-0.25-2.27c-0.01,0.12-0.02,0.21-0.04,0.29c0.01-0.37,0.01-0.73-0.02-1.1c-0.54-2.07-3.53-2.48-4.57-0.6
		c-0.36,0.59-0.41,1.27-0.37,1.95c-0.05,0.36-0.11,0.72-0.17,1.07c-0.81,3.97-1.88,5.64-4.16,8.25c-0.75,0.81-1.57,1.55-2.39,2.29
		c-0.5,0.22-0.92,0.61-1.2,1.09c-0.71,0.69-1.69,1.22-2.06,2.17c-0.82,1.73,0.65,3.35,2.23,3.45c0.07,0.05,0.14,0.1,0.21,0.15
		c3.31,1.84,5.08,2.84,6.48,4.58c0.54,0.91,0.96,1.79,1.21,2.62c0.4,1.09,0.72,2.22,0.97,3.35c0.13,0.93,0.44,1.9,1.33,2.37
		c1.36,0.84,3.27,0.04,3.67-1.49c0.04-0.27,0.05-0.55,0.04-0.83c0.32-0.12,0.62-0.29,0.87-0.55c0.8-0.77,0.74-1.96,1.08-2.95
		c0.07-0.32,0.38-1.15,0.53-1.54c0.85-1.9,1.87-3.72,2.96-5.48c0.65-1.27,1.84-2.38,2.1-3.8
		C420.34,921.36,420.05,920.65,419.55,920.16z M409.01,915.76c0.32,0.58,0.68,1.14,1.05,1.68c-0.28-0.3-0.67-0.55-1.22-0.74
		c-0.12-0.03-0.23-0.03-0.34-0.04C408.68,916.37,408.85,916.07,409.01,915.76z"/>
	<path class="st19" d="M432.29,730.93c-0.33-1.04-0.99-1.51-1.81-1.71c-0.11-1.42-0.23-2.84-0.35-4.26c-0.05-3.28-4.94-3.28-5,0
		c0.12,1.48,0.25,2.96,0.36,4.44c-0.78,0.09-1.62-0.03-2.34,0.31c-2.5,0.93-1.69,4.84,0.96,4.78c0.57-0.04,1.14-0.08,1.72-0.12
		c0.04,0.64-0.03,1.31,0.27,1.89c0.31,0.93,1.32,1.54,2.28,1.54c2.32-0.12,2.62-2.05,2.44-3.9
		C431.93,733.43,432.63,732.15,432.29,730.93z"/>
	<path class="st19" d="M227.77,656.27c-0.12-1.07-0.27-2.14-0.52-3.17c-0.93-2.5-4.84-1.69-4.78,0.96c0.13,0.97,0.25,1.95,0.37,2.93
		c-1.02,0.16-1.98,0.45-2.54,1.37c-1.16,1.83,0.75,4.31,2.82,3.67c0.12-0.02,0.24-0.04,0.35-0.06c0.08,0.72,0.13,1.47,0.62,2.02
		c0.95,1.43,3.32,1.23,4.12-0.25c0.43-0.79,0.35-1.64,0.19-2.5c0.03,0,0.06-0.01,0.09-0.01c0.64-0.12,1.35-0.02,1.93-0.32
		c0.93-0.31,1.54-1.32,1.54-2.28C231.81,656.09,229.79,656.01,227.77,656.27z"/>
	<path class="st19" d="M195.48,880.09c-0.14,0.01-0.28,0.01-0.43,0.02c-0.1-1.04-0.2-2.09-0.28-3.14c-0.17-1.15,0.04-2.5-0.88-3.38
		c-1.47-1.57-4.34-0.39-4.27,1.77c0.19,1.62,0.32,3.26,0.44,4.9c-0.54,0.01-1.07,0.03-1.61,0.04c-0.66,0-1.3,0.27-1.77,0.73
		c-1.57,1.47-0.39,4.34,1.77,4.27c0.68-0.02,1.36-0.04,2.04-0.05c0.11,1,0.23,2,0.38,2.99c1.35,2.96,5.49,1.26,4.72-1.85
		c-0.03-0.44-0.07-0.87-0.1-1.31c0.65,0,1.29-0.27,1.75-0.73C198.82,882.89,197.63,880.02,195.48,880.09z"/>
	<path class="st19" d="M512.2,1001.55c0.03-0.28,0.06-0.56,0.08-0.84c0-1.22,0.53-2.56,0.04-3.71c-0.93-2.5-4.84-1.69-4.78,0.96
		c-0.12,1.36-0.27,2.72-0.4,4.08c-0.16,0.02-0.31,0.03-0.47,0.05c-0.66,0-1.3,0.27-1.77,0.73c-1.57,1.46-0.39,4.32,1.75,4.27
		c-0.14,1.22-0.38,2.54,0.59,3.45c1.47,1.57,4.34,0.39,4.27-1.77c0.06-0.76,0.14-1.51,0.21-2.26c0.36-0.06,0.71-0.12,1.06-0.21
		C515.15,1005.42,514.54,1001.86,512.2,1001.55z"/>
	<path class="st19" d="M631.98,891.51c-0.6-2.04-2.72-1.93-4.59-1.93c0-0.26-0.01-0.52,0-0.78c-0.13-1.51,0.44-3.34-0.74-4.54
		c-1.47-1.57-4.34-0.39-4.27,1.77c0,1.09,0.02,2.19,0.03,3.28c-0.79-0.05-1.59-0.1-2.38-0.15c-0.34-0.01-0.67,0.06-0.96,0.22
		c-2.5,0.93-1.69,4.84,0.96,4.78c0.81,0.05,1.62,0.1,2.43,0.15c0,0.24,0,0.47,0.01,0.71c0.11,1.16-0.24,2.43,0.21,3.53
		c0.93,2.5,4.84,1.69,4.78-0.96c0.01-1,0.01-2-0.01-3.01c0.04,0,0.07,0,0.11,0.01c0.98-0.03,2.05,0.31,2.97-0.12
		C631.71,894.06,632.28,892.67,631.98,891.51z"/>
	<path class="st19" d="M51.32,868.83c0-0.59-0.01-1.19-0.01-1.78c-0.2-1.79,0.59-4.01-0.73-5.47c-1.47-1.57-4.34-0.39-4.27,1.77
		c0,2.09-0.01,4.18,0.02,6.27c-0.82,0.13-1.63,0.26-2.45,0.4c-0.62,0.17-1.17,0.59-1.49,1.15c-1.15,1.83,0.75,4.31,2.82,3.67
		c0.42-0.07,0.84-0.14,1.26-0.21c0.01,0.11,0.01,0.22,0.01,0.32c0.26,1.68-0.2,3.75,1,5.1c1.1,1.15,3.14,0.87,3.93-0.51
		c0.56-0.88,0.24-1.92,0.18-2.88c-0.07-0.94-0.11-1.87-0.15-2.81c0.35-0.05,0.7-0.11,1.05-0.15c0.17-0.02,0.37-0.05,0.53-0.07
		c1.34,0.03,2.53-1.16,2.5-2.5C55.34,868.61,53.34,868.54,51.32,868.83z"/>
	<path class="st19" d="M382.6,779.05c-1.11-0.21-2.23-0.28-3.35-0.29c0.02-0.54,0.01-1.07-0.22-1.55c-0.93-2.5-4.84-1.69-4.78,0.96
		c0,0.27,0,0.55,0,0.82c-1.13,0.02-2.36-0.11-3.19,0.77c-1.57,1.47-0.39,4.34,1.77,4.27c0.4-0.02,0.87-0.04,1.37-0.06
		c0.01,0.99,0.06,1.97,0.18,2.95c0.76,3.39,5.55,2.16,4.87-1.06c-0.02-0.69-0.03-1.37-0.03-2.06c1.23-0.01,2.16,0.02,2.31,0.15
		C384.88,784.77,385.98,779.73,382.6,779.05z"/>
	<path class="st19" d="M295.62,967.11c-1.26-0.17-2.55-0.09-3.82-0.18c0.05-0.35,0.1-0.71,0.15-1.07c0.2-1.01,0.23-2.14-0.59-2.9
		c-1.47-1.57-4.34-0.39-4.27,1.77c-0.06,0.53-0.14,1.09-0.23,1.69c-0.26-0.02-0.53-0.05-0.79-0.06c-0.66,0-1.3,0.27-1.77,0.73
		c-1.57,1.47-0.39,4.34,1.77,4.27c0,0,0.01,0,0.01,0c-0.07,0.47-0.15,0.96-0.23,1.48c-0.04,1.4-0.71,2.95,0,4.26
		c0.89,1.64,3.46,1.62,4.35-0.01c0.29-0.47,0.39-0.97,0.33-1.46c0.01-0.06,0.01-0.11,0.02-0.17c0.19-1.87,0.29-2.45,0.49-3.62
		c1.19,0.12,2.39,0.2,3.59,0.15c0.86,0.16,1.78,0.24,2.46-0.4C299.1,970.12,297.73,967.1,295.62,967.11z"/>
	<path class="st19" d="M191.86,580.53c0.02-1.8-1.96-2.39-3.37-3.27c-0.05-0.03-0.08-0.06-0.12-0.08c-0.19-0.15-0.38-0.31-0.55-0.48
		c-0.19-0.16-0.42-0.42-0.56-0.58c-0.21-0.29-0.41-0.59-0.58-0.92c-0.1-0.34-0.18-0.74-0.21-0.88c-0.02-0.23-0.04-0.45-0.04-0.68
		c0.56-1.27,0.08-2.97-1.29-3.45c-0.71-0.36-1.54-0.24-2.22,0.13c-1.06,0.63-1.32,1.95-1.96,2.93c-1.17,2.12-2.41,4.2-3.88,6.12
		c-0.91,1.63,0.06,3.12,1.37,3.6c0.12,0.24,0.27,0.47,0.49,0.67c1.38,1.51,2.48,2.79,3.77,5.06c-0.04,0.28-0.1,0.56-0.12,0.85
		c0.07,0.75,0.44,1.3,0.94,1.66c0.58,3.18,5.39,2.49,4.93-1c-0.03-0.69-0.19-1.35-0.42-1.99c0.58-1.46,0.79-1.66,2.21-3.37
		c0.58-0.69,1.48-1.17,1.79-2.04C192.45,581.98,192.3,581.16,191.86,580.53z"/>
</g>
<g id="Heart_on_laptop">
	<path class="st20" d="M552.42,944.51c-1.91-2.26-4.94-3.73-7.92-3.47c-6.14,0.57-10.53,5.53-14.3,9.95
		c-0.19,0.23-0.37,0.47-0.56,0.71c-1.66-4.22-3.9-8.28-7.96-10.48c-3.72-1.77-8.49-0.56-11.18,2.5c-2.55,3.22-3.19,7.91-2.17,11.83
		c1.2,3.79,3.9,6.91,6.18,10.1c3.42,4.83,6.2,7.88,9.4,11.33c1.1,0.98,2.73,0.66,3.71-0.32c1.05-0.81,2.2-1.48,3.35-2.14
		c2.47-1.5,8.36-4.06,12.07-7.24c3.27-2.68,6.16-5.87,8.34-9.5c1.22-1.88,2.24-3.92,2.61-6.15
		C554.34,949.2,553.81,946.54,552.42,944.51z"/>
</g>
<g id="Layer_31" class="st0">
</g>
<g id="Layer_27">
	<path class="st21" d="M248.3,621.9c-8.41,0.52-16.9-0.04-25.26,1.2c-6.18,1.02-12.11,3.22-17.84,5.7
		c-14.71,6.01-26.68,17.08-35.66,30.03c-10.03,13.18-16.53,28.62-21,44.48c-2.51,8.45-5.81,19.82-8.47,25.86
		c-0.77,1.71-1.63,3.38-2.61,4.98c-0.42,0.8-1.16,1.49-1.23,2.42c-0.21,0.97,0.36,2.01,1.19,2.49c3.06,1.54,4.31-2.57,5.59-4.56
		c4.69-9.36,7.18-19.63,10.26-29.59c4.69-16.39,10.32-29.95,20.93-44.03c8.65-12.48,20.53-22.58,33.82-27.9
		c5.35-2.23,10.88-4.2,16.63-5.1c3.37-0.58,12.55-0.61,18.29-0.78c1.79-0.07,3.57-0.13,5.36-0.19c0.66,0,1.3-0.27,1.77-0.73
		C251.62,624.72,250.46,621.83,248.3,621.9z"/>
	<path class="st21" d="M122.56,753.93c-9.31,14.46-21.23,27.27-28.6,42.92c-3.4,7.06-6.38,14.32-9.28,21.59
		c-2.67,6.84-5.3,13.77-6.54,21.04c-1.73,9.57-1.94,19.34-0.59,28.97c0.72,6.12,1.72,12.24,4,18c1.29,3.69,3.12,7.16,5.64,10.16
		c0.72,0.78,1.22,1.9,2.25,2.3c1.11,0.55,2.51,0.02,3.12-1.02c0.57-0.94,0.4-2.26-0.39-3.03c-1.58-1.94-1.19-1.39-2.7-3.52
		c-2.66-4.09-3.05-6.08-4.7-10.98c-3.48-13.59-4.12-28.63-1.38-41.8c2.45-10.94,7.35-21.84,10.94-30.46
		c2.81-6.57,5.87-13.05,9.62-19.14c3.25-5.29,7.11-10.16,10.72-15.2c3.02-4.19,6.08-8.36,9.04-12.6c0.76-1.1,1.5-2.22,2.25-3.33
		c0.44-0.75,1.18-1.4,1.23-2.31C127.64,752.94,123.87,751.56,122.56,753.93z"/>
	<path class="st21" d="M96.85,917.1c-1.02-1.87-4.06-1.49-4.57,0.6c-3.71,11.87-8.19,23.47-11.9,35.34
		c-1.84,5.35-3.6,10.73-4.5,16.33c-0.46,1.54,0.8,3.18,2.41,3.16c2.47-0.01,2.55-2.63,2.92-4.47c0.95-5.12,2.79-10.01,4.4-14.95
		c2.39-7.58,5.03-15.07,7.7-22.56c1.14-3.32,2.24-6.66,3.31-10C96.97,919.44,97.55,918.2,96.85,917.1z"/>
	<path class="st21" d="M265.03,1061.85c-0.1-1.23-1.25-2.16-2.46-2.17c-0.83-0.02-1.51,0.5-2.25,0.81c-0.49,0.26-1.67,0.7-0.5,0.23
		c-2.37,1-4.87,1.66-7.41,2.09c-7.88,1.64-18.59,1.09-28.48,0.88c-13.62-0.42-27.22,0.52-40.83,0.8c-9.3,0.15-18.59-0.41-27.88-0.66
		c-10.09-0.21-19.51-0.5-27.88-2.1c-6.77-1.21-14.08-3.89-18.63-5.95c-9.82-4.28-13.86-9.53-16.71-18.36
		c-0.79-1.67-0.79-3.97-2.39-5.08c-1.81-1.15-4.33,0.75-3.67,2.82c2.3,6.89,4.8,14.24,10.58,19.01c4.42,3.72,9.72,6.14,15.08,8.19
		c12.34,4.94,25.75,6.16,38.94,6.32c10.03,0.22,20.05,0.83,30.08,0.83c10.86-0.12,21.71-0.75,32.57-0.92
		c14.57-0.31,29.39,1.86,43.72-1.63c1.91-0.48,3.77-1.18,5.57-1.99C263.85,1064.49,265.37,1063.49,265.03,1061.85z"/>
	<path class="st21" d="M425.72,828.36c-0.01-1,0.04-2.11-0.76-2.84c-1.1-1.15-3.14-0.87-3.93,0.51c-0.23,0.39-0.34,0.81-0.34,1.26
		c0.04,2.42,0.15,4.84,0.16,7.26c0.26,8.28-4.07,18.33-8.59,24.22c-1.66,1.98-3.53,3.77-5.42,5.53c-0.83,0.9-2.09,1.53-2.59,2.68
		c-0.29,0.61-0.29,1.22-0.1,1.74c-0.23,0.82-0.08,1.75,0.62,2.4c1.7,1.96,3.49,3.84,5.14,5.84c0.91,1.27,1.67,3.27,3.57,2.87
		c1.23-0.08,2.16-1.26,2.17-2.46c-0.09-1.52-1.32-2.69-2.14-3.88c-1.33-1.62-2.75-3.16-4.15-4.73c3.19-2.88,6.33-5.87,8.69-9.48
		c3.65-6.1,6.74-12.77,7.49-19.91C426.05,835.71,425.8,832.03,425.72,828.36z"/>
	<path class="st21" d="M428.36,809.87c-1.85-11.3-2.89-22.98-7.73-33.51c-2.97-6.4-6.46-12.56-10.3-18.47
		c-3.25-4.97-9.99-13.43-12.12-16.19c-7.68-10.58-15.66-21.02-22.23-32.34c-1.96-3.53-3.9-7.08-5.8-10.65
		c-0.37-0.62-0.59-1.39-1.23-1.79c-0.92-0.82-2.43-0.66-3.28,0.2c-1.31,1.29-0.54,2.99,0.29,4.31c0.68,1.29,1.37,2.57,2.07,3.85
		c2.39,4.4,4.78,8.81,7.49,13.02c5.7,8.58,11.76,16.93,17.84,25.24c5.96,7.75,11.72,14.6,17.09,24.12
		c4.92,8.66,8.07,14.85,10.01,24.84c0.88,4.58,1.56,9.19,2.33,13.78c0.45,1.76,0.24,4.29,1.18,5.76
		C425.52,814.22,429.12,812.45,428.36,809.87z"/>
	<path class="st21" d="M362.57,683.64c-9.76-18.81-23.85-35.39-41.46-47.26c-7.58-5.11-15.61-9.72-24.33-12.57
		c-4.25-1.3-8.67-1.94-13.07-2.5c-2.69-0.34-5.4-0.55-8.1-0.73c-1.61-0.03-2.86,1.62-2.41,3.16c0.28,1.06,1.32,1.85,2.41,1.84
		c1.85,0.12,3.7,0.26,5.54,0.44c4.18,0.43,6.7,0.8,11.73,1.89c7.49,2,12.69,4.73,20,9.1c9.28,5.72,15.44,10.62,23.33,18.39
		c7.91,8.11,13.17,15.36,19.23,25.61c0.99,1.69,1.89,3.43,2.82,5.15c0.33,0.56,0.87,0.98,1.49,1.15
		C361.8,687.95,363.73,685.49,362.57,683.64z"/>
	<path class="st21" d="M386.65,1061.35c-0.64-2.31-3.23-1.81-5.07-1.73c-21.04,1.38-42.12,1.66-63.2,0.96
		c-12.13-0.68-24.28-0.86-36.4-1.68c-1.5,0-3.29-0.69-4.48,0.53c-1.56,1.47-0.4,4.34,1.77,4.27c7.3,0.65,14.62,0.85,21.94,1.05
		c11.48,0.69,22.98,1.1,34.48,1.16c7.91,0.03,15.82,0.02,23.73-0.13c8.28-0.31,16.54-1.01,24.82-1.26
		C385.85,1064.56,387.1,1062.9,386.65,1061.35z"/>
	<path class="st21" d="M532.44,851.83c-1.6-1.37-4.21-0.5-6.18-0.72c-11.58,0.03-23.16-0.03-34.74,0.22
		c-8.82,0.26-17.64,1.03-26.47,0.71c-9.07-0.11-18.14-0.48-27.18-1.32c-3.25,0.04-3.3,4.93,0,5c17.75,1.66,35.58,1.63,53.37,0.61
		c13.14-0.28,26.29-0.18,39.43-0.23C532.81,856.17,534.02,853.3,532.44,851.83z"/>
	<path class="st21" d="M666.81,869.34c-0.33-6.51-1.46-14.06-7.1-18.16c-3.81-2.62-8.57-3.19-13.06-3.68
		c-7.8-0.78-15.65-0.26-23.46,0.08c-11.09,0.42-22.16,1.11-33.25,1.6c-10.05,0.48-20.1,0.48-30.16,0.1c-1.66,0.18-3.67-0.43-5,0.8
		c-1.55,1.47-0.4,4.34,1.77,4.27c7.65-0.18,15.3,0.49,22.96,0.16c16.52-0.41,33.02-1.58,49.54-2.19c9.91-0.37,20.91-0.61,27.05,2.48
		c3.22,1.43,5.01,6.94,5.4,10.71c0.34,2.99,0.44,6,0.36,9.01c0.03,1.75-0.7,4.28,1.43,5.06c1.1,0.55,2.51,0.01,3.12-1.02
		c0.49-0.81,0.32-1.79,0.4-2.7C666.91,873.68,666.91,871.51,666.81,869.34z"/>
	<path class="st21" d="M647.27,1039.32c-1.09-1.15-3.15-0.87-3.93,0.51c-0.73,1.93-0.35,4.17-0.77,6.2
		c-0.15,1.92-2.3,7.82-4.85,9.86c-2.87,2.91-9.65,3.39-17.07,3.41c-7.26,0.08-14.53-0.1-21.79-0.44c-8.77-0.43-17.53,0.26-26.29,0.3
		c-14.1,0.07-28.21,0.06-42.3,0.78c-9.57,0.26-19.13,0.99-28.7,0.92c-13.84,0.05-27.66-0.66-41.49-0.91
		c-13.81-0.38-27.62-0.88-41.43-0.93c-2.92-0.03-5.83,0.08-8.74,0.25c-1.15,0.1-2.43-0.09-3.29,0.82c-1.53,1.47-0.42,4.34,1.77,4.27
		c11.89-0.72,23.81-0.14,35.7,0.17c16.79,0.34,33.58,0.98,50.37,1.32c17.82,0.28,35.6-1.18,53.41-1.5
		c9.04-0.24,18.09-0.04,27.14-0.22c7.97-0.11,15.94-0.67,23.91-0.27c7.52,0.35,15.05,0.53,22.58,0.43
		c6.46-0.21,13.72,0.01,19.03-4.22c4.68-4.02,6.94-10.28,7.28-16.32C647.84,1042.27,648.46,1040.49,647.27,1039.32z"/>
	<path class="st21" d="M656.06,936.03c-2.13,0.57-1.85,2.99-2.03,4.73c-1.14,13.96-3.08,24.43-4.85,37.82
		c-1.01,9.91-1.53,20.23-2.82,28.26c-1.1,8.24-1.12,14.54-2.69,21.52c-0.82,3.15,3.88,4.49,4.82,1.33
		c1.5-6.68,1.76-13.57,2.57-20.35c1.33-8.75,2.1-19.98,3.1-30.65c1.5-11.09,4.11-26.86,5.05-40.25
		C659.27,936.83,657.61,935.58,656.06,936.03z"/>
	<path class="st21" d="M663.88,886.55c-0.55-1.63-2.9-2.04-4.05-0.8c-0.96,0.95-0.72,2.36-0.83,3.59c-0.1,2.45-0.16,4.91-0.32,7.35
		c-0.57,6.95-1.53,13.87-2.3,20.8c-0.33,2.49-0.62,4.99-0.89,7.49c-0.05,0.65-0.22,1.35,0.12,1.95c0.93,2.5,4.84,1.69,4.78-0.96
		c1.17-11.92,3.28-23.77,3.57-35.76C663.9,888.99,664.35,887.68,663.88,886.55z"/>
</g>
<g id="Top_Right_Stars" class="st0">
	<path class="st22" d="M1795.01,154.05c-0.67-2.22-2.36-4.24-4.8-5.37c-1.62-1.2-3.35-2.12-7.24-6.67
		c-5.35-6.7-11.63-22.85-12.23-34.4c-0.68-4.19,0.52-9.26-2.75-12.55c-3.3-3.43-9.54-2.64-11.84,1.56
		c-1.55,3.48-1.79,7.38-2.83,11.03c-1.53,6.27-3.31,12.48-5.48,18.56c-1.01,3.64-5.65,12.03-7.35,13.41
		c-4.74,4.55-2.24,2.47-7.48,5.8c-1.67,1.01-3.75,1.61-4.86,3.3c-5.94,2.18-7.08,11.86,0.65,14.29c0.74,0.28,1.48,0.55,2.22,0.84
		c0.85,0.38,1.69,0.78,2.5,1.22c3.25,1.82,6.5,3.69,9.52,5.88c7.32,5.93,10.1,10.91,11.85,15.06c1.22,3.43,1.76,5.24,2.05,6.68
		c-0.46,3.19-0.76,6.41-0.99,9.62c0.04,2.25,0.93,4.06,2.27,5.34c0.32,1.27,0.88,2.46,1.88,3.38c3.31,3.41,9.44,2.63,11.78-1.52
		c1.58-2.56,0.87-5.64,0.82-8.48c-0.15-2.72-0.36-5.44-0.68-8.15c0.7-3.61,1.83-7.12,3.23-10.52c0.07-0.19,0.15-0.38,0.23-0.56
		c1.41-3.22,3.05-6.35,5.06-9.24c0.01-0.02,0.02-0.03,0.04-0.05c1.08-1.27,2.29-2.43,3.62-3.44c0.01,0.01,1.45-1.05,2.54-1.65
		c1.49-0.53,3.04-0.92,4.58-1.29C1797.44,164.22,1798,157.75,1795.01,154.05z"/>
	<path class="st22" d="M1712.42,302.03c0.09-1.39-0.2-2.82-1-4.12c-1.03-1.92-3.01-2.84-4.73-4.03c-4.73-3.39-2.65-1.84-5.73-4.36
		c-0.53-0.47-1.23-1.26-1.68-1.78c-0.72-1-1.37-2.05-1.99-3.11c-3.61-6.9-3.12-5.57-5.27-13.83c-0.83-4.87-1.03-4.24-1.04-10.85
		c0.05-0.72,0.08-1.45,0.07-2.17c0.01-0.09,0.01-0.19,0.02-0.28c0,0.05-0.01,0.11-0.02,0.19c-0.02-0.79-0.07-1.58-0.2-2.36
		c-1.18-4.94-7.92-7.27-11.78-3.9c-2.81,1.9-3.12,5.36-3.12,8.57c-0.06,0.76-0.14,1.51-0.22,2.27c-1.83,10.15-2.49,11.76-6.87,19.27
		c-0.04,0.06-0.07,0.1-0.1,0.15c-2.21,2.58-4.98,4.62-7.65,6.71c0.51-0.39,1.01-0.78,1.52-1.17c-0.62,0.54-1.33,1.07-2.06,1.6
		c-7.08-1.24-11.89,7.32-6.68,12.66c5.47,4.71,11.6,8.78,16.33,14.27c1.3,1.81,2.49,3.7,3.46,5.7c0.57,1.64,1,3.32,1.37,5.02
		c-0.36,1.93-0.62,3.88-0.86,5.83c-0.97,4.7-0.06,9.5,5.11,11.03c0.96,0.26,1.93,0.3,2.88,0.18c2.98,0.5,6.26-0.76,7.83-3.54
		c1.11-1.77,1.08-3.84,0.98-5.85c-0.03-2.41-0.26-4.81-0.62-7.19c-0.01-0.06-0.02-0.13-0.03-0.19c0.12-0.48,0.25-0.96,0.4-1.43
		c1.08-2.12,2.4-4.1,3.78-6.04c2.29-2.69,2.88-2.61,3.73-3.19c0.81-0.43,1.65-0.82,2.49-1.19c0.01,0,0.01-0.01,0.02-0.01
		c3.85-1.82,9.1-1.87,11.45-5.87C1713.57,306.69,1713.46,304.14,1712.42,302.03z"/>
	<path class="st22" d="M1835.27,255.28c-0.58-1.36-1.42-2.59-2.66-3.42c-0.65-0.61-1.25-1.27-1.82-1.96c-1.1-1.5-2.1-3.07-2.99-4.71
		c-0.15-0.28-0.29-0.56-0.43-0.84c-0.02-0.05-0.04-0.1-0.07-0.15c-0.07-0.18-0.14-0.36-0.2-0.54c-0.24-0.71-0.48-1.93-0.63-2.73
		c-0.11-1.58,0.01-3.15-0.3-4.72c-0.67-2.49-2.75-4.56-5.24-5.24c-3.22-0.77-6.82,0.48-8.47,3.45c-0.91,1.81-1.33,3.8-2.01,5.7
		c-2.2,6.28-1.44,4.57-3.22,8.35c-0.78,1.51-1.6,3-2.48,4.46c-3.26,2.19-4.72,6.92-2.01,10.64c0.57,0.99,1.38,1.81,2.33,2.42
		c2.7,2.65,3.08,3.34,4.06,4.66c1.21,1.73,2.37,3.52,3.27,5.43c0.25,0.69,0.47,1.39,0.61,2.11c0.03,0.39,0.06,0.79,0.08,1.18
		c0.39,9.92,14.65,9.86,15,0c-0.01-0.66-0.05-1.31-0.12-1.96c0.9-0.74,1.68-1.73,2.25-2.99c1.42-2.42,3.01-4.73,4.6-7.03
		c1.11-1.74,2.77-3.37,2.8-5.55C1838.07,259.04,1837.01,256.76,1835.27,255.28z"/>
	<path class="st22" d="M1629.12,77.88c-1.54,0-3.08-0.02-4.62-0.06c-0.04-0.79-0.07-1.58-0.11-2.37c0.03-0.69-0.12-1.33-0.43-1.93
		c-1.96-5.01-9.59-3.43-9.57,1.93c0.05,1.02,0.09,2.03,0.14,3.05c-0.95,0.68-1.53,1.6-1.78,2.62c-0.14-0.01-0.28-0.03-0.43-0.04
		c-6.59,0.16-6.57,9.82,0,10c1.04-0.03,1.89-0.31,2.6-0.73c0,0.18,0.01,0.37,0.01,0.55c0.2,2.65-0.6,5.83,1.53,7.88
		c2.2,2.31,6.28,1.75,7.85-1.01c0.81-1.28,0.69-2.79,0.66-4.24c-0.02-1.91-0.06-3.81-0.1-5.72c0.79,0.02,1.58,0.05,2.36,0.06
		c2.09,0.05,4.45,0.22,6-1.46C1636.55,83.13,1633.75,77.4,1629.12,77.88z"/>
	<path class="st22" d="M1857.67,445c-1.25-0.79-2.74-0.69-4.16-0.73c-0.14,0-0.28,0-0.42-0.01c-0.03-0.41-0.05-0.81-0.09-1.22
		c-0.22-1.38,0.02-2.89-0.62-4.15c-1.96-5.01-9.59-3.43-9.57,1.93c0.12,1.16,0.21,2.33,0.28,3.49c-1.15,0.02-2.31,0.05-3.46,0.06
		c-1.35,0.1-2.82-0.19-4.05,0.47c-5.01,1.96-3.43,9.59,1.93,9.57c1.84-0.03,3.68-0.07,5.53-0.11c-0.21,1.9-0.78,3.86,0.01,5.6
		c1.31,3.79,7,4.05,8.89,0.6c0.62-0.98,0.65-2.1,0.77-3.22c0.12-1,0.22-1.99,0.3-2.99c1.4,0.09,2.8,0.11,4.08-0.41
		C1860.85,452.57,1861.12,446.88,1857.67,445z"/>
	<path class="st22" d="M1886.23,47.47c-1.31-0.83-2.86-0.68-4.34-0.7c-0.05-0.45-0.1-0.9-0.15-1.35c0.01-1.31-0.54-2.61-1.46-3.54
		c-2.7-2.83-7.54-1.2-8.39,2.32c-0.54,0.7-0.91,1.52-1,2.42c-0.35,0.2-0.67,0.45-0.96,0.76c-1.55,1.47-1.76,3.58-1.06,5.34
		c0.48,1.91,2.01,3.55,4.12,3.81c0.03,0.3,0.06,0.59,0.1,0.89c0.37,1.83,0.07,4.04,1.4,5.51c1.9,2.86,6.63,2.46,8.24-0.51
		c0.61-1.2,0.9-2.53,0.5-3.85c-0.01-0.16-0.05-0.35-0.22-1.77c2.22-0.05,4.51-0.8,5.27-3.1
		C1889.37,51.51,1888.29,48.7,1886.23,47.47z"/>
</g>
<g id="Layer_33" class="st0">
	<path class="st23" d="M1761.67,396.55c-9.24,0.31-9.18,13.72,0,14C1770.9,410.24,1770.85,396.83,1761.67,396.55z"/>
	<path class="st23" d="M1679.74,194.8c-9.24,0.31-9.18,13.72,0,14C1688.98,208.48,1688.92,195.08,1679.74,194.8z"/>
	<path class="st23" d="M1713.98,43.18c-9.24,0.31-9.18,13.72,0,14C1723.22,56.86,1723.16,43.46,1713.98,43.18z"/>
	<path class="st23" d="M1581.92,524.94c-9.24,0.31-9.18,13.72,0,14C1591.16,538.63,1591.1,525.22,1581.92,524.94z"/>
	<path class="st23" d="M1831.36,633.76c-9.24,0.31-9.18,13.72,0,14C1840.6,647.45,1840.54,634.04,1831.36,633.76z"/>
	<path class="st23" d="M1711.53,499.26c-9.24,0.31-9.18,13.72,0,14C1720.77,512.95,1720.71,499.54,1711.53,499.26z"/>
	<path class="st23" d="M436.44,635.9c-9.24,0.31-9.18,13.72,0,14C445.68,649.59,445.62,636.18,436.44,635.9z"/>
	<path class="st23" d="M97.93,485.45c-9.24,0.31-9.18,13.72,0,14C107.16,499.14,107.11,485.73,97.93,485.45z"/>
	<path class="st23" d="M398.83,395.18c-9.24,0.31-9.18,13.72,0,14C408.06,408.87,408.01,395.46,398.83,395.18z"/>
	<path class="st23" d="M744.86,771.31c-9.24,0.31-9.18,13.72,0,14C754.1,785,754.04,771.59,744.86,771.31z"/>
	<path class="st23" d="M823.85,981.94c-9.24,0.31-9.18,13.72,0,14C833.09,995.63,833.03,982.22,823.85,981.94z"/>
	<path class="st23" d="M1688.94,884.15c-9.24,0.31-9.18,13.72,0,14C1698.18,897.83,1698.12,884.43,1688.94,884.15z"/>
	<path class="st23" d="M1256.4,801.4c-9.24,0.31-9.18,13.72,0,14C1265.63,815.09,1265.58,801.68,1256.4,801.4z"/>
	<path class="st23" d="M1549.78,323.72c-9.24,0.31-9.18,13.72,0,14C1559.01,337.4,1558.96,324,1549.78,323.72z"/>
	<path class="st23" d="M1015.68,244.73c-9.24,0.31-9.18,13.72,0,14C1024.91,258.42,1024.86,245.01,1015.68,244.73z"/>
	<path class="st23" d="M940.45,628.38c-9.24,0.31-9.18,13.72,0,14C949.69,642.07,949.63,628.66,940.45,628.38z"/>
	<path class="st23" d="M673.4,301.15c-9.24,0.31-9.18,13.72,0,14C682.64,314.84,682.58,301.43,673.4,301.15z"/>
	<path class="st23" d="M169.39,207.12c-9.24,0.31-9.18,13.72,0,14C178.63,220.8,178.57,207.4,169.39,207.12z"/>
	<path class="st23" d="M259.66,380.14c-9.24,0.31-9.18,13.72,0,14C268.9,393.82,268.84,380.42,259.66,380.14z"/>
	<path class="st23" d="M545.52,128.13c-9.24,0.31-9.18,13.72,0,14C554.75,141.82,554.7,128.41,545.52,128.13z"/>
	<path class="st23" d="M1779.21,820.21c-9.24,0.31-9.18,13.72,0,14C1788.45,833.89,1788.4,820.48,1779.21,820.21z"/>
	<path class="st24" d="M1440.83,127.96c-9.24,0.31-9.18,13.72,0,14C1450.06,141.65,1450.01,128.24,1440.83,127.96z"/>
	<path class="st24" d="M1364.63,506.56c-9.24,0.31-9.18,13.72,0,14C1373.87,520.24,1373.81,506.84,1364.63,506.56z"/>
	<path class="st24" d="M940.8,406.55c-9.24,0.31-9.18,13.72,0,14C950.03,420.24,949.98,406.83,940.8,406.55z"/>
	<path class="st24" d="M869.36,175.59c-9.24,0.31-9.18,13.72,0,14C878.6,189.27,878.55,175.86,869.36,175.59z"/>
	<path class="st24" d="M712.21,549.42c-9.24,0.31-9.18,13.72,0,14C721.45,563.1,721.39,549.69,712.21,549.42z"/>
	<path class="st24" d="M1024.14,770.86c-9.24,0.31-9.18,13.72,0,14C1033.37,784.54,1033.32,771.14,1024.14,770.86z"/>
	<path class="st24" d="M1521.78,825.62c-9.24,0.31-9.18,13.72,0,14C1531.02,839.31,1530.96,825.9,1521.78,825.62z"/>
	<path class="st24" d="M1286.05,949.44c-9.24,0.31-9.18,13.72,0,14C1295.29,963.12,1295.24,949.72,1286.05,949.44z"/>
	<path class="st24" d="M1236.05,499.41c-9.24,0.31-9.18,13.72,0,14C1245.29,513.1,1245.23,499.69,1236.05,499.41z"/>
	<path class="st24" d="M395.53,106.53c-9.24,0.31-9.18,13.72,0,14C404.76,120.22,404.71,106.81,395.53,106.53z"/>
	<path class="st24" d="M150.28,337.5c-9.24,0.31-9.18,13.72,0,14C159.51,351.19,159.46,337.78,150.28,337.5z"/>
	<path class="st24" d="M81.23,87.49c-9.24,0.31-9.18,13.72,0,14C90.46,101.17,90.41,87.76,81.23,87.49z"/>
	<path class="st24" d="M1862.28,1018.49c-9.24,0.31-9.18,13.72,0,14C1871.51,1032.18,1871.46,1018.77,1862.28,1018.49z"/>
</g>
<g id="Layer_34" class="st0">
	<path class="st24" d="M1625.41,866.55c-6.59,0.16-6.57,9.82,0,10C1632,876.39,1631.98,866.73,1625.41,866.55z"/>
	<path class="st24" d="M1718.53,626.69c-6.59,0.16-6.57,9.82,0,10C1725.12,636.53,1725.1,626.88,1718.53,626.69z"/>
	<path class="st24" d="M1295.25,708.53c-6.59,0.16-6.57,9.82,0,10C1301.85,718.36,1301.83,708.71,1295.25,708.53z"/>
	<path class="st24" d="M1377.09,463.03c-6.59,0.16-6.57,9.82,0,10C1383.68,472.87,1383.66,463.21,1377.09,463.03z"/>
	<path class="st24" d="M1783.43,355.8c-6.59,0.16-6.57,9.82,0,10C1790.02,365.64,1790,355.98,1783.43,355.8z"/>
	<path class="st24" d="M1334.76,172.38c-6.59,0.16-6.57,9.82,0,10C1341.35,182.22,1341.33,172.56,1334.76,172.38z"/>
	<path class="st24" d="M990.5,465.85c-6.59,0.16-6.57,9.82,0,10C997.09,475.69,997.07,466.03,990.5,465.85z"/>
	<path class="st24" d="M1343.22,623.87c-6.59,0.16-6.57,9.82,0,10C1349.82,633.71,1349.8,624.05,1343.22,623.87z"/>
	<path class="st24" d="M996.14,903.23c-6.59,0.16-6.57,9.82,0,10C1002.73,913.07,1002.71,903.41,996.14,903.23z"/>
	<path class="st24" d="M770.4,906.05c-6.59,0.16-6.57,9.82,0,10C776.99,915.89,776.97,906.24,770.4,906.05z"/>
	<path class="st24" d="M657.52,683.13c-6.59,0.16-6.57,9.82,0,10C664.11,692.97,664.1,683.31,657.52,683.13z"/>
	<path class="st24" d="M454.35,700.06c-6.59,0.16-6.57,9.82,0,10C460.94,709.9,460.93,700.24,454.35,700.06z"/>
	<path class="st24" d="M217.32,482.78c-6.59,0.16-6.57,9.82,0,10C223.91,492.62,223.89,482.96,217.32,482.78z"/>
	<path class="st24" d="M104.45,595.65c-6.59,0.16-6.57,9.82,0,10C111.04,605.49,111.02,595.84,104.45,595.65z"/>
	<path class="st24" d="M90.34,316.3c-6.59,0.16-6.57,9.82,0,10C96.93,326.13,96.91,316.48,90.34,316.3z"/>
	<path class="st24" d="M95.98,132.88c-6.59,0.16-6.57,9.82,0,10C102.57,142.71,102.56,133.06,95.98,132.88z"/>
	<path class="st24" d="M383.81,42.58c-6.59,0.16-6.57,9.82,0,10C390.4,52.42,390.38,42.76,383.81,42.58z"/>
	<path class="st24" d="M251.18,324.76c-6.59,0.16-6.57,9.82,0,10C257.77,334.6,257.76,324.94,251.18,324.76z"/>
	<path class="st24" d="M649.06,262.68c-6.59,0.16-6.57,9.82,0,10C655.65,272.52,655.63,262.86,649.06,262.68z"/>
	<path class="st24" d="M1106.19,115.95c-6.59,0.16-6.57,9.82,0,10C1112.78,125.78,1112.77,116.13,1106.19,115.95z"/>
	<path class="st24" d="M733.71,446.1c-6.59,0.16-6.57,9.82,0,10C740.3,455.94,740.29,446.28,733.71,446.1z"/>
	<path class="st24" d="M462.82,386.84c-6.59,0.16-6.57,9.82,0,10C469.41,396.68,469.39,387.02,462.82,386.84z"/>
	<path class="st24" d="M809.9,93.37c-6.59,0.16-6.57,9.82,0,10C816.49,103.21,816.48,93.55,809.9,93.37z"/>
	<path class="st24" d="M1221.89,525.11c-6.59,0.16-6.57,9.82,0,10C1228.48,534.95,1228.46,525.29,1221.89,525.11z"/>
	<path class="st24" d="M979.21,683.13c-6.59,0.16-6.57,9.82,0,10C985.8,692.97,985.78,683.31,979.21,683.13z"/>
	<path class="st24" d="M1670.56,714.17c-6.59,0.16-6.57,9.82,0,10C1677.15,724.01,1677.13,714.35,1670.56,714.17z"/>
	<path class="st24" d="M1808.82,990.71c-6.59,0.16-6.57,9.82,0,10C1815.42,1000.55,1815.4,990.89,1808.82,990.71z"/>
	<path class="st24" d="M1425.06,1058.43c-6.59,0.16-6.57,9.82,0,10C1431.65,1068.27,1431.63,1058.61,1425.06,1058.43z"/>
	<path class="st24" d="M871.98,1055.61c-6.59,0.16-6.57,9.82,0,10C878.57,1065.45,878.56,1055.79,871.98,1055.61z"/>
	<path class="st24" d="M1326.29,891.95c-6.59,0.16-6.57,9.82,0,10C1332.89,901.78,1332.87,892.13,1326.29,891.95z"/>
	<path class="st24" d="M1024.94,309.48c-0.21-0.01-0.42,0-0.63,0c-0.02-0.43-0.05-0.86-0.07-1.29c-0.13-2.51-0.25-5.02-0.38-7.52
		c0.03-0.69-0.12-1.33-0.43-1.93c-1.96-5.01-9.59-3.43-9.57,1.93c0.17,3.19,0.31,6.39,0.49,9.58c-0.62,0.06-1.25,0.12-1.88,0.17
		c-2.49,0.42-5.47-0.13-7.39,1.84c-3.14,2.99-0.81,8.63,3.54,8.54c2.14-0.18,4.28-0.41,6.42-0.63c0,0.03,0,0.05,0.01,0.08
		c0.4,2.63,0.21,5.55,1.06,8.05c1.96,5.01,9.59,3.43,9.57-1.93c-0.27-2.27-0.48-4.55-0.68-6.83
		C1031.23,319.03,1031.93,310.13,1024.94,309.48z"/>
	<path class="st24" d="M268.07,131.8c-0.1-0.78-0.2-1.56-0.29-2.35c-0.27-2.16-0.55-4.32-0.82-6.47c0.01-1.31-0.54-2.61-1.46-3.54
		c-2.99-3.14-8.63-0.81-8.54,3.54c0.47,3.72,0.94,7.43,1.4,11.15c-0.25,0.05-0.51,0.11-0.76,0.16c-2.06,0.6-4.55,0.41-6.28,1.81
		c-4.37,3.2-0.83,10.19,4.36,8.75c1.29-0.26,2.59-0.52,3.89-0.78c0.19,1.64,0.37,3.27,0.57,4.91c-0.01,1.93,1.21,3.94,3.07,4.57
		c2.2,1.1,5.02,0.02,6.24-2.05c1.32-2.2,0.24-4.8,0.14-7.18c-0.1-0.83-0.2-1.66-0.3-2.5c1.64-0.43,3.23-1.03,4.08-2.61
		C275.6,135.6,272.12,130.91,268.07,131.8z"/>
	<path class="st24" d="M556.67,606.32c-1.2-0.61-2.53-0.9-3.85-0.5c-3.56,0.51-1.93,0.27-4.08,0.56c-0.16,0.02-0.31,0.03-0.47,0.05
		c-0.01-0.09-0.01-0.17-0.02-0.26c-0.39-2.56,0.23-5.63-1.79-7.6c-2.99-3.14-8.63-0.81-8.54,3.54c0.14,1.77,0.28,3.54,0.42,5.31
		c-1.7,0.13-3.48,0-5.04,0.65c-5.01,1.96-3.43,9.59,1.93,9.57c1.3-0.09,2.6-0.2,3.9-0.31c0.03,0.4,0.06,0.8,0.1,1.19
		c0.16,6.59,9.82,6.58,10,0c-0.06-0.73-0.12-1.47-0.18-2.2c2.14-0.26,4.28-0.54,6.42-0.87
		C559.67,614.41,560.43,608.43,556.67,606.32z"/>
	<path class="st24" d="M1578.34,965.59c-1.36-0.87-2.96-0.68-4.48-0.53c-0.91,0.06-1.81,0.11-2.72,0.16
		c-0.01-0.48-0.01-0.96-0.02-1.44c0.03-0.69-0.12-1.33-0.43-1.93c-1.96-5.01-9.59-3.43-9.57,1.93c0.01,0.61,0.01,1.23,0.02,1.84
		c-2.07,0.16-4.32-0.27-6.25,0.54c-5.01,1.96-3.43,9.59,1.93,9.57c1.52-0.04,3.03-0.08,4.55-0.13c0.05,1.23,0.12,2.47,0.2,3.7
		c0.29,1.98,0.01,4.15,0.78,6.01c1.31,3.79,7,4.05,8.89,0.6c1.01-1.55,0.58-3.38,0.45-5.09c-0.15-1.86-0.25-3.73-0.34-5.6
		c0.09-0.01,0.17-0.01,0.26-0.01c2.02-0.27,4.23,0.06,6.13-0.73C1581.53,973.16,1581.8,967.48,1578.34,965.59z"/>
	<path class="st24" d="M1152.15,836.18c-1.49-0.47-2.95,0.05-4.31,0.67c-0.03,0.01-0.05,0.02-0.08,0.03
		c-0.01-1.53,0.06-3.09-0.53-4.47c-1.96-5.01-9.59-3.43-9.57,1.93c0.08,1.79,0.16,3.57,0.23,5.36c-0.85,0.22-1.71,0.44-2.56,0.66
		c-2.17,0.75-4.78,0.74-6.64,2.15c-4.37,3.2-0.84,10.19,4.36,8.75c1.73-0.44,3.46-0.88,5.19-1.32c-0.02,1.46-0.12,2.94,0.47,4.26
		c1.31,3.79,7,4.05,8.89,0.6c1.12-2.18,0.64-4.95,0.53-7.49c2.01-0.59,4.01-1.24,5.73-2.35
		C1157.18,842.69,1155.98,837.12,1152.15,836.18z"/>
	<path class="st24" d="M1503.83,202.42c-1.33-0.24-2.66-0.48-3.99-0.73c0.33-2.37,0.65-4.75,0.98-7.12
		c1.59-6.39-7.71-8.95-9.64-2.66c-0.37,2.69-0.74,5.38-1.11,8.07c-1.98-0.4-4.03-0.94-5.84,0.16c-3.77,2.09-2.99,8.08,1.19,9.14
		c1.1,0.18,2.19,0.38,3.29,0.57c-0.1,0.7-0.19,1.41-0.29,2.11c-0.24,1.76-0.49,3.53-0.73,5.29c-0.36,1.28-0.17,2.7,0.5,3.85
		c1.3,2.33,4.56,3.18,6.84,1.79c1.08-0.73,1.98-1.69,2.3-2.99c0.38-2.78,0.76-5.55,1.15-8.33c0.9,0.16,1.79,0.32,2.69,0.49
		C1507.56,213.65,1510.12,204.35,1503.83,202.42z"/>
</g>
<g id="Star_1">
	<polygon class="st25" points="476.89,728.63 483.19,749.01 503.56,749.01 487.08,761.6 493.38,781.97 476.89,769.38 460.41,781.97 
		466.71,761.6 450.23,749.01 470.6,749.01 	"/>
</g>
<g id="Star_2">
	<polygon class="st25" points="38.79,818.73 43.91,835.32 60.5,835.32 47.08,845.57 52.21,862.15 38.79,851.9 25.37,862.15 
		30.49,845.57 17.08,835.32 33.66,835.32 	"/>
</g>
<g id="Star_3">
	<polygon class="st25" points="384.01,866.5 388.38,880.65 402.54,880.65 391.09,889.4 395.46,903.55 384.01,894.8 372.56,903.55 
		376.93,889.4 365.48,880.65 379.64,880.65 	"/>
</g>
<g id="Star_4">
	<polygon class="st25" points="263.9,561.27 268.58,576.4 283.71,576.4 271.47,585.76 276.14,600.89 263.9,591.54 251.66,600.89 
		256.33,585.76 244.09,576.4 259.22,576.4 	"/>
</g>
<g id="Star_5">
	<polygon class="st25" points="169.13,981.41 173.38,995.18 187.15,995.18 176.01,1003.69 180.27,1017.45 169.13,1008.94 
		158,1017.45 162.25,1003.69 151.11,995.18 164.88,995.18 	"/>
</g>
<g id="Star_6">
	<polygon class="st25" points="592.14,1003.87 596.62,1018.38 611.14,1018.38 599.4,1027.35 603.88,1041.87 592.14,1032.9 
		580.4,1041.87 584.88,1027.35 573.14,1018.38 587.65,1018.38 	"/>
</g>
</svg>
