<svg xmlns="http://www.w3.org/2000/svg" viewBox="0 0 1196.84 972.86"><defs><style>.cls-1{fill:#fcca6d;}</style></defs><g id="Layer_1" data-name="Layer 1"><polygon class="cls-1" points="1196.84 196.78 1172.91 199.41 1161.52 220.62 1151.62 198.68 1127.93 194.39 1145.74 178.2 1142.49 154.35 1163.4 166.28 1185.08 155.82 1180.19 179.39 1196.84 196.78"/></g><g id="Layer_2" data-name="Layer 2"><polygon class="cls-1" points="1087.42 97.68 1059.93 76.85 1027.19 87.67 1038.51 55.1 1018.1 27.3 1052.58 28.01 1072.7 0 1082.69 33.01 1115.55 43.5 1087.24 63.2 1087.42 97.68"/></g><g id="Layer_3" data-name="Layer 3"><polygon class="cls-1" points="1129.22 308.84 1102.62 296.74 1077.57 311.81 1080.85 282.76 1058.78 263.6 1087.42 257.74 1098.83 230.83 1113.24 256.26 1142.36 258.79 1122.64 280.36 1129.22 308.84"/></g><g id="Layer_10" data-name="Layer 10"><polygon class="cls-1" points="1022.21 188.88 1005.86 184.34 992.85 195.23 992.12 178.27 977.74 169.26 993.64 163.33 997.76 146.87 1008.32 160.16 1025.24 159 1015.87 173.14 1022.21 188.88"/></g><g id="Layer_11" data-name="Layer 11"><polygon class="cls-1" points="1169.48 97.68 1160.7 90.55 1149.85 93.73 1153.93 83.18 1147.54 73.84 1158.84 74.46 1165.75 65.5 1168.65 76.43 1179.3 80.24 1169.81 86.38 1169.48 97.68"/></g><g id="Layer_12" data-name="Layer 12"><polygon class="cls-1" points="1084.32 209.17 1075.61 203.14 1065.71 206.9 1068.75 196.75 1062.12 188.5 1072.71 188.25 1078.51 179.4 1082.01 189.39 1092.23 192.17 1083.81 198.59 1084.32 209.17"/></g><g id="Layer_13" data-name="Layer 13"><polygon class="cls-1" points="1077.17 131.75 1069.19 131.1 1064.13 137.31 1062.28 129.52 1054.81 126.63 1061.64 122.46 1062.09 114.46 1068.17 119.67 1075.91 117.62 1072.83 125.02 1077.17 131.75"/></g><g id="Layer_4" data-name="Layer 4"><polygon class="cls-1" points="98 763.49 63.99 759.63 41.53 785.47 34.69 751.93 3.19 738.55 32.97 721.68 35.95 687.59 61.2 710.7 94.55 703 80.37 734.15 98 763.49"/></g><g id="Layer_5" data-name="Layer 5"><polygon class="cls-1" points="161.48 837.81 148.68 823.49 129.63 825.92 139.29 809.32 131.09 791.94 149.87 796.01 163.86 782.84 165.8 801.95 182.64 811.19 165.06 818.94 161.48 837.81"/></g><g id="Layer_6" data-name="Layer 6"><polygon class="cls-1" points="98 857.94 83.78 850.05 69.22 857.29 72.34 841.33 60.96 829.72 77.09 827.75 84.62 813.34 91.48 828.08 107.51 830.78 95.61 841.86 98 857.94"/></g><g id="Layer_7" data-name="Layer 7"><polygon class="cls-1" points="191.82 940.68 161.42 936.18 140.49 958.67 135.37 928.38 107.51 915.42 134.74 901.19 138.46 870.69 160.41 892.19 190.56 886.3 176.89 913.82 191.82 940.68"/></g><g id="Layer_8" data-name="Layer 8"><polygon class="cls-1" points="26.77 914.68 16.72 901.3 0 901.98 9.63 888.29 3.81 872.6 19.8 877.52 32.93 867.14 33.19 883.87 47.12 893.15 31.29 898.57 26.77 914.68"/></g><g id="Layer_9" data-name="Layer 9"><polygon class="cls-1" points="76.32 967.88 63.08 964.09 52.45 972.86 51.96 959.09 40.34 951.7 53.27 946.97 56.72 933.64 65.21 944.48 78.96 943.64 71.27 955.06 76.32 967.88"/></g></svg>